<?xml version="1.0" standalone="no"?>
<!DOCTYPE svg PUBLIC "-//W3C//DTD SVG 1.1//EN" "http://www.w3.org/Graphics/SVG/1.1/DTD/svg11.dtd" >
<svg xmlns="http://www.w3.org/2000/svg" xmlns:xlink="http://www.w3.org/1999/xlink" version="1.1">
<metadata>
Created by FontForge 20170731 at Tue Nov 19 01:40:40 2013
 By Aleksey,,,
Copyright (c) 2013 by juliasys.com. All rights reserved.
</metadata>
<defs>
<font id="Mir" horiz-adv-x="1004" >
  <font-face 
    font-family="Mir"
    font-weight="400"
    font-stretch="normal"
    units-per-em="2000"
    panose-1="2 0 5 4 6 1 1 2 1 4"
    ascent="1525"
    descent="-475"
    x-height="926"
    cap-height="1268"
    bbox="-201 -480 2133 1735"
    underline-thickness="100"
    underline-position="-400"
    unicode-range="U+000D-FB04"
  />
<missing-glyph horiz-adv-x="1018" 
d="M149 0v1400h720v-1400h-720zM251 1300v-1199h518v1199h-518z" />
    <glyph glyph-name="ff" unicode="ff" horiz-adv-x="1156" 
d="M1141 1388q10 -4 10 -14l-12 -79q-2 -8 -8 -8q-3 0 -13 2q-56 13 -96 13q-80 0 -117.5 -43t-37.5 -140v-193h245q17 0 17 -17v-79q0 -16 -17 -16h-245v-798q0 -7 -5.5 -11.5t-11.5 -4.5h-101q-17 0 -17 16v798h-395v-798q0 -7 -5.5 -11.5t-11.5 -4.5h-101q-17 0 -17 16
v798h-147q-7 0 -12 5t-5 11v79q0 17 17 17h147v193q0 151 61 222.5t190 71.5q74 0 158 -25q10 -4 10 -14l-12 -79q-2 -8 -8 -8q-3 0 -13 2q-56 13 -96 13q-80 0 -117.5 -43t-37.5 -140v-193h395v193q0 151 61 222.5t190 71.5q74 0 158 -25z" />
    <glyph glyph-name="fi" unicode="fi" horiz-adv-x="1045" 
d="M789 1299q39 0 65.5 -26.5t26.5 -64.5t-26.5 -64.5t-65.5 -26.5q-38 0 -64.5 26.5t-26.5 64.5t26.5 64.5t64.5 26.5zM720 9v805h-383v-798q0 -7 -5.5 -11.5t-11.5 -4.5h-101q-17 0 -17 16v798h-147q-7 0 -12 5t-5 11v79q0 17 17 17h147v193q0 151 61 222.5t190 71.5
q74 0 158 -25q10 -4 10 -14l-12 -79q-2 -8 -8 -8q-3 0 -13 2q-56 13 -96 13q-80 0 -117.5 -43t-37.5 -140v-193h502q16 0 16 -20v-792l113 -27q17 -3 17 -16v-46q0 -14 -17 -17l-231 -17q-15 0 -17 18z" />
    <glyph glyph-name="fl" unicode="fl" horiz-adv-x="1104" 
d="M701 1301h-199q-83 0 -124 -43t-41 -139v-193h245q17 0 17 -17v-79q0 -16 -17 -16h-245v-798q0 -7 -5.5 -11.5t-11.5 -4.5h-101q-17 0 -17 16v798h-147q-7 0 -12 5t-5 11v79q0 17 17 17h147v193q0 149 65 220.5t196 71.5h335q56 0 56 -49v-1092q0 -183 153 -183
q21 0 66 6q8 0 10 -11l11 -81q0 -11 -12 -13q-62 -12 -114 -12q-250 0 -250 294v1009q0 22 -17 22z" />
    <glyph glyph-name="ffi" unicode="ffi" horiz-adv-x="1555" 
d="M1299 1299q39 0 65.5 -26.5t26.5 -64.5t-26.5 -64.5t-65.5 -26.5q-38 0 -64.5 26.5t-26.5 64.5t26.5 64.5t64.5 26.5zM1230 9v805h-373v-798q0 -7 -5.5 -11.5t-11.5 -4.5h-101q-17 0 -17 16v798h-385v-798q0 -7 -5.5 -11.5t-11.5 -4.5h-101q-17 0 -17 16v798h-147
q-7 0 -12 5t-5 11v79q0 17 17 17h147v193q0 151 61 222.5t190 71.5q74 0 158 -25q10 -4 10 -14l-12 -79q-2 -8 -8 -8q-3 0 -13 2q-56 13 -96 13q-80 0 -117.5 -43t-37.5 -140v-193h385v193q0 151 61 222.5t190 71.5q74 0 158 -25q10 -4 10 -14l-12 -79q-2 -8 -8 -8
q-3 0 -13 2q-56 13 -96 13q-80 0 -117.5 -43t-37.5 -140v-193h492q16 0 16 -20v-792l113 -27q17 -3 17 -16v-46q0 -14 -17 -17l-231 -17q-17 0 -17 18z" />
    <glyph glyph-name="ffl" unicode="ffl" horiz-adv-x="1600" 
d="M1197 1294h-195q-82 0 -118.5 -39.5t-36.5 -135.5v-193h245q17 0 17 -17v-79q0 -16 -17 -16h-245v-798q0 -7 -5.5 -11.5t-11.5 -4.5h-101q-17 0 -17 16v798h-375v-798q0 -7 -5.5 -11.5t-11.5 -4.5h-101q-17 0 -17 16v798h-147q-7 0 -12 5t-5 11v79q0 17 17 17h147v193
q0 151 61 222.5t190 71.5q74 0 158 -25q10 -4 10 -14l-12 -79q-2 -8 -8 -8q-3 0 -13 2q-56 13 -96 13q-80 0 -117.5 -43t-37.5 -140v-193h375v193q0 149 60.5 217.5t190.5 68.5h331q56 0 56 -49v-1086q0 -183 153 -183q21 0 66 6q8 0 10 -11l11 -81q0 -11 -12 -13
q-62 -12 -114 -12q-250 0 -250 294v1002q0 22 -17 22z" />
    <glyph glyph-name="f_j" unicode="fj" horiz-adv-x="1010" 
d="M346 926h491q17 0 17 -19v-1022q0 -142 -70 -230q-66 -85 -256 -94q-14 0 -15 13l-8 74q0 18 30 19q184 16 184 212v935h-373v-798q0 -7 -5.5 -11.5t-11.5 -4.5h-101q-17 0 -17 16v798h-147q-7 0 -12 5t-5 11v79q0 17 17 17h147v193q0 151 61 222.5t190 71.5
q74 0 158 -25q10 -3 10 -14l-12 -79q-2 -8 -8 -8q-3 0 -13 2q-56 13 -96 13q-80 0 -117.5 -43t-37.5 -140v-193zM791 1300q39 0 65.5 -26.5t26.5 -64.5t-26.5 -64.5t-65.5 -26.5q-38 0 -64.5 26.5t-26.5 64.5t26.5 64.5t64.5 26.5z" />
    <glyph glyph-name="f_f_j" unicode="ffj" horiz-adv-x="1510" 
d="M620 1388q10 -4 10 -14l-12 -79q-2 -8 -8 -8q-3 0 -13 2q-56 13 -96 13q-80 0 -117.5 -43t-37.5 -140v-193h355v193q0 151 61 222.5t190 71.5q74 0 158 -25q10 -4 10 -14l-12 -79q-2 -8 -8 -8q-3 0 -13 2q-56 13 -96 13q-80 0 -117.5 -43t-37.5 -140v-193h503
q17 0 17 -19v-1022q0 -142 -70 -230q-66 -85 -256 -94q-14 0 -15 13l-8 74q0 18 30 19q184 16 184 212v935h-385v-798q0 -7 -5.5 -11.5t-11.5 -4.5h-101q-17 0 -17 16v798h-355v-798q0 -7 -5.5 -11.5t-11.5 -4.5h-101q-17 0 -17 16v798h-147q-7 0 -12 5t-5 11v79q0 17 17 17
h147v193q0 151 61 222.5t190 71.5q74 0 158 -25zM1291 1300q39 0 65.5 -26.5t26.5 -64.5t-26.5 -64.5t-65.5 -26.5q-38 0 -64.5 26.5t-26.5 64.5t26.5 64.5t64.5 26.5z" />
    <glyph glyph-name=".notdef" horiz-adv-x="1018" 
d="M149 0v1400h720v-1400h-720zM251 1300v-1199h518v1199h-518z" />
    <glyph glyph-name="uni0000" horiz-adv-x="0" 
 />
    <glyph glyph-name="uni0000" horiz-adv-x="0" 
 />
    <glyph glyph-name="nonmarkingreturn" horiz-adv-x="666" 
 />
    <glyph glyph-name="CR.001" unicode="&#xd;" horiz-adv-x="434" 
 />
    <glyph glyph-name="space" unicode=" " horiz-adv-x="498" 
 />
    <glyph glyph-name="exclam" unicode="!" horiz-adv-x="498" 
d="M175 21q-30 31 -30 74t30 73q31 31 74 31t73 -31q31 -30 31 -73t-31 -74q-30 -30 -73 -30t-74 30zM337 1244l-27 -854q0 -20 -16 -20h-76q-18 0 -18 20q-2 54 -7.5 230t-8.5 259q-9 263 -10 284q0 18 -0.5 38t-1 31t-0.5 17q0 17 26 17h113q16 0 21 -4t5 -18z" />
    <glyph glyph-name="quotedbl" unicode="&#x22;" horiz-adv-x="551" 
d="M93 988l-33 398q0 14 14 14h139q13 0 13 -10l1 -4q-25 -283 -43 -398q-2 -14 -16 -14h-59q-13 0 -15 10zM357 988l-33 398q0 14 14 14h139q13 0 13 -10l1 -4q-25 -283 -43 -398q-2 -14 -16 -14h-59q-13 0 -15 10z" />
    <glyph glyph-name="numbersign" unicode="#" horiz-adv-x="1045" 
d="M882 361h-161l-46 -335q-3 -26 -26 -26h-68q-21 0 -21 20l46 341h-241l-46 -335q-3 -26 -26 -26h-68q-21 0 -21 20l46 341h-148q-20 0 -20 15v71q0 15 20 15h162l47 342h-148q-20 0 -20 15v72q0 15 20 15h162l47 340q3 20 22 20h67q25 0 25 -22l-46 -338h241l47 340
q3 20 22 20h67q16 0 20.5 -5t4.5 -17l-46 -338h147q20 0 20 -15v-74q0 -13 -20 -13h-161l-47 -342h147q20 0 20 -15v-73q0 -13 -20 -13zM426 804l-47 -342h241l47 342h-241z" />
    <glyph glyph-name="dollar" unicode="$" horiz-adv-x="1014" 
d="M445 720v458q-112 -17 -163 -73t-51 -163q0 -149 214 -222zM547 562v-468q107 19 168 76t61 152q0 89 -70 150q-54 48 -159 90zM188 249l39 -116q31 -15 93 -30q62 -13 126 -15v500q-12 5 -75 29q-6 2 -70 31q-36 18 -67 38q-20 14 -56 45q-50 46 -74 124q-11 41 -11 83
q0 83 27 147.5t76 105t111 63.5t138 30v126q0 18 4.5 23t21.5 5h50q17 0 21.5 -5t4.5 -21v-126q123 -3 294 -41q16 -4 16 -21v-183q0 -16 -17 -16h-48q-10 0 -16 16l-39 116q-120 23 -190 24v-485q49 -20 75 -30q35 -14 73 -32q49 -24 72 -40q27 -18 60 -48
q46 -41 68.5 -92.5t25.5 -125.5q0 -164 -103 -251t-271 -97v-142q0 -16 -4.5 -21t-21.5 -5h-51q-16 0 -20.5 5t-4.5 23v138q-91 3 -168 19q-79 17 -108 27q-33 14 -46 21q-16 9 -16 21v183q0 16 17 16h48q10 0 16 -16z" />
    <glyph glyph-name="percent" unicode="%" horiz-adv-x="1518" 
d="M1149 -18q-138 0 -221 86q-83 88 -83 246q0 148 81 238q82 90 223 90q139 0 221 -91q83 -91 83 -237q0 -150 -81 -242q-81 -90 -223 -90zM353 630q-138 0 -221 86q-83 88 -83 246q0 149 82 238q81 90 222 90q139 0 221 -91q83 -91 83 -237q0 -150 -81 -242
q-81 -90 -223 -90zM388 55l586 1195q5 11 9 13.5t14 2.5h91q16 0 16 -12q0 -3 -11 -28l-590 -1210q-6 -12 -10 -14t-18 -2h-89q-15 0 -15 14q0 5 17 41zM349 1185q-81 0 -126 -61.5t-45 -169.5q0 -106 45 -166.5t126 -60.5q86 0 131.5 60t45.5 167q0 109 -46 170t-131 61z
M1145 544q-84 0 -131 -63.5t-47 -174.5q0 -109 47 -171.5t131 -62.5q89 0 136.5 62t47.5 172q0 112 -48 175t-136 63z" />
    <glyph glyph-name="ampersand" unicode="&#x26;" horiz-adv-x="1250" 
d="M944 26l-175 190q-119 -129 -207 -183q-87 -54 -193 -54q-133 0 -218 85t-85 223q0 157 268 401l-4 4l-1 2q-41 44 -65 71q-16 18 -56 72q-66 89 -66 175q0 129 82 201q82 73 210 73q117 0 198 -72q81 -70 81 -172q0 -95 -42 -169q-39 -72 -163 -189l263 -291l186 224
q25 31 69 31h117q17 0 21.5 -5t4.5 -21v-58q0 -16 -4.5 -21t-21.5 -5h-63q-41 0 -63 -28l-168 -202l160 -176q23 -24 62 -24h72q17 0 21.5 -5t4.5 -21v-58q0 -16 -4.5 -21t-21.5 -5h-126q-45 0 -73 28zM382 91q56 0 124 44q66 44 183 167l-272 298q-83 -73 -140 -141
q-70 -87 -70 -169q0 -84 50 -142q49 -57 125 -57zM280 1023q0 -50 32 -103q27 -46 118 -149q74 65 111.5 122t37.5 120q0 77 -40.5 123t-104.5 46q-69 0 -111.5 -43.5t-42.5 -115.5z" />
    <glyph glyph-name="quotesingle" unicode="'" horiz-adv-x="287" 
d="M93 988l-33 398q0 14 14 14h139q14 0 14 -14q-25 -283 -43 -398q-2 -14 -16 -14h-59q-13 0 -15 10z" />
    <glyph glyph-name="parenleft" unicode="(" horiz-adv-x="522" 
d="M413 1589q5 6 12 6q5 0 12 -4l68 -44q18 -10 8 -24q-152 -188 -229 -411.5t-77 -465.5t77 -465.5t229 -411.5q10 -14 -8 -24l-68 -44q-7 -4 -12 -4q-7 0 -12 6q-167 197 -255 441q-87 244 -87 502q0 256 87 501q89 246 255 442z" />
    <glyph glyph-name="parenright" unicode=")" horiz-adv-x="522" 
d="M109 -297q-6 -6 -12 -6q-5 0 -12 4l-68 44q-18 10 -8 24q152 188 229 411.5t77 465.5t-77 465.5t-229 411.5q-10 14 8 24l68 44q7 4 12 4q7 0 12 -6q167 -197 254 -442q88 -243 88 -501q0 -259 -88 -502q-87 -243 -254 -441z" />
    <glyph glyph-name="asterisk" unicode="*" horiz-adv-x="669" 
d="M413 1105l3 -2l112 -157q9 -14 9 -19q0 -8 -13 -17l-53 -39q-4 -2 -8 -2q-9 0 -19 16l-107 161h-4l-104 -159q-9 -15 -22 -15q-9 0 -20 8l-40 30q-13 10 -13 17q0 12 61 92t61 85l-3 2l-179 60q-14 2 -14 18q0 2 2 10l17 55q7 16 17 16q6 0 15 -3l175 -70l4 -2l-7 192
q0 19 22 19h60q12 0 18.5 -5t5.5 -16l-8 -191l5 3l86 34q84 33 90 36q9 3 13 3q10 0 16 -18q18 -55 18 -63q0 -13 -14 -18q-12 -4 -103 -35q-23 -8 -51 -17z" />
    <glyph glyph-name="plus" unicode="+" horiz-adv-x="824" 
d="M344 600v271q0 12 12 12h104q14 0 14 -12v-271h273q12 0 12 -14v-84q0 -16 -12 -16h-273v-285q0 -12 -14 -12h-100q-16 0 -16 12v285h-267q-12 0 -12 12v88q0 14 13 14h266z" />
    <glyph glyph-name="comma" unicode="," horiz-adv-x="364" 
d="M314 187l-153 -416q-6 -15 -15 -15h-86q-11 0 -11 12q0 7 7 45q26 140 28 152q28 148 41 222q3 15 19 15h156q15 0 15 -10q0 -3 -1 -5z" />
    <glyph glyph-name="hyphen" unicode="-" horiz-adv-x="614" 
d="M507 476h-400q-12 0 -12 12v102q0 14 12 14h400q12 0 12 -14v-98q0 -16 -12 -16z" />
    <glyph glyph-name="period" unicode="." horiz-adv-x="350" 
d="M101 19q-30 31 -30 74t30 73q31 31 74 31t73 -31q31 -30 31 -73t-31 -74q-30 -30 -73 -30t-74 30z" />
    <glyph glyph-name="slash" unicode="/" horiz-adv-x="685" 
d="M29 -254l574 1813q5 16 24 16h94q15 0 15 -11q0 -2 -3 -13l-575 -1815q-2 -6 -3.5 -9t-4.5 -5t-6 -2h-10h-93q-15 0 -15 13q0 4 3 13z" />
    <glyph glyph-name="zero" unicode="0" horiz-adv-x="1094" 
d="M85 622q0 409 209 574q109 86 261 86q97 0 174.5 -33.5t129 -91.5t86 -139.5t49.5 -174t15 -199.5q0 -116 -17 -215.5t-54 -183t-91.5 -142.5t-134 -92t-177.5 -33q-151 0 -253.5 84t-149.5 226t-47 334zM549 1165q-173 0 -256 -159q-76 -148 -76 -375q0 -337 136 -467
q73 -69 186 -69q119 0 195 72q78 72 110 191q33 118 33 283q0 215 -71 361q-37 77 -103 120t-154 43z" />
    <glyph glyph-name="one" unicode="1" horiz-adv-x="684" 
d="M85 1075q-12 0 -14 11l-6 78q0 18 14 21q107 23 350 97q8 0 8 -12v-1168l116 -20q18 -3 22 -7.5t4 -20.5v-28q0 -16 -4.5 -21t-21.5 -5h-371q-16 0 -21 5t-5 21v28q0 16 4 20.5t22 7.5l117 20v1024q-131 -39 -214 -51z" />
    <glyph glyph-name="two" unicode="2" horiz-adv-x="1032" 
d="M106 1010q30 116 130 195t256 79q188 0 295 -101q108 -100 108 -256q0 -133 -78 -230q-67 -84 -184 -169l-154 -111q-106 -77 -168 -163t-62 -144h539l42 123q6 16 16 16h48q17 0 17 -16v-213q0 -7 -5 -13.5t-12 -6.5h-788q-11 0 -11 9q4 283 318 511l154 112
q104 75 152 140q48 64 48 153q0 106 -73 173q-73 69 -206 69q-106 0 -179.5 -54t-99.5 -156q-4 -16 -11 -16q-4 0 -6 1l-73 18q-20 5 -20 18q0 5 7 32z" />
    <glyph glyph-name="three" unicode="3" horiz-adv-x="969" 
d="M157 101q60 -11 160 -11q188 0 303 88q116 89 116 223q0 61 -27.5 106.5t-73.5 67.5q-79 40 -153 40q-97 0 -188 -8q-4 0 -7.5 6t-3.5 14q0 7 4 14l357 515h-424l-46 -126q-6 -16 -16 -16h-48q-17 0 -17 16v213q0 21 17 21h728q13 0 13 -14q0 -7 -5 -14
q-258 -374 -323 -466q-27 -39 -27 -41q87 0 180 -37q57 -23 97 -56q45 -36 73 -97t28 -136q0 -185 -147 -306q-146 -121 -389 -121q-49 0 -111 5q-40 3 -83 10l-28 5q-11 5 -11 14l8 71q3 23 19 23q7 0 25 -3z" />
    <glyph glyph-name="four" unicode="4" horiz-adv-x="1031" 
d="M114 419l434 827q9 16 19 16h108q17 0 17 -11q0 -3 -3 -9l-439 -833h399v241q0 16 16 16h103q16 0 16 -16v-241h139q16 0 16 -16v-79q0 -16 -16 -16h-140v-282q0 -16 -16 -16h-103q-16 0 -16 16v282h-524q-18 0 -18 18v77q0 13 6 23z" />
    <glyph glyph-name="five" unicode="5" horiz-adv-x="930" 
d="M160 640l45 606q2 20 16 20h555q16 0 16 -17v-77q0 -14 -18 -14h-449l-32 -414q59 8 117 8q129 0 223 -40q54 -22 94 -59q41 -37 65 -97t24 -135q0 -109 -42.5 -196t-118.5 -142q-154 -109 -376 -109q-85 0 -160 13q-13 1 -13 18l12 78q3 14 19 14q72 -8 121 -8
q118 0 210 34t150 110t58 186q0 51 -17 91t-44.5 64t-66 39.5t-76.5 21t-81 5.5q-33 0 -221 -15q-10 0 -10 15z" />
    <glyph glyph-name="six" unicode="6" horiz-adv-x="1060" 
d="M529 106q110 0 189 73t79 185q0 140 -63.5 212t-186.5 72q-112 0 -186 -80q-72 -80 -72 -200q0 -108 67 -185q68 -77 173 -77zM243 116q-94 124 -94 334q0 124 35 272q40 162 129 287q141 198 401 280q9 3 13 3q7 0 7 -6l1 -2l24 -87q0 -7 -8 -12q-205 -78 -318.5 -217
t-143.5 -350q113 146 282 146q158 0 260 -106t102 -278q0 -129 -64 -229q-52 -82 -138 -127.5t-190 -45.5q-193 0 -298 138z" />
    <glyph glyph-name="seven" unicode="7" horiz-adv-x="867" 
d="M363 16q-4 -16 -17 -16h-109q-16 0 -16 16q140 460 465 1139h-510l-45 -124q-6 -16 -16 -16h-48q-17 0 -17 16v213q0 8 4.5 14.5t11.5 6.5h750q14 0 16 -15v-5v-98q-321 -611 -469 -1131z" />
    <glyph glyph-name="eight" unicode="8" horiz-adv-x="1094" 
d="M545 -22q-185 0 -301 91q-117 91 -117 259q0 246 290 348q-125 56 -178.5 126t-53.5 175q0 141 105 224q106 83 259 83q208 0 311 -130q55 -67 55 -161q0 -105 -53 -178.5t-173 -136.5q278 -126 278 -348q0 -108 -56.5 -190t-153.5 -123q-95 -39 -212 -39zM785 961
q0 100 -63.5 157t-170.5 57q-104 0 -171 -55t-67 -157q0 -60 39 -111q39 -50 90 -78q53 -29 113 -45q99 27 164 89q66 62 66 143zM265 336q0 -117 73 -181.5t199 -64.5q127 0 207 61q81 61 81 175q0 107 -81.5 182.5t-196.5 109.5q-118 -30 -201 -104q-81 -74 -81 -178z" />
    <glyph glyph-name="nine" unicode="9" horiz-adv-x="1057" 
d="M520 562q127 0 199 86q73 86 73 222q0 114 -77 202q-76 88 -195 88q-123 0 -198 -87q-75 -85 -75 -210q0 -130 70 -215q71 -85 203 -86zM225 94q28 -4 85 -4q214 0 350 148q111 138 132 350l2 20q-7 -7 -8 -10q-106 -147 -297 -147q-173 0 -274 117q-99 118 -99 300
q0 181 111 298q111 118 297 118q101 0 179.5 -38t127.5 -104.5t74 -153t25 -188.5v-6q-3 -818 -620 -818q-54 0 -103 7q-13 1 -13 14q0 3 12 83q3 14 19 14z" />
    <glyph glyph-name="colon" unicode=":" horiz-adv-x="477" 
d="M163 30q-30 30 -30 74t30 74q31 30 74 30t73 -30q31 -30 31 -74t-31 -74q-30 -30 -73 -30t-74 30zM166 724q-30 30 -30 74t30 74t74 30t74 -30t30 -74t-30 -74t-74 -30t-74 30z" />
    <glyph glyph-name="semicolon" unicode=";" horiz-adv-x="448" 
d="M171 724q-30 30 -30 74t30 74q31 30 74 30t73 -30q31 -30 31 -74t-31 -74q-30 -30 -73 -30t-74 30zM331 187l-153 -416q-6 -15 -15 -15h-86q-11 0 -11 12q0 7 7 45q26 140 28 152q28 148 41 222q3 15 19 15h156q15 0 15 -10q0 -3 -1 -5z" />
    <glyph glyph-name="less" unicode="&#x3c;" horiz-adv-x="837" 
d="M714 118l-635 352q-8 5 -8 19v96q0 15 9 19l634 352q4 3 10 3q9 0 13 -10l38 -75q2 -6 2 -7q0 -9 -9 -13l-568 -317l568 -317q10 -4 10 -11q0 -3 -3 -9l-38 -75q-6 -10 -13 -10q-4 0 -10 3z" />
    <glyph glyph-name="equal" unicode="=" horiz-adv-x="826" 
d="M743 455q12 0 12 -14v-86q0 -16 -12 -16h-660q-12 0 -12 12v90q0 14 12 14h660zM743 746q12 0 12 -14v-86q0 -16 -12 -16h-660q-12 0 -12 12v90q0 14 12 14h660z" />
    <glyph glyph-name="greater" unicode="&#x3e;" horiz-adv-x="837" 
d="M758 470l-635 -352q-6 -3 -10 -3q-7 0 -13 10l-38 75q-3 6 -3 9q0 7 10 11l568 317l-568 317q-9 4 -9 12q0 2 2 8l38 75q4 10 13 10q5 0 10 -3l634 -352q9 -4 9 -19v-96q0 -14 -8 -19z" />
    <glyph glyph-name="question" unicode="?" horiz-adv-x="774" 
d="M176 1160l-27 -100q-5 -17 -16 -17h-43q-15 0 -17 17l-13 169q0 13 11 16l37 10q129 35 242 35q50 0 97.5 -9t95 -31t82 -56t56.5 -88t22 -122q0 -105 -59 -193q-34 -50 -52 -72q-14 -18 -66 -77q-106 -119 -106 -250q0 -20 -16 -20h-98q-18 0 -18 20v9q0 86 31.5 160
t103.5 156q47 53 69 82q27 36 48 83q22 48 22 96q0 94 -57 147t-161 53q-74 0 -168 -18zM282 19q-30 31 -30 74t30 73q30 31 74 31t74 -31q30 -30 30 -73t-30 -74q-30 -30 -74 -30t-74 30z" />
    <glyph glyph-name="at" unicode="@" horiz-adv-x="1709" 
d="M1016 282l40 442q-75 26 -126 26q-69 0 -128.5 -41.5t-97.5 -110.5q-76 -142 -78 -288q0 -83 25 -137q31 -63 119 -63q63 0 134 47q72 49 112 125zM870 -364q-170 4 -308.5 50t-226.5 122q-84 74 -139 173q-96 177 -96 409q0 172 58.5 323.5t162.5 261.5q102 106 253 169
q151 62 324 62q340 0 528 -178q190 -177 190 -486q0 -191 -78 -326q-77 -136 -216 -188q-80 -30 -146 -30q-145 0 -166 146q-120 -140 -280 -140q-236 0 -236 314q0 106 40.5 218.5t114.5 195.5q52 59 124.5 92.5t154.5 33.5q55 0 112 -15q54 -14 146 -47l-47 -538
q-3 -30 -3 -58q0 -95 59 -95q49 0 92 22q100 48 153 153.5t53 250.5q0 78 -13 147t-41 133.5t-75 116t-111 90t-153.5 59t-197.5 20.5q-195 0 -351 -93q-154 -91 -240 -248q-84 -154 -84 -342q-3 -351 209 -536q155 -133 433 -149q16 -1 16 -16v-61q0 -16 -15 -16z" />
    <glyph glyph-name="A" unicode="A" horiz-adv-x="1118" 
d="M788 454l-217 711l-236 -711h453zM439 1158l-87 28q-16 6 -16 16v48q0 6 5 11t11 5h297q18 0 22 -16l396 -1228q2 -8 2 -9q0 -5 -5 -9t-10 -4h-118q-14 0 -18 16l-98 328h-519l-103 -328q-4 -16 -18 -16h-116q-16 0 -16 12q0 3 3 12z" />
    <glyph glyph-name="B" unicode="B" horiz-adv-x="1111" 
d="M537 1162l-203 -2v-430h185q115 0 206 65q90 66 90 161q-1 117 -74 162t-204 44zM511 618h-178v-514q5 0 53 -6q96 -4 129 -4q72 0 131 14t107.5 44.5t76 84.5t27.5 127q0 116 -92 185q-91 69 -254 69zM87 1266l261 5q156 3 165 3q110 0 205 -17q55 -10 95 -31
q152 -71 148 -249q0 -107 -59.5 -181t-167.5 -104q-24 -6 -27 -6l26 -6q137 -43 205.5 -125t68.5 -211q0 -175 -126.5 -268.5t-366.5 -93.5q-74 0 -156 5q-73 4 -106 9l-33 4q-11 2 -15 3.5t-7.5 6.5t-3.5 16v1115l-106 44q-16 6 -16 16v48q0 17 16 17z" />
    <glyph glyph-name="C" unicode="C" horiz-adv-x="1038" 
d="M701 87q57 0 120 11q57 11 91 23l31 11l8 2q9 0 14 -12l22 -64l2 -8q0 -6 -10 -12q-6 -5 -48 -22q-28 -11 -58 -18q-73 -22 -178 -22q-292 0 -447 166.5t-155 483.5q0 189 73 339.5t210.5 237.5t316.5 87q73 0 145 -14q66 -13 102 -28l31 -14q16 -7 16 -21v-180
q0 -16 -17 -16h-48q-10 0 -16 16l-46 123q-78 24 -154 24q-139 0 -248 -74q-106 -73 -162 -196q-55 -120 -55 -272q0 -259 113 -405t347 -146z" />
    <glyph glyph-name="D" unicode="D" horiz-adv-x="1205" 
d="M333 1156l2 -1057q43 -7 129 -7q222 0 361 150q139 149 139 389q0 124 -24 216q-25 109 -96 183q-116 126 -374 126h-137zM193 23v1118l-106 44q-16 6 -16 16v48q0 17 16 17h395q630 0 630 -631q0 -295 -174 -474q-172 -178 -470 -178q-76 0 -132 4q-62 3 -90 6l-27 3
q-9 0 -17.5 7.5t-8.5 19.5z" />
    <glyph glyph-name="E" unicode="E" horiz-adv-x="966" 
d="M87 1266h793q16 0 21 -5t5 -21v-58q0 -16 -5 -21t-21 -5h-546v-424h400q16 0 21 -5t5 -21v-58q0 -16 -5 -21t-21 -5h-400v-512h546q16 0 21 -5t5 -21v-58q0 -16 -5 -21t-21 -5h-661q-17 0 -21.5 5t-4.5 21v1115l-106 44q-16 6 -16 16v48q0 17 16 17z" />
    <glyph glyph-name="F" unicode="F" horiz-adv-x="866" 
d="M830 1156h-496v-452h390q16 0 16 -17v-78q0 -15 -14 -15h-392v-568q0 -16 -5 -21t-21 -5h-89q-17 0 -21.5 5t-4.5 23v1113l-106 44q-16 6 -16 16v48q0 17 16 17h743q16 0 21 -5t5 -21v-58q0 -16 -5 -21t-21 -5z" />
    <glyph glyph-name="G" unicode="G" horiz-adv-x="1161" 
d="M940 1031l-44 119q-47 14 -65 18q-11 3 -27 6q-28 6 -81 6q-115 0 -208 -43.5t-153 -121.5q-121 -155 -121 -392q0 -230 99 -378q109 -158 340 -158q150 0 224 36v377h-204q-16 0 -16 16v78q0 6 5 11t11 5h329q6 0 11 -5t5 -11v-492q-2 -28 -10.5 -38.5t-28.5 -20.5
q-127 -67 -312 -67q-155 0 -273 48t-189 137q-139 175 -139 458q0 197 75 347.5t218 236.5q144 87 339 87q73 0 146 -14q66 -13 102 -28l32 -15q16 -7 16 -22v-180q0 -16 -17 -16h-48q-10 0 -16 16z" />
    <glyph glyph-name="H" unicode="H" horiz-adv-x="1231" 
d="M199 1151l-112 34q-16 4 -16 16v48q0 17 16 17h225q16 0 22 -6t6 -23v-586h590v589q0 16 5 21t21 5h89q17 0 21.5 -5t4.5 -21v-1214q0 -16 -4.5 -21t-21.5 -5h-89q-16 0 -21 5t-5 21v514h-590v-514q0 -16 -5 -21t-21 -5h-89q-17 0 -21.5 5t-4.5 21v1125z" />
    <glyph glyph-name="I" unicode="I" horiz-adv-x="608" 
d="M478 1184l-103 -20v-1062l103 -20q18 -3 22 -7.5t4 -20.5v-28q0 -16 -5 -21t-21 -5h-348q-16 0 -21 5t-5 21v28q0 16 4 20.5t22 7.5l104 20v1062l-104 20q-18 3 -22 7.5t-4 20.5v28q0 16 5 21t21 5h348q16 0 21 -5t5 -21v-28q0 -16 -4.5 -20.5t-21.5 -7.5z" />
    <glyph glyph-name="J" unicode="J" horiz-adv-x="634" 
d="M344 1156h-318q-6 0 -11 5t-5 11v78q0 6 5 11t11 5h443q6 0 11 -5t5 -11v-1233q0 -129 -28 -191q-27 -60 -77 -87.5t-132 -27.5q-75 0 -165 32q-18 6 -18 20l1 5q1 5 2.5 13t3 17.5t3.5 20t3 18.5q1 16 17 16q92 -23 133 -23q51 3 75.5 20.5t32.5 55.5q8 36 8 100v1150z
" />
    <glyph glyph-name="K" unicode="K" horiz-adv-x="1133" 
d="M615 660q62 -19 110 -70q44 -47 65 -97q21 -51 47 -125q27 -76 44 -112q44 -92 84 -125q42 -33 116 -33q17 0 21.5 -5t4.5 -21v-58q0 -16 -4.5 -21t-21.5 -5q-111 0 -180 32q-66 33 -120 125q-40 67 -75 189q-14 47 -37 93q-26 53 -55 84t-77 51q-48 22 -118 22h-78v-558
q0 -16 -4.5 -21t-21.5 -5h-89q-17 0 -21.5 5t-4.5 23v1123l-112 34q-16 4 -16 16v48q0 17 16 17h227q16 0 21 -5t5 -22v-545h101q103 0 160 111q20 39 40 97q22 67 32 102q14 44 36 93q26 52 55 85t78 58q53 27 122 36q24 4 70 4q12 0 16.5 -4.5t4.5 -19.5v-61q0 -16 -4 -21
t-17 -5q-31 0 -59 -6q-112 -21 -181 -218q-6 -16 -17.5 -49.5t-17.5 -51.5q-20 -56 -36 -87q-37 -73 -109 -97z" />
    <glyph glyph-name="L" unicode="L" horiz-adv-x="831" 
d="M147 128v1112q0 16 4.5 21t21.5 5h89q16 0 21 -5t5 -21v-1090q0 -23 15 -31.5t53 -8.5h349l35 94q6 16 16 16h48q17 0 17 -16v-183q0 -21 -16 -21h-496q-162 0 -162 128z" />
    <glyph glyph-name="M" unicode="M" horiz-adv-x="1433" 
d="M409 1250l302 -687l8 -30h6q7 24 10 30l312 687q7 16 20 16h161q6 0 10.5 -5t5.5 -11q2 -24 17 -373q21 -488 25 -581q12 -273 12 -276q0 -12 -5.5 -16t-20.5 -4h-91q-16 0 -20.5 4.5t-5.5 21.5l-31 1068v41h-4q-8 -28 -15 -41l-357 -774q-6 -12 -30 -12q-26 0 -32 12
l-343 774l-14 41h-4v-38l-47 -1071q-1 -17 -5.5 -21.5t-20.5 -4.5h-91q-15 0 -20.5 4.5t-5.5 18.5q0 1 7.5 122.5t26.5 440.5t40 664q0 6 5 11t11 5h164q10 0 17 -12z" />
    <glyph glyph-name="N" unicode="N" horiz-adv-x="1275" 
d="M199 1151l-112 34q-16 4 -16 16v48q0 17 16 17h263q14 0 23 -16l556 -963l39 -79h6v1032q0 16 5 21t21 5h89q17 0 21.5 -5t4.5 -21v-1214q0 -16 -4.5 -21t-21.5 -5h-111q-27 0 -42 26l-548 951q-18 31 -38 76l-4 12h-6v-1039q0 -16 -5 -21t-21 -5h-89q-17 0 -21.5 5
t-4.5 21v1125z" />
    <glyph glyph-name="O" unicode="O" horiz-adv-x="1217" 
d="M609 -24q-52 0 -101 8t-101.5 28.5t-97 53t-85.5 84.5t-69.5 119t-45 161t-16.5 207q0 294 114 466q123 187 402 187q112 0 200 -32t146.5 -89t97 -140t55 -179.5t16.5 -212.5q0 -151 -31 -272t-84 -195q-49 -70 -120 -117q-119 -77 -280 -77zM608 86q368 0 368 559
q0 536 -369 536q-237 0 -321 -228q-45 -130 -45 -308q0 -270 82 -408q35 -58 87 -94q49 -33 94 -45t104 -12z" />
    <glyph glyph-name="P" unicode="P" horiz-adv-x="1000" 
d="M334 1158l-1 -568h97q385 1 385 298q0 151 -85 211q-83 61 -257 61zM87 1265h30q15 0 189 2q131 3 209 3q221 0 333 -93t112 -276q0 -421 -517 -421h-109v-454q0 -16 -5 -21t-21 -5h-89q-17 0 -21.5 5t-4.5 23v1112l-106 44q-16 6 -16 16v48q0 17 16 17z" />
    <glyph glyph-name="Q" unicode="Q" horiz-adv-x="1217" 
d="M609 -24q-52 0 -101 8t-101.5 28.5t-97 53t-85.5 84.5t-69.5 119t-45 161t-16.5 207q0 294 114 466q123 187 402 187q112 0 200 -32t146.5 -89t97 -140t55 -179.5t16.5 -212.5q0 -300 -108 -457q-96 -137 -244 -181l303 -70q12 -3 12 -17q0 -3 -26 -87q-4 -13 -16 -13
q-8 0 -21 4l-331 96q-12 3 -12 21v47q-28 -4 -72 -4zM608 86q368 0 368 559q0 536 -369 536q-237 0 -321 -228q-45 -130 -45 -308q0 -270 82 -408q35 -58 87 -94q49 -33 94 -45t104 -12z" />
    <glyph glyph-name="R" unicode="R" horiz-adv-x="1131" 
d="M506 1157l-172 1v-497h152q158 0 246 69q89 71 89 192q0 143 -97 192q-85 43 -218 43zM1078 99q18 -2 22 -6t4 -20v-58q0 -17 -5 -22t-23 -5q-135 -7 -227 101q-26 29 -47 70q-25 48 -36 74q-8 18 -31 82q-43 122 -113.5 180t-187.5 58h-100v-527q0 -16 -5 -21t-21 -5
h-89q-17 0 -21.5 5t-4.5 23v1111l-106 44q-16 6 -16 16v48q0 17 16 17q33 0 80 1q26 1 83.5 1.5t87.5 0.5q132 2 174 2q454 0 454 -345q0 -109 -62 -197q-61 -87 -182 -126q-33 -11 -59 -11l-1 -3q36 -7 66 -27q36 -23 68.5 -65t51.5 -96q64 -177 110 -237q45 -58 120 -63z
" />
    <glyph glyph-name="S" unicode="S" horiz-adv-x="1002" 
d="M181 243l32 -115q135 -35 227 -35q118 0 209 47q50 25 78 73t28 112q0 56 -29 101q-20 37 -75 73q-17 13 -51 30q-43 22 -52 25q-38 18 -58 26q-12 5 -30.5 13t-24.5 11q-141 63 -190 100q-126 92 -128 245q0 86 34.5 154t95.5 108q121 79 298 79q144 0 294 -40
q16 -4 16 -21v-182q0 -16 -15 -16h-50q-10 0 -16 16l-39 115q-103 20 -180 20q-140 0 -214.5 -57.5t-74.5 -168.5q0 -68 49 -119q21 -22 57 -44q40 -24 64 -36q58 -26 74 -33q133 -58 208.5 -102t117.5 -91q43 -46 57 -92q14 -47 14 -112q0 -93 -34.5 -161.5t-96.5 -109
t-141 -59.5t-175 -19q-186 0 -354 61q-16 4 -16 21l10 183q0 16 17 16h48q12 0 16 -16z" />
    <glyph glyph-name="T" unicode="T" horiz-adv-x="962" 
d="M34 1266h894q18 0 18 -21l-7 -204q0 -16 -17 -16h-48q-10 0 -16 16l-34 115h-272v-1054l103 -20q18 -3 22 -7.5t4 -20.5v-28q0 -16 -4.5 -21t-21.5 -5h-348q-17 0 -21.5 5t-4.5 21v28q0 16 4 20.5t22 7.5l103 20v1054h-272l-34 -115q-6 -16 -16 -16h-48q-17 0 -17 16
l-7 204q0 21 18 21z" />
    <glyph glyph-name="U" unicode="U" horiz-adv-x="1232" 
d="M329 432q0 -158 83 -247t227 -89q149 0 231.5 81.5t82.5 236.5v826q0 16 4.5 21t21.5 5h89q16 0 21 -5t5 -21v-792q0 -223 -122 -348q-121 -124 -333 -124q-211 0 -331 123q-120 125 -120 351v701l-112 34q-16 4 -16 16v48q0 17 16 17h225q16 0 22 -6t6 -23v-805z" />
    <glyph glyph-name="V" unicode="V" horiz-adv-x="1143" 
d="M615 132h6q167 401 337 1115q4 18 24 18h115q17 0 17 -14q0 -4 -3 -16q-58 -271 -179 -627q-116 -344 -235 -592q-7 -16 -23 -16h-127q-16 0 -22 16q-8 19 -68 196q-13 38 -68.5 200.5t-91.5 270.5q-85 251 -154 468l-111 34q-16 4 -16 16v48q0 17 16 17h217q19 0 23 -16
l330 -1057q9 -34 13 -61z" />
    <glyph glyph-name="W" unicode="W" horiz-adv-x="1728" 
d="M958 1250q208 -853 247 -1082l6 -36h6q167 401 337 1115q4 18 24 18h115q17 0 17 -15q0 -3 -3 -15q-58 -271 -179 -627q-116 -344 -235 -592q-7 -16 -23 -16h-130q-20 0 -24 16l-200 836l-5 20q0 -32 -35 -164q-20 -72 -204 -692q-4 -16 -23 -16h-141q-20 0 -24 16
l-341 1135l-111 34q-16 4 -16 16v48q0 17 16 17h216q15 0 19 -16l305 -1082q6 -26 9 -38h4q1 6 9 32t27.5 93.5t36.5 127.5q42 141 118 405q46 160 79 289q-31 126 -41 158l-5 22q0 9 17 9h116q12 0 16 -16z" />
    <glyph glyph-name="X" unicode="X" horiz-adv-x="1143" 
d="M627 760l313 488q10 18 32 18h116q18 0 18 -9q0 -5 -7 -15l-410 -616l404 -604q5 -8 5 -13q0 -9 -17 -9h-121q-20 0 -30 18l-308 467l-3.5 7l-7 14t-9.5 18h-4q-3 -9 -22 -40q-100 -164 -234 -336q-118 -153 -264 -153q-30 0 -30 22q0 7 6 88q2 17 18 18q85 10 161 101
q106 127 218 297l61 95l-347 531l-124 38q-16 4 -16 16v48q0 17 16 17h205q18 0 30 -18l308 -490l17 -34h4q4 9 22 36z" />
    <glyph glyph-name="Y" unicode="Y" horiz-adv-x="1024" 
d="M675 208q-49 -117 -123 -173q-73 -54 -206 -54q-91 0 -154 19q-17 5 -17 20q0 6 18 76q5 17 20 17l18 -3q48 -10 110 -10q113 0 167 76q32 43 46 76q19 43 38 99l20 60h-99q-177 0 -237 141q-23 55 -104 389q-39 165 -52 217l-87 27q-16 4 -16 16v48q0 17 16 17h209
q20 0 23 -24q22 -151 65 -359q46 -225 74 -285q33 -73 172 -73h39q17 1 35 1q118 373 201 722q3 11 8 14.5t16 3.5h110q24 0 24 -12q0 -4 -1 -7q-182 -673 -333 -1039z" />
    <glyph glyph-name="Z" unicode="Z" horiz-adv-x="1001" 
d="M210 1156l-34 -115q-6 -16 -16 -16h-48q-17 0 -17 16l-7 204q0 21 18 21h794q21 0 21 -19v-65q0 -18 -12 -37l-681 -1035h453q76 0 113 27.5t45 102.5q0 19 18 19h87q12 0 12 -16q-7 -144 -84 -197q-67 -46 -187 -46h-596q-18 0 -18 22v74q0 13 10 26l681 1034h-552z" />
    <glyph glyph-name="bracketleft" unicode="[" horiz-adv-x="534" 
d="M149 -250v1796q0 14 1 19t6.5 8t18.5 3h324q14 0 19 -1t8 -6.5t3 -18.5v-53q0 -20 -3.5 -25t-22.5 -5h-219v-1639h219q18 0 22 -5t4 -25v-52q0 -18 -5.5 -22t-24.5 -4h-324q-18 0 -22 5t-4 25z" />
    <glyph glyph-name="backslash" unicode="\" horiz-adv-x="718" 
d="M137 1559l574 -1813q3 -10 3 -14q0 -12 -15 -12h-93q-10 0 -13 0.5t-5.5 3.5t-5.5 12l-575 1815q-3 9 -3 13q0 11 15 11h94q19 0 24 -16z" />
    <glyph glyph-name="bracketright" unicode="]" horiz-adv-x="534" 
d="M385 1546v-1796q0 -20 -3.5 -25t-22.5 -5h-324q-20 0 -25 3.5t-5 22.5v52q0 14 1 19t6.5 8t18.5 3h219v1639h-219q-17 0 -21.5 5.5t-4.5 24.5v53q0 18 5.5 22t24.5 4h324q18 0 22 -5t4 -25z" />
    <glyph glyph-name="asciicircum" unicode="^" horiz-adv-x="794" 
d="M569 902l-172 358l-172 -358q-4 -10 -18 -10h-108q-7 0 -7 7q0 3 3 9l216 441q3 8 21 8h130q18 0 22 -9l215 -440q3 -6 3 -9q0 -7 -7 -7h-108q-14 0 -18 10z" />
    <glyph glyph-name="underscore" unicode="_" horiz-adv-x="934" 
d="M19 -153h896q14 0 14 -14v-82q0 -14 -14 -14h-896q-14 0 -14 14v82q0 14 14 14z" />
    <glyph glyph-name="grave" unicode="`" horiz-adv-x="505" 
d="M98 1299h133q19 0 28 -4.5t24 -22.5l128 -165q26 -31 -1 -31h-85q-23 0 -44 21l-173 158q-48 44 -10 44z" />
    <glyph glyph-name="a" unicode="a" horiz-adv-x="916" 
d="M763 546v-447q15 -8 99 -34q10 -3 12 -5t2 -9v-41q0 -8 -12 -9l-192 -20q-11 0 -14.5 4t-5.5 16l-15 115q-143 -140 -295 -140q-130 0 -200.5 70t-70.5 197q-1 186 192 246q75 23 177 29q54 2 90 2h99v93q0 115 -55.5 169t-167.5 54q-86 0 -210 -57l-20 -9l-8 -2
q-8 0 -9 6l-17 70q-3 11 7 18l17 10q43 26 123 52q78 25 153 25q230 0 296 -177q25 -63 25 -226zM629 214v208q-174 0 -240 -8q-89 -12 -134 -50t-45 -113q0 -73 51 -117q52 -43 129 -43q62 0 126.5 32.5t112.5 90.5z" />
    <glyph glyph-name="b" unicode="b" horiz-adv-x="1084" 
d="M846 485q0 354 -271 354q-117 0 -262 -129v-595q107 -30 199 -30q160 0 247 100t87 300zM178 1276l-106 27q-17 3 -17 18v45q0 14 17 16l225 23q16 0 16 -19v-558q156 120 303 120q373 0 373 -463q0 -243 -125 -377q-124 -132 -331 -132q-154 0 -355 69v1231z" />
    <glyph glyph-name="c" unicode="c" horiz-adv-x="882" 
d="M730 719l-29 108q-67 16 -163 16q-136 0 -218 -105q-82 -104 -82 -275q0 -178 86 -276.5t242 -98.5q101 0 218 35q12 4 18 4q7 0 9.5 -4t4.5 -16l11 -65q0 -10 -12 -14q-125 -51 -259 -51q-225 0 -343 127t-118 359q0 218 122 352t321 134q98 0 269 -51q12 -3 12 -17
l-13 -162q-3 -17 -17 -17h-43q-11 0 -16 17z" />
    <glyph glyph-name="d" unicode="d" horiz-adv-x="1084" 
d="M238 462q0 -147 53 -254q62 -120 218 -120q117 0 262 129v595q-52 13 -60 14q-71 16 -139 16q-158 0 -247 -89q-87 -89 -87 -291zM769 1276l-105 27q-17 3 -17 18v45q0 14 17 16l224 23q16 0 16 -19v-1272l108 -27q17 -3 17 -16v-46q0 -14 -17 -17l-209 -16q-19 0 -20 18
l-10 91q-155 -122 -305 -122q-242 3 -327 209q-46 112 -46 274q0 242 123 365q124 124 333 124q98 0 218 -34v359z" />
    <glyph glyph-name="e" unicode="e" horiz-adv-x="970" 
d="M95 472q0 217 114 349q114 133 309 133q182 0 272 -109t90 -341v-21q0 -34 -18 -34h-623q17 -360 349 -360q117 0 234 47q12 5 16 5q7 0 10.5 -3t5.5 -14l13 -63q0 -11 -12 -18q-138 -67 -293 -67q-218 0 -342 130q-125 131 -125 366zM516 840q-114 0 -186.5 -75
t-87.5 -207h499v26q0 121 -61 188.5t-164 67.5z" />
    <glyph glyph-name="f" unicode="f" horiz-adv-x="626" 
d="M611 1388q10 -4 10 -14l-12 -79q-2 -8 -8 -8q-3 0 -13 2q-56 13 -96 13q-80 0 -117.5 -43t-37.5 -140v-193h245q17 0 17 -17v-79q0 -16 -17 -16h-245v-798q0 -7 -5.5 -11.5t-11.5 -4.5h-101q-17 0 -17 16v798h-147q-7 0 -12 5t-5 11v79q0 17 17 17h147v193
q2 152 62.5 223t188.5 71q74 0 158 -25z" />
    <glyph glyph-name="g" unicode="g" horiz-adv-x="1016" 
d="M238 462q0 -147 53 -254q62 -120 218 -120q117 0 262 129v594q-121 31 -199 31q-158 0 -247 -89q-87 -89 -87 -291zM507 -440q-131 0 -265 36q-30 8 -42 15q-11 5 -11 15q0 6 1 9l14 61q3 15 15 15l10 -2l39 -10q104 -27 243 -27q119 0 176 51q32 28 52 77q18 43 23 86
q5 45 8 99q2 86 2 115q-151 -121 -304 -121q-242 3 -327 209q-46 112 -46 274q0 242 123 365q124 124 333 124q133 0 355 -76v-775q0 -88 -3 -148q-6 -113 -32.5 -187t-86.5 -128q-89 -77 -277 -77z" />
    <glyph glyph-name="h" unicode="h" horiz-adv-x="1086" 
d="M178 1276l-106 27q-17 3 -17 18v45q0 14 17 16l225 23q16 0 16 -19v-575q95 73 176 106t168 33q124 0 194 -68.5t70 -192.5v-575l108 -27q17 -5 17 -16v-46q0 -14 -17 -17l-226 -17q-17 0 -17 18v647q0 181 -178 181q-143 0 -295 -143v-678q0 -7 -5.5 -11.5t-11.5 -4.5
h-101q-17 0 -17 16v1260z" />
    <glyph glyph-name="i" unicode="i" horiz-adv-x="498" 
d="M183 9v806l-106 27q-17 3 -17 18v45q0 15 17 17l225 22q16 0 16 -19v-811l108 -27q17 -3 17 -16v-46q0 -15 -17 -17l-226 -17q-16 0 -17 18zM225 1299q39 0 65.5 -26.5t26.5 -64.5t-26.5 -64.5t-65.5 -26.5q-38 0 -64.5 26.5t-26.5 64.5t26.5 64.5t64.5 26.5z" />
    <glyph glyph-name="j" unicode="j" horiz-adv-x="495" 
d="M354 -115q0 -142 -70 -230q-66 -85 -256 -94q-12 0 -15 13q-4 55 -8 72v2q0 19 30 19q184 16 184 212v936l-106 27q-17 3 -17 18v45q0 14 17 16l225 23q16 0 16 -19v-1040zM265 1300q39 0 65.5 -26.5t26.5 -64.5t-26.5 -64.5t-65.5 -26.5q-38 0 -64.5 26.5t-26.5 64.5
t26.5 64.5t64.5 26.5z" />
    <glyph glyph-name="k" unicode="k" horiz-adv-x="1005" 
d="M938 -9q-252 0 -312 208q-17 62 -27 89q-9 28 -27 70q-15 38 -34 58q-43 45 -105 45h-121v-445q0 -16 -16 -16h-102q-17 0 -17 16v1260l-105 27q-17 3 -17 18v45q0 14 17 16l224 23q15 0 16 -19v-815h118q34 0 81 21q20 11 55 59q9 11 23 40l18 40q11 27 19 46
q38 91 104 129.5t183 38.5q18 0 23.5 -4t5.5 -20v-63q0 -16 -5.5 -20t-23.5 -4q-65 0 -100.5 -24t-64.5 -79q-4 -7 -21 -41q-14 -32 -24 -47q-6 -11 -26 -40q-28 -43 -89 -74q60 -26 89 -80q31 -54 57 -153q25 -92 68 -140q44 -47 136 -54q18 0 23.5 -4t5.5 -20v-63
q0 -16 -5.5 -20t-23.5 -4z" />
    <glyph glyph-name="l" unicode="l" horiz-adv-x="564" 
d="M313 1386l1 -1116q0 -183 153 -183q21 0 66 6q8 0 10 -11l11 -81q0 -11 -12 -13q-62 -12 -114 -12q-250 0 -250 294v1006l-106 27q-17 3 -17 18v45q0 14 17 16l225 23q16 0 16 -19z" />
    <glyph glyph-name="m" unicode="m" horiz-adv-x="1586" 
d="M1286 9v638q0 75 -36 131q-35 56 -111 56q-66 0 -130.5 -35t-138.5 -105v-676q0 -18 -16 -18h-102q-16 0 -16 18v629q0 186 -169 186q-29 0 -58 -10q-89 -28 -194 -127v-680q0 -16 -17 -16h-101q-17 0 -17 16v799l-108 27q-17 3 -17 18v45q0 14 17 16l206 20q15 0 16 -19
l12 -116q182 145 314 145q183 0 235 -150q182 149 322 149q117 0 180.5 -69.5t63.5 -195.5v-571l108 -27q17 -3 17 -16v-46q0 -15 -17 -17l-226 -17q-15 0 -17 18z" />
    <glyph glyph-name="n" unicode="n" horiz-adv-x="1085" 
d="M312 694v-678q0 -16 -17 -16h-101q-17 0 -17 16v799l-105 27q-17 3 -17 18v45q0 14 17 16l203 20q15 0 16 -19l14 -116q97 73 179 109q81 35 172 35q124 0 194 -68.5t70 -192.5v-575l108 -27q17 -3 17 -16v-46q0 -15 -17 -17l-226 -17q-16 0 -17 18v647q0 181 -178 181
q-143 0 -295 -143z" />
    <glyph glyph-name="o" unicode="o" horiz-adv-x="1037" 
d="M95 475q-3 217 104 345.5t316 129.5q208 0 317 -130q110 -130 110 -345q0 -116 -26.5 -209.5t-70.5 -149.5q-40 -52 -99 -85q-96 -55 -220 -55q-123 0 -224 55q-62 34 -104 85q-46 56 -74.5 149.5t-28.5 209.5zM235 472q0 -388 290 -388q142 -3 215 109q58 93 58 279
q0 366 -284 366q-150 0 -215 -96q-64 -95 -64 -270z" />
    <glyph glyph-name="p" unicode="p" horiz-adv-x="1083" 
d="M845 484q0 354 -271 354q-116 0 -262 -129v-595q52 -13 60 -14q71 -16 139 -16q160 0 247 100t87 300zM176 815l-104 27q-17 5 -17 18v45q0 14 17 16l203 20q15 0 16 -19l11 -103q161 128 313 128q373 0 373 -463q0 -243 -125 -377q-125 -132 -331 -132q-73 0 -170 23
l-51 13v-411q0 -16 -16 -16h-103q-16 0 -16 16v1215z" />
    <glyph glyph-name="q" unicode="q" horiz-adv-x="1034" 
d="M238 462q0 -147 53 -254q62 -120 218 -120q117 0 262 129v595q-51 13 -59 14q-71 16 -140 16q-158 0 -247 -89q-87 -89 -87 -291zM907 875v-1275q0 -16 -16 -16h-102q-16 0 -16 16v501q-155 -122 -305 -122q-242 3 -327 209q-46 112 -46 274q0 242 123 365
q124 124 333 124q134 0 356 -76z" />
    <glyph glyph-name="r" unicode="r" horiz-adv-x="654" 
d="M618 798q-1 0 -40 6q-36 7 -65 7q-81 0 -136 -71q-44 -58 -61 -119v-605q0 -16 -16 -16h-102q-16 0 -17 16v799l-109 27q-17 3 -17 18v45q0 14 17 16l208 20q13 0 16 -19l17 -129q31 64 94 109q62 46 135 46q49 0 88 -10q14 -2 14 -12l-16 -116q-2 -12 -10 -12z" />
    <glyph glyph-name="s" unicode="s" horiz-adv-x="886" 
d="M93 43q-11 5 -11 16l16 168q2 17 17 17h44q13 0 16 -17l26 -113q97 -30 228 -30q111 0 173.5 44t62.5 124q0 62 -50 92q-48 29 -190 61q-138 30 -217 80q-97 62 -97 192q0 273 358 273q132 0 282 -55q12 -3 12 -16l-13 -160q-2 -17 -17 -17h-41q-13 0 -18 17l-29 108
q-107 25 -180 25q-108 0 -165 -39t-57 -111q0 -78 82 -118q49 -24 200 -59q125 -31 194 -81q85 -62 85 -179q0 -77 -29.5 -134.5t-81.5 -90.5t-116 -48.5t-140 -15.5q-188 0 -344 67z" />
    <glyph glyph-name="t" unicode="t" horiz-adv-x="652" 
d="M215 270v544h-166q-16 0 -16 16v79q0 17 16 17h166v194q0 16 17 16h101q17 0 17 -16v-194h241q16 0 16 -17v-79q0 -16 -16 -16h-241v-544q0 -183 154 -183q21 0 66 6q8 0 10 -11l11 -81q0 -11 -12 -13q-57 -12 -114 -12q-250 0 -250 294z" />
    <glyph glyph-name="u" unicode="u" horiz-adv-x="1101" 
d="M177 814l-105 27q-17 3 -17 18v45q0 14 17 16l224 22q16 0 16 -19v-653q0 -181 178 -181q143 0 295 143v678q0 16 17 16h102q17 0 17 -16v-796l108 -27q17 -3 17 -16v-46q0 -15 -17 -17l-208 -16q-15 0 -16 19l-13 109q-100 -76 -179 -110q-78 -34 -172 -34
q-124 0 -194 68.5t-70 192.5v577z" />
    <glyph glyph-name="v" unicode="v" horiz-adv-x="948" 
d="M450 269q7 -21 14 -46q5 -16 19 -59q7 -22 18 -45q134 276 270 776q7 31 30 31h101q24 0 24 -14q0 -8 -16 -56q-124 -395 -224 -612q-73 -159 -116 -228q-10 -16 -29 -16h-90q-21 0 -29 18q-14 29 -29 66q-27 72 -28 74l-11 30q-93 253 -205 628l-110 24q-17 3 -17 18
l-2 45q0 14 17 16q202 18 210 19q15 0 18 -10q26 -85 50 -186q28 -115 135 -473z" />
    <glyph glyph-name="w" unicode="w" horiz-adv-x="1450" 
d="M808 909q110 -425 180 -654q31 -107 34 -127q140 302 255 769q8 29 28 29h99q25 0 25 -13q0 -6 -14 -57q-84 -309 -219 -612q-70 -160 -112 -228q-10 -16 -29 -16h-73q-23 0 -31 18q-5 10 -12 30q-103 291 -166 517q-10 41 -18 59l-2 -3q0 -23 -11 -58
q-68 -203 -196 -547q-7 -16 -29 -16h-74q-22 0 -30 17l-16 37q-59 136 -108 288q-48 146 -87 289q-42 153 -53 185l-110 24q-17 3 -17 18l-2 45q0 14 17 16q195 18 211 19q15 0 18 -10q134 -506 182 -666q0 -1 6.5 -22.5t15.5 -54.5t13 -56q151 417 222 663l-33 115
q-1 1 -1 6q0 13 18 13h103q11 0 16 -17z" />
    <glyph glyph-name="x" unicode="x" horiz-adv-x="941" 
d="M334 830l166 -260l236 340q10 16 24 16h130q13 0 13 -9q0 -3 -3 -9l-328 -437l307 -448q5 -8 5 -13q0 -10 -9 -10h-127q-20 0 -31 18l-227 345l-92 -128q-33 -46 -45 -61q-19 -25 -44 -55q-27 -32 -53 -52q-101 -82 -206 -76q-20 0 -20 17l5 75q1 8 6 11t23 6
q52 10 97 51q30 28 38 37q4 5 17 19.5t21 24.5q76 90 176 228l-239 358l-103 24q-17 3 -17 18v45q0 16 17 16q50 5 109 11t61 6q1 0 5 0.5t6 0.5q15 0 21 -10z" />
    <glyph glyph-name="y" unicode="y" horiz-adv-x="1014" 
d="M187 -330q124 -6 227 116q29 32 53 76q29 53 42 80q8 16 38 82h-8q-81 0 -122 16q-41 17 -70 61q-45 72 -100 279q-44 170 -106 436l-104 24q-17 3 -17 18v45q0 15 18 16l212 19q16 0 17 -10q12 -55 20 -103q4 -23 15 -83q50 -276 111 -486q29 -96 83 -127q20 -12 70 -12
q17 0 22 1q118 287 244 777q7 31 28 31h108q22 0 22 -14q0 -6 -14 -56q-128 -460 -301 -843q-6 -14 -17 -37.5t-15 -31.5q-3 -8 -32 -67q-22 -45 -38 -71q-15 -24 -42 -63q-24 -37 -49 -60q-70 -70 -118 -89q-73 -34 -153 -34q-49 0 -87 11q-9 1 -9 15l12 73q2 14 13 14
q26 -3 47 -3z" />
    <glyph glyph-name="z" unicode="z" horiz-adv-x="867" 
d="M240 111h319q69 0 104 30.5t39 102.5q0 16 19 16h83q14 0 14 -16q-7 -139 -76 -192q-67 -52 -194 -52h-461q-17 0 -17 17v77q0 20 6 28l3 3l520 667q10 11 10 17t-15 6h-400l-29 -108q-5 -17 -16 -17h-43q-14 0 -17 17l-15 188q0 31 32 31h645q21 0 21 -20v-79
q0 -17 -10 -30l-527 -663q-10 -11 -10 -17t15 -6z" />
    <glyph glyph-name="braceleft" unicode="{" horiz-adv-x="767" 
d="M95 571q-24 3 -24 23v109q0 20 24 23q56 6 115 37q60 31 75 63q23 49 23 133v346q0 158 83 220q71 52 256 52h90q25 0 25 -25v-60q0 -14 -5 -19t-22 -5h-51q-99 0 -146 -12q-31 -8 -46 -22q-53 -50 -49 -197v-306q0 -233 -225 -278v-9q225 -45 225 -278v-306
q-4 -147 49 -197q26 -26 108 -32q42 -2 84 -2h51q16 0 21.5 -4.5t5.5 -19.5v-60q0 -25 -25 -25h-90q-186 0 -256 52q-83 62 -83 220v346q0 84 -23 133q-15 31 -73 61q-57 30 -117 39z" />
    <glyph glyph-name="bar" unicode="|" horiz-adv-x="413" 
d="M264 1561v-1828q0 -14 -14 -14h-87q-14 0 -14 14v1828q0 14 14 14h87q14 0 14 -14z" />
    <glyph glyph-name="braceright" unicode="}" horiz-adv-x="767" 
d="M672 571q-59 -9 -118 -39q-57 -30 -72 -61q-23 -49 -23 -133v-346q0 -158 -83 -220q-71 -52 -256 -52h-94q-21 0 -21 25v60q0 15 5.5 19.5t21.5 4.5h51q100 0 145 12q33 8 47 22q53 50 49 197v306q0 233 225 278v9q-225 45 -225 278v306q4 147 -49 197q-26 26 -109 32
q-40 2 -83 2h-51q-17 0 -22 4.5t-5 19.5v60q0 25 25 25h90q185 0 256 -52q83 -62 83 -220v-346q0 -84 23 -133q15 -32 75 -63q59 -31 115 -37q24 -3 24 -23v-109q0 -20 -24 -23z" />
    <glyph glyph-name="asciitilde" unicode="~" horiz-adv-x="809" 
d="M735 539q-30 -66 -97 -108q-67 -41 -131 -41q-38 -2 -85 22.5t-87.5 49t-64.5 22.5q-51 0 -137 -80q-8 -8 -13 -8q-3 0 -9 6l-37 43q-2 2 -2 5q0 6 3 11q88 145 229 145q38 2 86.5 -22t90.5 -48t65 -22q50 0 132 81q9 10 15 9.5t18 -14.5q5 -5 23 -31q4 -7 4 -9
q0 -4 -3 -11z" />
    <glyph glyph-name="exclamdown" unicode="&#xa1;" horiz-adv-x="498" 
d="M175 781q-30 31 -30 74t30 73q31 31 74 31t73 -31q31 -30 31 -73t-31 -74q-30 -30 -73 -30t-74 30zM310 560q27 -855 27 -857q0 -11 -5.5 -15t-20.5 -4h-113q-26 0 -26 17q0 6 0.5 17t1 31t0.5 38q1 18 10 283q3 83 8.5 255.5t7.5 234.5q0 20 18 20h76q16 0 16 -20z" />
    <glyph glyph-name="cent" unicode="&#xa2;" horiz-adv-x="887" 
d="M730 719l-29 108q-70 15 -126 16v-755q100 2 209 35q12 4 18 4q9 0 12 -14l13 -68q1 -3 1 -7q0 -6 -13 -10q-123 -46 -240 -51v-127q0 -15 -14 -15h-77q-14 0 -14 15v133q-182 23 -278.5 147t-96.5 333q0 197 102 328t273 153v131q0 15 14 15h77q14 0 14 -15v-128
q87 -6 233 -50q11 -5 11 -16l-13 -162q-2 -17 -17 -17h-43q-11 0 -16 17zM238 463q0 -148 60 -242t172 -122v736q-107 -26 -170 -126q-62 -100 -62 -246z" />
    <glyph glyph-name="sterling" unicode="&#xa3;" horiz-adv-x="915" 
d="M87 407q-16 0 -16 16v76q0 18 16 18h106q3 64 3 145h-109q-16 0 -16 16v76q0 18 16 18h110q1 109 22 198q13 56 31 94q47 97 132 155q99 69 238 69q52 0 107 -15q57 -15 82 -30q14 -8 14 -21v-172q0 -17 -14 -17h-52q-11 0 -17 18l-35 112q-34 14 -93 14q-88 0 -148 -42
q-83 -59 -109 -163q-22 -92 -23 -200h324q16 0 16 -18v-76q0 -16 -16 -16h-327v-145h327q16 0 16 -18v-76q0 -16 -16 -16h-333q-19 -187 -95 -296h398q72 0 107.5 29.5t38.5 103.5q0 14 17 14h86q14 0 14 -14q-8 -146 -78 -197q-63 -47 -181 -47h-543q-6 0 -10 5t-4 11v77
q0 10 13 21l7 8q73 82 92 285h-98z" />
    <glyph glyph-name="currency" unicode="&#xa4;" horiz-adv-x="1091" 
d="M1005 1055l-146 -146q49 -97 49 -226q0 -174 -69 -277l146 -146q5 -5 5 -8q0 -4 -5 -9l-59 -59q-5 -5 -9 -5q-5 0 -9 4l-145 144q-89 -63 -222 -63q-130 0 -218 58l-139 -139q-4 -4 -8 -4q-5 0 -10 5l-59 59q-5 5 -5 9q0 3 5 8l138 138q-74 104 -74 285q0 136 53 234
l-137 138q-5 5 -5 8q0 4 5 9l59 59q5 5 10 5q4 0 8 -4l127 -128q95 86 248 86q158 0 254 -93l135 135q5 5 9 5q3 0 9 -6l59 -59q5 -5 5 -8q0 -4 -5 -9zM540 382q33 0 63 7t62.5 27t55.5 52t38 87t15 127q0 136 -59 211.5t-176 75.5q-118 0 -176.5 -75.5t-58.5 -211.5
q0 -177 81 -245q70 -55 155 -55z" />
    <glyph glyph-name="yen" unicode="&#xa5;" horiz-adv-x="1131" 
d="M950 1266h100q34 0 34 -18q0 -3 -8 -21l-309 -598h232q16 0 16 -18v-76q0 -16 -16 -16h-286q-28 -59 -43 -94v-64h329q16 0 16 -18v-76q0 -16 -16 -16h-329v-225q0 -16 -5 -21t-21 -5h-90q-16 0 -21 5t-5 21v225h-329q-16 0 -16 16v76q0 18 16 18h329v64l-41 94h-288
q-16 0 -16 16v76q0 18 16 18h236q-119 248 -271 522l-110 34q-16 4 -16 16v48q0 17 16 17h209q14 0 22 -14q170 -308 319 -684h4q42 108 137 324q89 201 170 349q15 25 35 25z" />
    <glyph glyph-name="brokenbar" unicode="&#xa6;" horiz-adv-x="413" 
d="M264 1561v-706q0 -14 -14 -14h-87q-14 0 -14 14v706q0 14 14 14h87q14 0 14 -14zM264 439v-706q0 -14 -14 -14h-87q-14 0 -14 14v706q0 14 14 14h87q14 0 14 -14z" />
    <glyph glyph-name="section" unicode="&#xa7;" horiz-adv-x="866" 
d="M437 423q73 -31 92 -41q95 71 95 163q0 76 -70 124q-58 41 -152 78q-1 1 -24 11t-44 19q-92 -69 -92 -164q0 -69 63 -118q55 -43 132 -72zM454 853q45 -18 58 -24q17 -6 57 -26q36 -17 58 -33q23 -16 47 -39q70 -62 76 -180q0 -137 -124 -227q109 -85 109 -210
q0 -132 -91 -199q-92 -68 -236 -68q-134 0 -283 58q-9 5 -9 21l10 141q0 12 9 12h52q9 0 11 -12l23 -90q2 0 10.5 -2.5t15.5 -4.5q24 -7 27 -8q4 -1 24 -7q40 -10 84 -10q39 0 76 8.5t72.5 27t57 53t21.5 80.5q0 65 -51.5 109t-161.5 89q-90 35 -155 78q-37 25 -65 56
q-60 73 -60 165q0 125 128 220q-111 79 -111 191q0 67 27 119t73.5 84t105 48t124.5 16q115 0 254 -39q10 -1 10 -14l-10 -140q0 -13 -11 -13h-39q-11 0 -14 11l-27 86q-78 18 -145 18q-82 0 -147 -32q-36 -16 -56.5 -49t-20.5 -78q0 -62 48.5 -105t148.5 -81z" />
    <glyph glyph-name="dieresis" unicode="&#xa8;" horiz-adv-x="632" 
d="M526 1097q-24 -24 -59 -24t-59 24t-24 59t24 59t59 24t59 -24t24 -59t-24 -59zM224 1097q-24 -24 -59 -24t-59 24t-24 59t24 59t59 24t59 -24t24 -59t-24 -59z" />
    <glyph glyph-name="copyright" unicode="&#xa9;" horiz-adv-x="1253" 
d="M627 -42q-224 0 -379 152q-153 153 -153 378q0 226 153 377q154 153 379 153q147 0 269 -69q121 -69 192 -191q70 -121 70 -270t-70 -270q-71 -122 -192 -191q-122 -69 -269 -69zM627 45q183 0 309 128q126 129 126 315t-126 314q-126 129 -309 129q-184 0 -310 -129
q-126 -128 -126 -314t126 -315q126 -128 310 -128zM754 651l-18 69q-40 12 -79 12q-91 0 -147 -63q-55 -62 -55 -171t52.5 -169.5t147.5 -60.5q54 0 135 23q12 3 14 3q10 0 11 -10l7 -49q0 -7 -7 -11q-84 -32 -165 -32q-142 0 -218.5 80t-76.5 226q0 136 79 221t205 85
q78 0 170 -33q8 -3 8 -11l-8 -108q-2 -11 -14 -11h-27q-11 0 -14 10z" />
    <glyph glyph-name="ordfeminine" unicode="&#xaa;" horiz-adv-x="599" 
d="M370 859v106h-19q-36 0 -48 -1q-13 0 -48 -5q-29 -4 -48 -14q-46 -21 -46 -70q0 -34 26 -55.5t61 -21.5q74 0 122 61zM479 1082v-288l11 -3q11 -3 27 -7.5t26 -7.5q7 -1 7 -10v-34q0 -10 -11 -10l-139 -7q-11 0 -13 11l-10 64q-65 -83 -164 -83q-73 0 -118.5 43
t-45.5 118q0 110 87 146q71 29 180 29q41 0 54 -1v39q0 117 -133 117q-62 0 -136 -31l-6 -2q-7 0 -7 10l4 67q0 6 7 10q85 38 157 38q107 0 165 -52t58 -156z" />
    <glyph glyph-name="guillemotleft" unicode="&#xab;" horiz-adv-x="798" 
d="M210 477l200 -261q7 -10 7 -18q0 -5 -3 -11q-21 -41 -46 -74q-10 -11 -19 -2l-249 269q-7 7 -7 34v126q0 27 7 34l249 269q11 11 19 -2q5 -8 24 -39t22 -35q3 -5 3 -10q0 -9 -7 -19zM520 477l200 -261q8 -13 8 -17q0 -7 -4 -12q-22 -39 -46 -74q-7 -13 -19 -2l-249 269
q-7 7 -7 34v126q0 27 7 34l249 269q11 11 19 -2q24 -35 46 -74q3 -5 3 -11q0 -8 -7 -18z" />
    <glyph glyph-name="logicalnot" unicode="&#xac;" horiz-adv-x="937" 
d="M77 746h763q12 0 12 -14v-382q0 -12 -14 -12h-100q-16 0 -16 12v282h-645q-12 0 -12 12v88q0 14 12 14z" />
    <glyph glyph-name="registered" unicode="&#xae;" horiz-adv-x="976" 
d="M772 605q-115 -115 -284 -115q-170 0 -285 115t-115 285q0 169 115 284q116 116 285 116q168 0 284 -116t116 -284q0 -169 -116 -285zM257 657q93 -94 231 -94q139 0 230 94q93 95 93 233t-93 233q-91 94 -230 94q-138 0 -231 -94q-92 -95 -92 -233t92 -233zM472 1044
h-46v-135h41q43 0 67.5 19.5t24.5 51.5q0 64 -87 64zM423 851v-161q0 -8 -7 -8h-51q-7 0 -7 8v358l-35 7q-6 1 -6 6v32q0 6 6 6q29 0 70 1t88 1q154 0 154 -118q0 -80 -85 -114q29 -15 41 -48q20 -51 34 -65q16 -15 41 -16q7 0 7 -6v-53q0 -6 -6 -6q-52 0 -82.5 25t-47.5 73
q-16 41 -37.5 59.5t-59.5 18.5h-17z" />
    <glyph glyph-name="overscore" unicode="&#xaf;" horiz-adv-x="516" 
d="M82 1101v88q0 14 21 14h308q16 0 19.5 -3t3.5 -10v-90q0 -14 -20 -14h-309q-14 0 -18.5 3t-4.5 12z" />
    <glyph glyph-name="degree" unicode="&#xb0;" horiz-adv-x="634" 
d="M596 1010q0 -114 -81 -196t-197 -82q-118 0 -199 81t-81 197t82 198t198 82q113 0 195 -82q83 -81 83 -198zM480 1010q0 71 -48 122t-114 51q-68 0 -116 -51t-48 -122t47 -121q48 -50 117 -50q68 0 115 50q47 52 47 121z" />
    <glyph glyph-name="plusminus" unicode="&#xb1;" horiz-adv-x="836" 
d="M350 803v271q0 12 12 12h104q14 0 14 -12v-271h273q12 0 12 -14v-84q0 -16 -12 -16h-273v-285q0 -12 -14 -12h-100q-16 0 -16 12v285h-267q-12 0 -12 12v88q0 14 12 14h267zM743 286q12 0 12 -14v-86q0 -16 -12 -16h-660q-12 0 -12 12v90q0 14 12 14h660z" />
    <glyph glyph-name="twosuperior" unicode="&#xb2;" horiz-adv-x="680" 
d="M85 1237q25 90 92 142.5t166 52.5q100 0 170 -55q71 -54 71 -155q1 -40 -12 -77t-30 -63t-49.5 -56.5t-54 -47t-60.5 -44.5q-128 -89 -166 -189h280l22 68q3 9 6.5 11.5t13.5 2.5h42q22 0 22 -30v-116q0 -33 -32 -33h-456q-28 0 -28 26q1 169 180 304q132 100 171 142
q40 43 40 98q0 49 -38.5 78.5t-96.5 29.5q-55 0 -96.5 -33.5t-56.5 -95.5q-3 -11 -12 -11l-6 1l-76 25q-8 2 -8 11z" />
    <glyph glyph-name="threesuperior" unicode="&#xb3;" horiz-adv-x="637" 
d="M111 746q72 -8 116 -8q98 0 159 46t61 115q0 107 -150 107q-6 0 -42 -2q-8 0 -15.5 -0.5t-11.5 -1t-5 -0.5q-19 0 -26 20t3 33l189 269h-211l-20 -64q-8 -20 -18 -20h-48q-11 0 -14 5.5t-3 20.5v121q0 33 25 33h423q12 0 20.5 -8t8.5 -21q0 -9 -7 -19l-193 -274
q92 -8 153 -57q61 -48 61 -136q0 -116 -89 -193q-88 -76 -239 -76q-82 0 -136 12q-20 5 -20 20l7 54q2 15 6 19.5t16 4.5z" />
    <glyph glyph-name="acute" unicode="&#xb4;" horiz-adv-x="503" 
d="M274 1299h133q15 0 15 -10q0 -12 -25 -34l-173 -158q-21 -21 -44 -21h-85q-13 0 -13 8q0 10 12 23l128 165q15 18 24 22.5t28 4.5z" />
    <glyph glyph-name="mu" unicode="&#xb5;" horiz-adv-x="1102" 
d="M161 -59v872l-106 27q-17 3 -17 18v45q0 14 17 16l225 23q16 0 16 -19v-650q17 -75 80 -128q65 -53 141 -53q95 0 168 62q73 64 107 165v590q0 17 16 17h102q7 0 12 -5t5 -12v-639q0 -84 30.5 -128t96.5 -53q10 -1 10 -10v-1q-1 -2 -1.5 -4t-0.5 -5l-1 -9l-13 -65
q-2 -9 -17 -9q-108 3 -168 63q-43 44 -59 101q-103 -172 -287 -172q-135 0 -221 98v-137q0 -229 11 -287l2.5 -12.5t3.5 -15t3 -14t2 -10.5l1 -4q0 -12 -19 -12h-87q-31 0 -38 72q-14 90 -14 285z" />
    <glyph glyph-name="paragraph" unicode="&#xb6;" horiz-adv-x="1212" 
d="M607 298h-31q-156 0 -273 63.5t-176 174.5q-57 110 -57 249q0 215 135 348q136 133 371 133h549q6 0 11 -5t5 -11v-48q0 -10 -16 -16l-97 -28v-1486q0 -16 -5 -21t-21 -5h-80q-16 0 -21 5t-5 21v1486h-157v-1486q0 -16 -4.5 -21t-21.5 -5h-80q-17 0 -21.5 5t-4.5 21v626z
M607 402v755h-11q-184 0 -285 -105q-99 -104 -99 -269q0 -155 91 -264q47 -55 123 -86t170 -31h11z" />
    <glyph glyph-name="middot" unicode="&#xb7;" horiz-adv-x="386" 
d="M119 468q-30 30 -30 74t30 74q31 30 74 30t73 -30q31 -30 31 -74t-31 -74q-30 -30 -73 -30t-74 30z" />
    <glyph glyph-name="cedilla" unicode="&#xb8;" horiz-adv-x="468" 
d="M176 -181q-18 0 -27 -1q-15 0 -15 9q0 1 2 9l53 194h102l-35 -137q72 -11 107.5 -48t35.5 -88q0 -77 -62 -125q-61 -48 -162 -48q-70 0 -100 11q-7 3 -7 9q0 5 3 14l15 49q4 13 13 13q49 -7 70 -7q46 0 76 21.5t30 51.5q0 34 -25 53.5t-74 19.5z" />
    <glyph glyph-name="onesuperior" unicode="&#xb9;" horiz-adv-x="495" 
d="M318 740l61 -12q18 -4 22 -8t4 -20v-28q0 -16 -4.5 -21t-21.5 -5h-243q-16 0 -21 5t-5 21v28q0 16 4 20t22 8l62 12v557q-54 -13 -115 -23q-13 0 -15 15l-3 69q0 9 4.5 13.5t18.5 8.5l200 55q2 1 9 1q21 0 21 -29v-667z" />
    <glyph glyph-name="ordmasculine" unicode="&#xba;" horiz-adv-x="612" 
d="M49 1000q0 135 65.5 212.5t189.5 77.5q123 0 191 -80t68 -210q-3 -205 -120 -266q-60 -32 -133 -32q-119 -4 -199 83q-62 76 -62 215zM158 999q0 -49 10.5 -86t26.5 -58t38 -34.5t41 -17.5t40 -4q140 0 140 200q0 90 -37 140.5t-110 50.5q-80 0 -114.5 -47.5
t-34.5 -143.5z" />
    <glyph glyph-name="guillemotright" unicode="&#xbb;" horiz-adv-x="798" 
d="M388 216l200 261l-200 261q-8 13 -8 17q0 7 4 12q22 39 46 74q8 13 19 2l249 -269q7 -7 7 -34v-126q0 -27 -7 -34l-249 -269q-11 -11 -19 2q-5 8 -24 38q-4 7 -9.5 15.5t-8 13t-4.5 7.5q-3 4 -3 10q0 9 7 19zM78 216l200 261l-200 261q-3 6 -4.5 10t-2.5 7t0.5 6.5
t2.5 5.5t5 8.5t7 11.5q26 42 34 54q8 13 19 2l249 -269q7 -7 7 -34v-126q0 -27 -7 -34l-249 -269q-11 -11 -19 2q-22 33 -46 74q-3 5 -3 10q0 9 7 19z" />
    <glyph glyph-name="onequarter" unicode="&#xbc;" horiz-adv-x="1459" 
d="M313 585l61 -12q18 -4 22 -8t4 -20v-28q0 -17 -5 -21.5t-21 -4.5h-243q-17 0 -21.5 4.5t-4.5 21.5v28q0 16 4 20t22 8l62 12v557q-60 -15 -115 -23q-14 0 -15 15l-3 69q0 9 4.5 13.5t18.5 8.5l200 55q2 1 9 1q21 0 21 -29v-667zM339 55l586 1196q6 10 9 12.5t14 2.5h91
q16 0 16 -12q0 -3 -11 -28l-590 -1210q-6 -12 -10 -14t-18 -2h-89q-15 0 -15 14q0 5 17 41zM871 270l254 488q9 17 29 17h82q14 0 14 -13q0 -9 -8 -23l-240 -467h180v125v11t2 7t6 5.5t12 1.5h80q21 0 21 -25v-125h70q15 0 18 -4.5t3 -17.5v-51q0 -15 -3.5 -19t-17.5 -4h-70
v-150q0 -25 -21 -25h-80q-9 0 -13.5 2.5t-5.5 7t-1 15.5v150h-289q-29 0 -29 20v51z" />
    <glyph glyph-name="onehalf" unicode="&#xbd;" horiz-adv-x="1526" 
d="M359 55l586 1196q7 15 23 15h91q16 0 16 -11q0 -4 -11 -29l-590 -1210q-6 -12 -10 -14t-18 -2h-89q-15 0 -15 14q0 5 17 41zM313 585l61 -12q18 -4 22 -8t4 -20v-28q0 -17 -5 -21.5t-21 -4.5h-243q-17 0 -21.5 4.5t-4.5 21.5v28q0 16 4 20t22 8l62 12v557
q-60 -15 -115 -23q-14 0 -15 15l-3 69q0 9 4.5 13.5t18.5 8.5l200 55q2 1 9 1q21 0 21 -29v-667zM953 590q25 90 92 142.5t166 52.5q100 0 168 -55q70 -54 70 -155q0 -49 -14.5 -90t-46 -76.5t-57 -57t-72.5 -55.5q-44 -32 -72 -55.5t-59.5 -62t-47.5 -79.5h280l22 68
q3 9 6.5 11.5t13.5 2.5h42q22 0 22 -30v-117q0 -33 -32 -33h-456q-11 0 -18 6t-8.5 11t-1.5 9q1 169 180 304q132 100 171 142q40 43 40 98q0 49 -38.5 78.5t-96.5 29.5q-54 0 -94.5 -31t-54.5 -84q-7 -25 -15 -25q-5 0 -7 1l-76 25q-8 2 -8 10q0 1 2 15z" />
    <glyph glyph-name="threequarters" unicode="&#xbe;" horiz-adv-x="1598" 
d="M1010 270l254 488q8 17 29 17h82q15 0 15 -12q0 -6 -9 -24l-240 -467h180v125v11t2 7t6 5.5t12 1.5h80q21 0 21 -25v-125h70q15 0 18 -4.5t3 -17.5v-51q0 -15 -3.5 -19t-17.5 -4h-70v-150q0 -25 -21 -25h-80q-9 0 -13.5 2.5t-5.5 7t-1 15.5v150h-289q-29 0 -29 20v51z
M462 55l586 1196q6 10 9 12.5t14 2.5h91q16 0 16 -12q0 -4 -11 -28l-590 -1210q-6 -12 -10 -14t-18 -2h-89q-15 0 -15 14q0 5 17 41zM119 591q72 -8 118 -8q98 0 159 46t61 115q0 107 -150 107q-6 0 -42 -2q-8 0 -15.5 -0.5t-11.5 -1t-5 -0.5q-19 0 -26 20t3 33l189 269
h-211l-20 -60q-8 -24 -18 -24h-48q-17 0 -17 31v116q0 33 25 33h423q12 0 20.5 -8t8.5 -21q0 -9 -7 -19l-188 -269q91 -10 150 -60t59 -138q0 -116 -89 -193q-88 -76 -239 -76q-75 0 -135 12q-21 5 -21 20l8 64q2 14 19 14z" />
    <glyph glyph-name="questiondown" unicode="&#xbf;" horiz-adv-x="749" 
d="M598 -211l27 100q5 17 16 17h43q15 0 17 -17l13 -169q0 -13 -12 -16q-164 -45 -278 -45q-50 0 -97.5 9t-95 31t-82 56t-56.5 88t-22 122q0 103 58 192q23 35 52 73q16 19 67 77q106 119 106 250q0 20 16 20h98q18 0 18 -20v-9q0 -86 -31.5 -160t-103.5 -156
q-54 -62 -70 -83q-24 -31 -47 -82q-22 -48 -22 -96q0 -94 57 -147t161 -53q74 0 168 18zM492 930q30 -30 30 -74t-30 -74t-74 -30t-74 30t-30 74t30 74t74 30t74 -30z" />
    <glyph glyph-name="Agrave" unicode="&#xc0;" horiz-adv-x="1118" 
d="M788 454l-217 711l-236 -711h453zM439 1158l-87 28q-16 6 -16 16v48q0 6 5 11t11 5h297q18 0 22 -16l396 -1228q2 -8 2 -9q0 -5 -5 -9t-10 -4h-118q-14 0 -18 16l-98 328h-519l-103 -328q-4 -16 -18 -16h-116q-16 0 -16 12q0 3 3 12zM295 1613h133q19 0 28 -4.5t24 -22.5
l128 -165q26 -31 -1 -31h-85q-23 0 -44 21l-173 158q-48 44 -10 44z" />
    <glyph glyph-name="Aacute" unicode="&#xc1;" horiz-adv-x="1118" 
d="M788 454l-217 711l-236 -711h453zM439 1158l-87 28q-16 6 -16 16v48q0 6 5 11t11 5h297q18 0 22 -16l396 -1228q2 -8 2 -9q0 -5 -5 -9t-10 -4h-118q-14 0 -18 16l-98 328h-519l-103 -328q-4 -16 -18 -16h-116q-16 0 -16 12q0 3 3 12zM669 1612h133q15 0 15 -10
q0 -12 -25 -34l-173 -158q-21 -21 -44 -21h-85q-13 0 -13 8q0 9 12 23l128 165q15 18 24 22.5t28 4.5z" />
    <glyph glyph-name="Acircumflex" unicode="&#xc2;" horiz-adv-x="1118" 
d="M788 454l-217 711l-236 -711h453zM439 1158l-87 28q-16 6 -16 16v48q0 6 5 11t11 5h297q18 0 22 -16l396 -1228q2 -8 2 -9q0 -5 -5 -9t-10 -4h-118q-14 0 -18 16l-98 328h-519l-103 -328q-4 -16 -18 -16h-116q-16 0 -16 12q0 3 3 12zM479 1628h131q21 0 34 -17q2 -1 6 -6
l8 -10l4 -5l124 -157q11 -14 11 -19q0 -7 -10 -11q-46 -20 -66 -20q-14 0 -41 24l-135 115l-135 -115q-27 -24 -41 -24q-18 0 -66 20q-10 4 -10 11q0 5 11 19l123 157q19 24 26 29.5t26 8.5z" />
    <glyph glyph-name="Atilde" unicode="&#xc3;" horiz-adv-x="1118" 
d="M625 1385q-39 0 -92 33t-75 33q-33 0 -95 -56q-13 -12 -27 2q-25 30 -32 48l-2 8q0 5 3 13q55 105 160 105q40 0 93 -32t77 -32q37 0 93 54q14 14 25 0q18 -24 27 -40q8 -14 8 -20q0 -5 -3 -11q-26 -49 -70 -77t-90 -28zM788 454l-217 711l-236 -711h453zM439 1158
l-87 28q-16 6 -16 16v48q0 6 5 11t11 5h297q18 0 22 -16l396 -1228q2 -8 2 -9q0 -5 -5 -9t-10 -4h-118q-14 0 -18 16l-98 328h-519l-103 -328q-4 -16 -18 -16h-116q-16 0 -16 12q0 3 3 12z" />
    <glyph glyph-name="Adieresis" unicode="&#xc4;" horiz-adv-x="1118" 
d="M788 454l-217 711l-236 -711h453zM439 1158l-87 28q-16 6 -16 16v48q0 6 5 11t11 5h297q18 0 22 -16l396 -1228q2 -8 2 -9q0 -5 -5 -9t-10 -4h-118q-14 0 -18 16l-98 328h-519l-103 -328q-4 -16 -18 -16h-116q-16 0 -16 12q0 3 3 12zM738 1414q-24 -24 -59 -24t-59 24
t-24 59t24 59t59 24t59 -24t24 -59t-24 -59zM436 1414q-24 -24 -59 -24t-59 24t-24 59t24 59t59 24t59 -24t24 -59t-24 -59z" />
    <glyph glyph-name="Aring" unicode="&#xc5;" horiz-adv-x="1118" 
d="M788 454l-217 711l-236 -711h453zM439 1158l-87 28q-16 6 -16 16v48q0 6 5 11t11 5h297q18 0 22 -16l396 -1228q2 -8 2 -9q0 -5 -5 -9t-10 -4h-118q-14 0 -18 16l-98 328h-519l-103 -328q-4 -16 -18 -16h-116q-16 0 -16 12q0 3 3 12zM373 1543q0 75 50 121.5t134 46.5
q81 0 129.5 -45.5t48.5 -120.5q0 -71 -51 -117q-50 -45 -129 -45q-81 0 -132 45q-50 47 -50 115zM555 1634q-38 0 -60 -24.5t-22 -64.5q0 -35 22.5 -61t57.5 -26q38 0 61 25t23 64q0 38 -22.5 62.5t-59.5 24.5z" />
    <glyph glyph-name="AE" unicode="&#xc6;" horiz-adv-x="1493" 
d="M371 456h406l-80 706h-6zM1351 621h-459l60 -511h450q16 0 21 -5t5 -21v-58q0 -16 -5 -21t-21 -5h-557q-6 0 -11 5t-5 11l-38 326h-466l-148 -326q-6 -16 -19 -16h-116q-16 0 -16 13q0 5 3 11l535 1134l-88 28q-16 6 -16 16v48q0 6 5 11t11 5h925q17 0 21.5 -5t4.5 -21
v-58q0 -16 -4.5 -21t-21.5 -5h-569l48 -425h471q17 0 21.5 -4.5t4.5 -21.5v-58q0 -17 -4.5 -21.5t-21.5 -4.5z" />
    <glyph glyph-name="Ccedilla" unicode="&#xc7;" horiz-adv-x="1038" 
d="M701 87q57 0 120 11q57 11 91 23l31 11l8 2q9 0 14 -12l22 -64q2 -8 2 -9q0 -8 -10 -12q-6 -5 -33 -17q-22 -10 -96 -27q-76 -17 -155 -17q-2 0 -10 0.5t-10 0.5l-21 -84q72 -11 107.5 -48t35.5 -88q0 -77 -62 -125q-61 -48 -162 -48q-70 0 -100 11q-7 3 -7 8q0 1 2 9
l16 55q4 13 13 13q49 -7 70 -7q46 0 76 21.5t30 51.5q0 64 -94 73h-5q-18 0 -27 -1q-15 0 -15 9q0 1 2 9l42 148q-235 32 -359 196t-124 446q0 189 73 339.5t210.5 237.5t316.5 87q73 0 145 -14q64 -12 101 -28l31 -13q17 -8 17 -22v-180q0 -16 -17 -16h-48q-10 0 -16 16
l-46 123q-78 24 -154 24q-139 0 -248 -74q-106 -73 -162 -196q-55 -120 -55 -272q0 -259 113 -405t347 -146z" />
    <glyph glyph-name="Egrave" unicode="&#xc8;" horiz-adv-x="966" 
d="M87 1266h793q16 0 21 -5t5 -21v-58q0 -16 -5 -21t-21 -5h-546v-424h400q16 0 21 -5t5 -21v-58q0 -16 -5 -21t-21 -5h-400v-512h546q16 0 21 -5t5 -21v-58q0 -16 -5 -21t-21 -5h-661q-17 0 -21.5 5t-4.5 21v1115l-106 44q-16 6 -16 16v48q0 17 16 17zM307 1613h133
q19 0 28 -4.5t24 -22.5l128 -165q26 -31 -1 -31h-85q-23 0 -44 21l-173 158q-48 44 -10 44z" />
    <glyph glyph-name="Eacute" unicode="&#xc9;" horiz-adv-x="966" 
d="M87 1266h793q16 0 21 -5t5 -21v-58q0 -16 -5 -21t-21 -5h-546v-424h400q16 0 21 -5t5 -21v-58q0 -16 -5 -21t-21 -5h-400v-512h546q16 0 21 -5t5 -21v-58q0 -16 -5 -21t-21 -5h-661q-17 0 -21.5 5t-4.5 21v1115l-106 44q-16 6 -16 16v48q0 17 16 17zM599 1612h133
q15 0 15 -10q0 -12 -25 -34l-173 -158q-21 -21 -44 -21h-85q-13 0 -13 8q0 9 12 23l128 165q15 18 24 22.5t28 4.5z" />
    <glyph glyph-name="Ecircumflex" unicode="&#xca;" horiz-adv-x="966" 
d="M479 1628h131q21 0 34 -17q2 -1 6 -6l8 -10l4 -5l124 -157q11 -14 11 -19q0 -7 -10 -11q-46 -20 -66 -20q-14 0 -41 24l-135 115l-135 -115q-27 -24 -41 -24q-18 0 -66 20q-10 4 -10 11q0 5 11 19l123 157q19 24 26 29.5t26 8.5zM87 1266h793q16 0 21 -5t5 -21v-58
q0 -16 -5 -21t-21 -5h-546v-424h400q16 0 21 -5t5 -21v-58q0 -16 -5 -21t-21 -5h-400v-512h546q16 0 21 -5t5 -21v-58q0 -16 -5 -21t-21 -5h-661q-17 0 -21.5 5t-4.5 21v1115l-106 44q-16 6 -16 16v48q0 17 16 17z" />
    <glyph glyph-name="Edieresis" unicode="&#xcb;" horiz-adv-x="966" 
d="M87 1266h793q16 0 21 -5t5 -21v-58q0 -16 -5 -21t-21 -5h-546v-424h400q16 0 21 -5t5 -21v-58q0 -16 -5 -21t-21 -5h-400v-512h546q16 0 21 -5t5 -21v-58q0 -16 -5 -21t-21 -5h-661q-17 0 -21.5 5t-4.5 21v1115l-106 44q-16 6 -16 16v48q0 17 16 17zM748 1414
q-24 -24 -59 -24t-59 24t-24 59t24 59t59 24t59 -24t24 -59t-24 -59zM446 1414q-24 -24 -59 -24t-59 24t-24 59t24 59t59 24t59 -24t24 -59t-24 -59z" />
    <glyph glyph-name="Igrave" unicode="&#xcc;" horiz-adv-x="620" 
d="M490 1184l-103 -20v-1062l103 -20q18 -3 22 -7.5t4 -20.5v-28q0 -16 -5 -21t-21 -5h-348q-16 0 -21 5t-5 21v28q0 16 4 20.5t22 7.5l104 20v1062l-104 20q-18 3 -22 7.5t-4 20.5v28q0 16 5 21t21 5h348q16 0 21 -5t5 -21v-28q0 -16 -4.5 -20.5t-21.5 -7.5zM66 1613h133
q19 0 28 -4.5t24 -22.5l128 -165q26 -31 -1 -31h-85q-23 0 -44 21l-173 158q-48 44 -10 44z" />
    <glyph glyph-name="Iacute" unicode="&#xcd;" horiz-adv-x="599" 
d="M478 1184l-103 -20v-1062l103 -20q18 -3 22 -7.5t4 -20.5v-28q0 -16 -5 -21t-21 -5h-348q-16 0 -21 5t-5 21v28q0 16 4 20.5t22 7.5l104 20v1062l-104 20q-18 3 -22 7.5t-4 20.5v28q0 16 5 21t21 5h348q16 0 21 -5t5 -21v-28q0 -16 -4.5 -20.5t-21.5 -7.5zM389 1612h133
q15 0 15 -10q0 -12 -25 -34l-173 -158q-21 -21 -44 -21h-85q-13 0 -13 8q0 9 12 23l128 165q15 18 24 22.5t28 4.5z" />
    <glyph glyph-name="Icircumflex" unicode="&#xce;" horiz-adv-x="668" 
d="M267 1628h131q21 0 34 -17q2 -1 6 -6l8 -10l4 -5l124 -157q11 -14 11 -19q0 -7 -10 -11q-46 -20 -66 -20q-14 0 -41 24l-135 115l-135 -115q-27 -24 -41 -24q-18 0 -66 20q-10 4 -10 11q0 5 11 19l123 157q19 24 26 29.5t26 8.5zM508 1184l-103 -20v-1062l103 -20
q18 -3 22 -7.5t4 -20.5v-28q0 -16 -5 -21t-21 -5h-348q-16 0 -21 5t-5 21v28q0 16 4 20.5t22 7.5l104 20v1062l-104 20q-18 3 -22 7.5t-4 20.5v28q0 16 5 21t21 5h348q16 0 21 -5t5 -21v-28q0 -16 -4.5 -20.5t-21.5 -7.5z" />
    <glyph glyph-name="Idieresis" unicode="&#xcf;" horiz-adv-x="632" 
d="M528 1414q-24 -24 -59 -24t-59 24t-24 59t24 59t59 24t59 -24t24 -59t-24 -59zM226 1414q-24 -24 -59 -24t-59 24t-24 59t24 59t59 24t59 -24t24 -59t-24 -59zM489 1184l-103 -20v-1062l103 -20q18 -3 22 -7.5t4 -20.5v-28q0 -16 -4.5 -21t-21.5 -5h-348q-17 0 -21.5 5
t-4.5 21v28q0 16 4 20.5t22 7.5l104 20v1062l-104 20q-18 3 -22 7.5t-4 20.5v28q0 16 4.5 21t21.5 5h348q17 0 21.5 -5t4.5 -21v-28q0 -16 -4.5 -20.5t-21.5 -7.5z" />
    <glyph glyph-name="Eth" unicode="&#xd0;" horiz-adv-x="1207" 
d="M195 23v565h-112q-12 0 -12 12v84q0 14 12 14h112v443l-106 44q-16 6 -16 16v48q0 17 16 17h395q630 0 630 -631q0 -295 -174 -474q-172 -178 -470 -178q-76 0 -132 4q-62 3 -90 6l-27 3q-9 0 -17.5 7.5t-8.5 19.5zM335 1156l1 -458h198q12 0 12 -14v-80q0 -16 -12 -16
h-198v-489q45 -7 130 -7q221 0 361 150q139 149 139 389q0 128 -23 216q-28 112 -97 183q-116 126 -374 126h-137z" />
    <glyph glyph-name="Ntilde" unicode="&#xd1;" horiz-adv-x="1264" 
d="M199 1151l-112 34q-16 4 -16 16v48q0 17 16 17h263q14 0 23 -16l556 -963l39 -79h6v1032q0 16 5 21t21 5h89q17 0 21.5 -5t4.5 -21v-1214q0 -16 -4.5 -21t-21.5 -5h-111q-27 0 -42 26l-548 951q-18 31 -38 76l-4 12h-6v-1039q0 -16 -5 -21t-21 -5h-89q-17 0 -21.5 5
t-4.5 21v1125zM755 1385q-39 0 -92 33t-75 33q-33 0 -95 -56q-13 -12 -27 2q-25 30 -32 48l-2 8q0 5 3 13q56 105 160 105q40 0 93 -32t77 -32q37 0 93 54q14 14 25 0q18 -24 27 -40q8 -14 8 -20q0 -5 -3 -11q-26 -49 -70 -77t-90 -28z" />
    <glyph glyph-name="Ograve" unicode="&#xd2;" horiz-adv-x="1217" 
d="M611 -24q-52 0 -101 8t-101.5 28.5t-97 53t-85.5 84.5t-69.5 119t-45 161t-16.5 207q0 294 114 466q123 187 402 187q112 0 200 -32t146.5 -89t97 -140t55 -179.5t16.5 -212.5q0 -151 -31 -272t-84 -195q-49 -70 -120 -117q-119 -77 -280 -77zM610 86q368 0 368 559
q0 536 -369 536q-237 0 -321 -228q-45 -130 -45 -308q0 -270 82 -408q35 -58 87 -94q49 -33 94 -45t104 -12zM378 1613h133q19 0 28 -4.5t24 -22.5l128 -165q26 -31 -1 -31h-85q-23 0 -44 21l-173 158q-48 44 -10 44z" />
    <glyph glyph-name="Oacute" unicode="&#xd3;" horiz-adv-x="1217" 
d="M609 -24q-52 0 -101 8t-101.5 28.5t-97 53t-85.5 84.5t-69.5 119t-45 161t-16.5 207q0 294 114 466q123 187 402 187q112 0 200 -32t146.5 -89t97 -140t55 -179.5t16.5 -212.5q0 -151 -31 -272t-84 -195q-49 -70 -120 -117q-119 -77 -280 -77zM608 86q368 0 368 559
q0 536 -369 536q-237 0 -321 -228q-45 -130 -45 -308q0 -270 82 -408q35 -58 87 -94q49 -33 94 -45t104 -12zM685 1612h133q15 0 15 -10q0 -12 -25 -34l-173 -158q-21 -21 -44 -21h-85q-13 0 -13 8q0 10 12 23l128 165q15 18 24 22.5t28 4.5z" />
    <glyph glyph-name="Ocircumflex" unicode="&#xd4;" horiz-adv-x="1217" 
d="M541 1628h131q21 0 34 -17q2 -1 6 -6l8 -10l4 -5l124 -157q11 -14 11 -19q0 -7 -10 -11q-46 -20 -66 -20q-14 0 -41 24l-135 115l-135 -115q-27 -24 -41 -24q-18 0 -66 20q-10 4 -10 11q0 5 11 19l123 157q19 24 26 29.5t26 8.5zM609 -24q-52 0 -101 8t-101.5 28.5
t-97 53t-85.5 84.5t-69.5 119t-45 161t-16.5 207q0 294 114 466q123 187 402 187q112 0 200 -32t146.5 -89t97 -140t55 -179.5t16.5 -212.5q0 -151 -31 -272t-84 -195q-49 -70 -120 -117q-119 -77 -280 -77zM608 86q368 0 368 559q0 536 -369 536q-237 0 -321 -228
q-45 -130 -45 -308q0 -270 82 -408q35 -58 87 -94q49 -33 94 -45t104 -12z" />
    <glyph glyph-name="Otilde" unicode="&#xd5;" horiz-adv-x="1217" 
d="M609 -24q-52 0 -101 8t-101.5 28.5t-97 53t-85.5 84.5t-69.5 119t-45 161t-16.5 207q0 294 114 466q123 187 402 187q112 0 200 -32t146.5 -89t97 -140t55 -179.5t16.5 -212.5q0 -151 -31 -272t-84 -195q-49 -70 -120 -117q-119 -77 -280 -77zM608 86q368 0 368 559
q0 536 -369 536q-237 0 -321 -228q-45 -130 -45 -308q0 -270 82 -408q35 -58 87 -94q49 -33 94 -45t104 -12zM685 1385q-39 0 -92 33t-75 33q-33 0 -95 -56q-13 -12 -27 2q-25 30 -32 48l-2 8q0 5 3 13q55 105 160 105q40 0 93 -32t77 -32q37 0 93 54q14 14 25 0
q18 -24 27 -40q8 -14 8 -20q0 -5 -3 -11q-26 -49 -70 -77t-90 -28z" />
    <glyph glyph-name="Odieresis" unicode="&#xd6;" horiz-adv-x="1217" 
d="M609 -24q-52 0 -101 8t-101.5 28.5t-97 53t-85.5 84.5t-69.5 119t-45 161t-16.5 207q0 294 114 466q123 187 402 187q112 0 200 -32t146.5 -89t97 -140t55 -179.5t16.5 -212.5q0 -151 -31 -272t-84 -195q-49 -70 -120 -117q-119 -77 -280 -77zM608 86q368 0 368 559
q0 536 -369 536q-237 0 -321 -228q-45 -130 -45 -308q0 -270 82 -408q35 -58 87 -94q49 -33 94 -45t104 -12zM818 1414q-24 -24 -59 -24t-59 24t-24 59t24 59t59 24t59 -24t24 -59t-24 -59zM516 1414q-24 -24 -59 -24t-59 24t-24 59t24 59t59 24t59 -24t24 -59t-24 -59z" />
    <glyph glyph-name="multiply" unicode="&#xd7;" horiz-adv-x="753" 
d="M76 771l70 70q4 4 9 4q4 0 8 -4l214 -213l214 213q4 4 9 4q4 0 9 -5l69 -69q4 -4 4 -9q0 -4 -4 -8l-213 -214l213 -214q8 -8 -3 -19l-65 -66q-6 -6 -11 -6q-4 0 -8 4l-214 213l-214 -213q-5 -5 -8 -5q-4 0 -9 5l-69 69q-5 5 -5 9q0 5 4 9l213 214l-213 214q-5 5 -5 8
q0 4 5 9z" />
    <glyph glyph-name="Oslash" unicode="&#xd8;" horiz-adv-x="1217" 
d="M609 -24q-157 0 -275 73l-75 -128q-12 -19 -30 -19h-81q-16 0 -16 13q0 6 5 14l112 191q-156 168 -156 517q0 294 114 466q123 187 402 187q168 0 284 -74l95 161q8 12 22 12h89q15 0 15 -10q0 -1 -5 -13l-131 -222q146 -164 146 -507q0 -151 -31 -272t-84 -195
q-49 -70 -120 -117q-119 -77 -280 -77zM241 645q0 -262 80 -402l508 864q-88 74 -222 74q-237 0 -321 -228q-45 -130 -45 -308zM608 86q368 0 368 559q0 236 -74 370l-506 -862q82 -67 212 -67z" />
    <glyph glyph-name="Ugrave" unicode="&#xd9;" horiz-adv-x="1232" 
d="M329 432q0 -158 83 -247t227 -89q149 0 231.5 81.5t82.5 236.5v826q0 16 4.5 21t21.5 5h89q16 0 21 -5t5 -21v-792q0 -223 -122 -348q-121 -124 -333 -124q-211 0 -331 123q-120 125 -120 351v701l-112 34q-16 4 -16 16v48q0 17 16 17h225q16 0 22 -6t6 -23v-805z
M435 1613h133q19 0 28 -4.5t24 -22.5l128 -165q26 -31 -1 -31h-85q-23 0 -44 21l-173 158q-48 44 -10 44z" />
    <glyph glyph-name="Uacute" unicode="&#xda;" horiz-adv-x="1232" 
d="M329 432q0 -158 83 -247t227 -89q149 0 231.5 81.5t82.5 236.5v826q0 16 4.5 21t21.5 5h89q16 0 21 -5t5 -21v-792q0 -223 -122 -348q-121 -124 -333 -124q-211 0 -331 123q-120 125 -120 351v701l-112 34q-16 4 -16 16v48q0 17 16 17h225q16 0 22 -6t6 -23v-805z
M729 1612h133q15 0 15 -10q0 -12 -25 -34l-173 -158q-21 -21 -44 -21h-85q-13 0 -13 8q0 9 12 23l128 165q15 18 24 22.5t28 4.5z" />
    <glyph glyph-name="Ucircumflex" unicode="&#xdb;" horiz-adv-x="1232" 
d="M589 1628h131q21 0 34 -17q2 -1 6 -6l8 -10l4 -5l124 -157q11 -14 11 -19q0 -7 -10 -11q-46 -20 -66 -20q-14 0 -41 24l-135 115l-135 -115q-27 -24 -41 -24q-18 0 -66 20q-10 4 -10 11q0 5 11 19l123 157q19 24 26 29.5t26 8.5zM329 432q0 -158 83 -247t227 -89
q149 0 231.5 81.5t82.5 236.5v826q0 16 4.5 21t21.5 5h89q16 0 21 -5t5 -21v-792q0 -223 -122 -348q-121 -124 -333 -124q-211 0 -331 123q-120 125 -120 351v701l-112 34q-16 4 -16 16v48q0 17 16 17h225q16 0 22 -6t6 -23v-805z" />
    <glyph glyph-name="Udieresis" unicode="&#xdc;" horiz-adv-x="1232" 
d="M329 432q0 -158 83 -247t227 -89q149 0 231.5 81.5t82.5 236.5v826q0 16 4.5 21t21.5 5h89q16 0 21 -5t5 -21v-792q0 -223 -122 -348q-121 -124 -333 -124q-211 0 -331 123q-120 125 -120 351v701l-112 34q-16 4 -16 16v48q0 17 16 17h225q16 0 22 -6t6 -23v-805z
M856 1414q-24 -24 -59 -24t-59 24t-24 59t24 59t59 24t59 -24t24 -59t-24 -59zM554 1414q-24 -24 -59 -24t-59 24t-24 59t24 59t59 24t59 -24t24 -59t-24 -59z" />
    <glyph glyph-name="Yacute" unicode="&#xdd;" horiz-adv-x="1024" 
d="M644 1612h133q15 0 15 -10q0 -12 -25 -34l-173 -158q-21 -21 -44 -21h-85q-13 0 -13 8q0 9 12 23l128 165q15 18 24 22.5t28 4.5zM688 208q-49 -117 -123 -173q-73 -54 -206 -54q-91 0 -154 19q-17 5 -17 20q0 6 18 76q5 17 20 17l18 -3q48 -10 110 -10q113 0 167 76
q32 43 46 76q19 43 38 99l20 60h-99q-177 0 -237 141q-23 55 -104 389q-39 165 -52 217l-87 27q-16 4 -16 16v48q0 17 16 17h209q20 0 23 -24q22 -151 65 -359q46 -225 74 -285q33 -73 172 -73h39q17 1 35 1q118 373 201 722q4 18 24 18h110q24 0 24 -12q0 -4 -1 -7
q-182 -673 -333 -1039z" />
    <glyph glyph-name="Thorn" unicode="&#xde;" horiz-adv-x="982" 
d="M947 645q0 -202 -136 -302t-380 -100h-91v-215q0 -16 -6.5 -22t-21.5 -6h-87q-17 0 -21.5 5t-4.5 21v1125l-112 34q-16 4 -16 16v48q0 17 16 17h227q16 0 21 -5t5 -22v-206h91q255 0 385.5 -94.5t130.5 -293.5zM340 927v-578h71q394 0 394 294q0 151 -96 217.5t-298 66.5
h-71z" />
    <glyph glyph-name="germandbls" unicode="&#xdf;" horiz-adv-x="1104" 
d="M201 911v152q0 163 94 261q94 99 280 99q51 0 96.5 -9t90 -32t76.5 -57.5t51.5 -88.5t19.5 -123q0 -108 -25 -168q-148 -66 -148 -162q0 -41 25.5 -76.5t88.5 -89.5q90 -76 131 -148q41 -71 41 -162q0 -144 -89 -238q-89 -92 -236 -92q-66 0 -162 17q-27 6 -27 19l12 76
q3 17 18 17q1 0 2.5 -0.5t4.5 -1t6 -0.5t31 -6q50 -8 54 -8q34 -2 57 -2q90 0 146 65q56 67 56 154q0 59 -29.5 108.5t-97.5 108.5q-82 72 -120 126q-36 54 -36 133q0 146 164 245q4 23 4 79q0 100 -51 152.5t-152 52.5q-176 -5 -219 -137q-22 -66 -22 -169v-979
q0 -17 -4.5 -22t-21.5 -5h-83q-17 0 -21.5 5t-4.5 22v767l-114 35q-16 4 -16 16v49q0 17 16 17h114z" />
    <glyph glyph-name="agrave" unicode="&#xe0;" horiz-adv-x="916" 
d="M763 546v-447q15 -8 99 -34q10 -3 12 -5t2 -9v-41q0 -8 -12 -9l-192 -20q-11 0 -14.5 4t-5.5 16l-15 115q-143 -140 -295 -140q-130 0 -200.5 70t-70.5 197q-1 186 192 246q75 23 177 29q54 2 90 2h99v93q0 115 -55.5 169t-167.5 54q-86 0 -210 -57l-20 -9l-8 -2
q-8 0 -9 6l-17 70q-3 11 7 18l17 10q43 26 123 52q78 25 153 25q230 0 296 -177q25 -63 25 -226zM629 214v208q-174 0 -240 -8q-89 -12 -134 -50t-45 -113q0 -73 51 -117q52 -43 129 -43q62 0 126.5 32.5t112.5 90.5zM238 1299h133q19 0 28 -4.5t24 -22.5l128 -165
q26 -31 -1 -31h-85q-23 0 -44 21l-173 158q-48 44 -10 44z" />
    <glyph glyph-name="aacute" unicode="&#xe1;" horiz-adv-x="901" 
d="M744 546v-447q15 -8 99 -34q10 -3 12 -5t2 -9v-41q0 -8 -12 -9l-192 -20q-11 0 -14.5 4t-5.5 16l-15 115q-143 -140 -295 -140q-130 0 -200.5 70t-70.5 197q-1 186 192 246q75 23 177 29q54 2 90 2h99v93q0 115 -55.5 169t-167.5 54q-85 0 -210 -57l-20 -9l-8 -2
q-7 0 -9 6l-17 70q-3 11 7 18l17 10q43 26 123 52q78 25 153 25q230 0 296 -177q25 -63 25 -226zM610 214v208q-174 0 -240 -8q-89 -12 -134 -50t-45 -113q0 -73 51 -117q52 -43 129 -43q62 0 126.5 32.5t112.5 90.5zM530 1299h133q15 0 15 -10q0 -12 -25 -34l-173 -158
q-21 -21 -44 -21h-85q-13 0 -13 8q0 10 12 23l128 165q15 18 24 22.5t28 4.5z" />
    <glyph glyph-name="acircumflex" unicode="&#xe2;" horiz-adv-x="916" 
d="M763 546v-447q15 -8 99 -34q10 -3 12 -5t2 -9v-41q0 -8 -12 -9l-192 -20q-11 0 -14.5 4t-5.5 16l-15 115q-143 -140 -295 -140q-130 0 -200.5 70t-70.5 197q-1 186 192 246q75 23 177 29q54 2 90 2h99v93q0 115 -55.5 169t-167.5 54q-86 0 -210 -57l-20 -9l-8 -2
q-8 0 -9 6l-17 70q-3 11 7 18l17 10q43 26 123 52q78 25 153 25q230 0 296 -177q25 -63 25 -226zM629 214v208q-174 0 -240 -8q-89 -12 -134 -50t-45 -113q0 -73 51 -117q52 -43 129 -43q62 0 126.5 32.5t112.5 90.5zM368 1310h131q21 0 34 -17q2 -1 6 -6l8 -10l4 -5
l124 -157q11 -14 11 -19q0 -7 -10 -11q-46 -20 -66 -20q-14 0 -41 24l-135 115l-135 -115q-27 -24 -41 -24q-18 0 -66 20q-10 4 -10 11q0 5 11 19l123 157q19 24 26 29.5t26 8.5z" />
    <glyph glyph-name="atilde" unicode="&#xe3;" horiz-adv-x="916" 
d="M763 546v-447q15 -8 99 -34q10 -3 12 -5t2 -9v-41q0 -8 -12 -9l-192 -20q-11 0 -14.5 4t-5.5 16l-15 115q-143 -140 -295 -140q-130 0 -200.5 70t-70.5 197q-1 186 192 246q75 23 177 29q54 2 90 2h99v93q0 115 -55.5 169t-167.5 54q-86 0 -210 -57l-20 -9l-8 -2
q-8 0 -9 6l-17 70q-3 11 7 18l17 10q43 26 123 52q78 25 153 25q230 0 296 -177q25 -63 25 -226zM629 214v208q-174 0 -240 -8q-89 -12 -134 -50t-45 -113q0 -73 51 -117q52 -43 129 -43q62 0 126.5 32.5t112.5 90.5zM510 1072q-39 0 -92 33t-75 33q-33 0 -95 -56
q-8 -6 -13 -6q-6 0 -14 8q-25 30 -32 48l-2 8q0 6 3 13q55 105 160 105q40 0 93 -32t77 -32q37 0 93 54q14 14 25 0q18 -24 27 -40q8 -14 8 -20q0 -5 -3 -11q-26 -49 -70 -77t-90 -28z" />
    <glyph glyph-name="adieresis" unicode="&#xe4;" horiz-adv-x="916" 
d="M763 546v-447q15 -8 99 -34q10 -3 12 -5t2 -9v-41q0 -8 -12 -9l-192 -20q-11 0 -14.5 4t-5.5 16l-15 115q-143 -140 -295 -140q-130 0 -200.5 70t-70.5 197q-1 186 192 246q75 23 177 29q54 2 90 2h99v93q0 115 -55.5 169t-167.5 54q-86 0 -210 -57l-20 -9l-8 -2
q-8 0 -9 6l-17 70q-3 11 7 18l17 10q43 26 123 52q78 25 153 25q230 0 296 -177q25 -63 25 -226zM629 214v208q-174 0 -240 -8q-89 -12 -134 -50t-45 -113q0 -73 51 -117q52 -43 129 -43q62 0 126.5 32.5t112.5 90.5zM656 1097q-24 -24 -59 -24t-59 24t-24 59t24 59t59 24
t59 -24t24 -59t-24 -59zM354 1097q-24 -24 -59 -24t-59 24t-24 59t24 59t59 24t59 -24t24 -59t-24 -59z" />
    <glyph glyph-name="aring" unicode="&#xe5;" horiz-adv-x="916" 
d="M763 546v-447q15 -8 99 -34q10 -3 12 -5t2 -9v-41q0 -8 -12 -9l-192 -20q-11 0 -14.5 4t-5.5 16l-15 115q-143 -140 -295 -140q-130 0 -200.5 70t-70.5 197q-1 186 192 246q75 23 177 29q54 2 90 2h99v93q0 115 -55.5 169t-167.5 54q-86 0 -210 -57l-20 -9l-8 -2
q-8 0 -9 6l-17 70q-3 11 7 18l17 10q43 26 123 52q78 25 153 25q230 0 296 -177q25 -63 25 -226zM629 214v208q-174 0 -240 -8q-89 -12 -134 -50t-45 -113q0 -73 51 -117q52 -43 129 -43q62 0 126.5 32.5t112.5 90.5zM282 1228q0 75 50 121.5t134 46.5q81 0 129.5 -45.5
t48.5 -120.5q0 -70 -51 -117q-49 -45 -129 -45q-81 0 -132 45q-50 47 -50 115zM464 1319q-38 0 -60 -24.5t-22 -64.5q0 -35 22.5 -61t57.5 -26q38 0 61 25t23 64q0 38 -22.5 62.5t-59.5 24.5z" />
    <glyph glyph-name="ae" unicode="&#xe6;" horiz-adv-x="1466" 
d="M1025 837q-108 0 -174 -77.5t-81 -214.5h472v26q0 123 -60 194q-60 72 -157 72zM376 87q152 0 246 109v243q-138 0 -159 -1q-90 -2 -144 -17q-39 -11 -63 -30q-56 -45 -56 -140q0 -72 50 -119q51 -45 126 -45zM727 788q111 162 300 162q349 0 349 -458v-21q0 -34 -17 -34
h-592q8 -181 88.5 -265t238.5 -84q114 0 226 47q12 5 15 5q7 0 10 -3.5t6 -17.5l13 -60q0 -10 -12 -16q-134 -67 -283 -67q-251 0 -347 170q-58 -80 -152 -125t-204 -45q-130 0 -213 72q-82 72 -82 195q0 300 409 300h147v71q0 115 -54 169t-164 54q-85 0 -206 -57
q-19 -10 -28 -10q-6 0 -8 5q0 1 -7.5 32t-8.5 33l-1 6q0 14 24 27q40 25 115 50q78 26 142 27h13q212 0 283 -162z" />
    <glyph glyph-name="ccedilla" unicode="&#xe7;" horiz-adv-x="882" 
d="M729 717l-29 110q-67 16 -163 16q-135 0 -218 -105q-82 -104 -82 -275q0 -178 86 -276.5t242 -98.5q101 0 218 35q12 4 18 4q9 0 14 -20l11 -65q0 -10 -12 -14q-121 -49 -256 -51l-20 -84q72 -11 107.5 -48t35.5 -88q0 -77 -62 -125q-61 -48 -162 -48q-65 0 -95 11
q-7 3 -7 8t18 64q4 13 13 13q49 -7 70 -7q46 0 76 21.5t30 51.5q0 64 -94 73h-5q-18 0 -27 -1q-15 0 -15 9q0 1 2 9l40 148q-179 25 -274 148.5t-95 330.5q0 218 122 352t321 134q104 0 270 -52q11 -3 11 -16l-13 -162q-2 -17 -17 -17h-42q-12 0 -17 15z" />
    <glyph glyph-name="egrave" unicode="&#xe8;" horiz-adv-x="970" 
d="M95 472q0 217 114 349q114 133 309 133q182 0 272 -109t90 -341v-21q0 -34 -18 -34h-623q17 -360 349 -360q117 0 234 47q12 5 16 5q7 0 10.5 -3t5.5 -14l13 -63q0 -11 -12 -18q-138 -67 -293 -67q-218 0 -342 130q-125 131 -125 366zM516 840q-114 0 -186.5 -75
t-87.5 -207h499v26q0 121 -61 188.5t-164 67.5zM308 1299h133q19 0 28 -4.5t24 -22.5l128 -165q26 -31 -1 -31h-85q-23 0 -44 21l-173 158q-48 44 -10 44z" />
    <glyph glyph-name="eacute" unicode="&#xe9;" horiz-adv-x="970" 
d="M95 472q0 217 114 349q114 133 309 133q182 0 272 -109t90 -341v-21q0 -34 -18 -34h-623q17 -360 349 -360q117 0 234 47q12 5 16 5q7 0 10.5 -3t5.5 -14l13 -63q0 -11 -12 -18q-138 -67 -293 -67q-218 0 -342 130q-125 131 -125 366zM516 840q-114 0 -186.5 -75
t-87.5 -207h499v26q0 121 -61 188.5t-164 67.5zM589 1299h133q15 0 15 -10q0 -12 -25 -34l-173 -158q-21 -21 -44 -21h-85q-13 0 -13 8q0 10 12 23l128 165q15 18 24 22.5t28 4.5z" />
    <glyph glyph-name="ecircumflex" unicode="&#xea;" horiz-adv-x="970" 
d="M448 1310h131q21 0 34 -17q2 -1 6 -6l8 -10l4 -5l124 -157q11 -14 11 -19q0 -7 -10 -11q-46 -20 -66 -20q-14 0 -41 24l-135 115l-135 -115q-27 -24 -41 -24q-18 0 -66 20q-10 4 -10 11q0 5 11 19l123 157q19 24 26 29.5t26 8.5zM95 472q0 217 114 349q114 133 309 133
q182 0 272 -109t90 -341v-21q0 -34 -18 -34h-623q17 -360 349 -360q117 0 234 47q12 5 16 5q7 0 10.5 -3t5.5 -14l13 -63q0 -11 -12 -18q-138 -67 -293 -67q-218 0 -342 130q-125 131 -125 366zM516 840q-114 0 -186.5 -75t-87.5 -207h499v26q0 121 -61 188.5t-164 67.5z
" />
    <glyph glyph-name="edieresis" unicode="&#xeb;" horiz-adv-x="970" 
d="M95 472q0 217 114 349q114 133 309 133q182 0 272 -109t90 -341v-21q0 -34 -18 -34h-623q17 -360 349 -360q117 0 234 47q12 5 16 5q7 0 10.5 -3t5.5 -14l13 -63q0 -11 -12 -18q-138 -67 -293 -67q-218 0 -342 130q-125 131 -125 366zM516 840q-114 0 -186.5 -75
t-87.5 -207h499v26q0 121 -61 188.5t-164 67.5zM706 1097q-24 -24 -59 -24t-59 24t-24 59t24 59t59 24t59 -24t24 -59t-24 -59zM404 1097q-24 -24 -59 -24t-59 24t-24 59t24 59t59 24t59 -24t24 -59t-24 -59z" />
    <glyph glyph-name="igrave" unicode="&#xec;" horiz-adv-x="509" 
d="M186 9v806l-106 27q-17 3 -17 18v45q0 14 17 16l225 23q16 0 16 -19v-811l108 -27q17 -3 17 -16v-46q0 -15 -17 -17l-226 -17q-17 0 -17 18zM-5 1299h133q19 0 28 -4.5t24 -22.5l128 -165q26 -31 -1 -31h-85q-23 0 -44 21l-173 158q-48 44 -10 44z" />
    <glyph glyph-name="iacute" unicode="&#xed;" horiz-adv-x="578" 
d="M185 9v806l-106 27q-17 3 -17 18v45q0 14 17 16l225 23q16 0 16 -19v-811l108 -27q17 -3 17 -16v-46q0 -15 -17 -17l-226 -17q-17 0 -17 18zM312 1299h133q15 0 15 -10q0 -12 -25 -34l-173 -158q-21 -21 -44 -21h-85q-13 0 -13 8q0 10 12 23l128 165q15 18 24 22.5
t28 4.5z" />
    <glyph glyph-name="icircumflex" unicode="&#xee;" horiz-adv-x="509" 
d="M164 1310h131q21 0 34 -17q2 -1 6 -6l8 -10l4 -5l124 -157q11 -14 11 -19q0 -7 -10 -11q-46 -20 -66 -20q-14 0 -41 24l-135 115l-135 -115q-27 -24 -41 -24q-18 0 -66 20q-10 4 -10 11q0 5 11 19l123 157q19 24 26 29.5t26 8.5zM186 9v806l-106 27q-17 3 -17 18v45
q0 14 17 16l225 23q16 0 16 -19v-811l108 -27q17 -3 17 -16v-46q0 -15 -17 -17l-226 -17q-17 0 -17 18z" />
    <glyph glyph-name="idieresis" unicode="&#xef;" horiz-adv-x="566" 
d="M196 9v806l-106 27q-17 3 -17 18v45q0 14 17 16l225 23q16 0 16 -19v-811l108 -27q17 -3 17 -16v-46q0 -15 -17 -17l-226 -17q-17 0 -17 18zM448 1097q-24 -24 -59 -24t-59 24t-24 59t24 59t59 24t59 -24t24 -59t-24 -59zM146 1097q-24 -24 -59 -24t-59 24t-24 59t24 59
t59 24t59 -24t24 -59t-24 -59z" />
    <glyph glyph-name="eth" unicode="&#xf0;" horiz-adv-x="1045" 
d="M95 466q0 108 33 197.5t90 145.5q116 113 267 113q163 0 269 -117q0 1 2 2l3 1q-72 182 -210 312l-223 -117q-6 -3 -11 -3q-7 0 -12 9l-36 69q-3 6 -3 9q0 8 10 12l181 96q-98 67 -202 103q-14 6 -14 11q0 4 1 7l20 78q3 10 14 10q1 0 11 -2q156 -45 290 -146l164 87
q5 3 11 3q7 0 11 -10l35 -69q3 -6 3 -10q0 -6 -10 -12l-125 -66q134 -132 210 -319q76 -185 76 -381q0 -115 -27.5 -208.5t-72.5 -150.5q-43 -53 -102 -88q-98 -57 -221 -57q-83 -2 -173 38t-156 119q-47 56 -75 143t-28 191zM232 480q0 -176 70 -276q31 -41 72 -70
q75 -48 159 -48t145 37q39 23 66 60q64 85 64 254q0 160 -89 267t-215 107q-108 0 -191 -86q-81 -86 -81 -245z" />
    <glyph glyph-name="ntilde" unicode="&#xf1;" horiz-adv-x="1085" 
d="M312 694v-678q0 -16 -17 -16h-101q-17 0 -17 16v799l-105 27q-17 3 -17 18v45q0 14 17 16l203 20q15 0 16 -19l14 -116q97 73 179 109q81 35 172 35q124 0 194 -68.5t70 -192.5v-575l108 -27q17 -3 17 -16v-46q0 -15 -17 -17l-226 -17q-16 0 -17 18v647q0 181 -178 181
q-143 0 -295 -143zM640 1072q-40 0 -92 33t-75 33q-33 0 -95 -56q-13 -12 -27 2q-25 30 -32 48l-2 8q0 6 3 13q56 105 160 105q40 0 93 -32t77 -32q38 0 93 54q14 14 25 0q18 -24 27 -40q8 -14 8 -20q0 -5 -3 -11q-26 -49 -70 -77t-90 -28z" />
    <glyph glyph-name="ograve" unicode="&#xf2;" horiz-adv-x="1037" 
d="M95 475q-3 217 104 345.5t316 129.5q208 0 317 -130q110 -130 110 -345q0 -116 -26.5 -209.5t-70.5 -149.5q-40 -52 -99 -85q-96 -55 -220 -55q-123 0 -224 55q-62 34 -104 85q-46 56 -74.5 149.5t-28.5 209.5zM235 472q0 -388 290 -388q142 -3 215 109q58 93 58 279
q0 366 -284 366q-150 0 -215 -96q-64 -95 -64 -270zM318 1299h133q19 0 28 -4.5t24 -22.5l128 -165q26 -31 -1 -31h-85q-23 0 -44 21l-173 158q-48 44 -10 44z" />
    <glyph glyph-name="oacute" unicode="&#xf3;" horiz-adv-x="1037" 
d="M95 475q-3 217 104 345.5t316 129.5q208 0 317 -130q110 -130 110 -345q0 -116 -26.5 -209.5t-70.5 -149.5q-40 -52 -99 -85q-96 -55 -220 -55q-123 0 -224 55q-62 34 -104 85q-46 56 -74.5 149.5t-28.5 209.5zM235 472q0 -388 290 -388q142 -3 215 109q58 93 58 279
q0 366 -284 366q-150 0 -215 -96q-64 -95 -64 -270zM594 1299h133q15 0 15 -10q0 -12 -25 -34l-173 -158q-21 -21 -44 -21h-85q-13 0 -13 8q0 10 12 23l128 165q15 18 24 22.5t28 4.5z" />
    <glyph glyph-name="ocircumflex" unicode="&#xf4;" horiz-adv-x="1037" 
d="M458 1310h131q21 0 34 -17q2 -1 6 -6l8 -10l4 -5l124 -157q11 -14 11 -19q0 -7 -10 -11q-46 -20 -66 -20q-14 0 -41 24l-135 115l-135 -115q-27 -24 -41 -24q-18 0 -66 20q-10 4 -10 11q0 5 11 19l123 157q19 24 26 29.5t26 8.5zM95 475q-3 217 104 345.5t316 129.5
q208 0 317 -130q110 -130 110 -345q0 -116 -26.5 -209.5t-70.5 -149.5q-40 -52 -99 -85q-96 -55 -220 -55q-123 0 -224 55q-62 34 -104 85q-46 56 -74.5 149.5t-28.5 209.5zM235 472q0 -388 290 -388q142 -3 215 109q58 93 58 279q0 366 -284 366q-150 0 -215 -96
q-64 -95 -64 -270z" />
    <glyph glyph-name="otilde" unicode="&#xf5;" horiz-adv-x="1037" 
d="M95 475q-3 217 104 345.5t316 129.5q208 0 317 -130q110 -130 110 -345q0 -116 -26.5 -209.5t-70.5 -149.5q-40 -52 -99 -85q-96 -55 -220 -55q-123 0 -224 55q-62 34 -104 85q-46 56 -74.5 149.5t-28.5 209.5zM235 472q0 -388 290 -388q142 -3 215 109q58 93 58 279
q0 366 -284 366q-150 0 -215 -96q-64 -95 -64 -270zM610 1072q-40 0 -92 33t-75 33q-33 0 -95 -56q-13 -12 -27 2q-25 30 -32 48l-2 8q0 6 3 13q56 105 160 105q40 0 93 -32t77 -32q38 0 93 54q14 14 25 0q18 -24 27 -40q8 -14 8 -20q0 -5 -3 -11q-26 -49 -70 -77t-90 -28z
" />
    <glyph glyph-name="odieresis" unicode="&#xf6;" horiz-adv-x="1037" 
d="M95 475q-3 217 104 345.5t316 129.5q208 0 317 -130q110 -130 110 -345q0 -116 -26.5 -209.5t-70.5 -149.5q-40 -52 -99 -85q-96 -55 -220 -55q-123 0 -224 55q-62 34 -104 85q-46 56 -74.5 149.5t-28.5 209.5zM235 472q0 -388 290 -388q142 -3 215 109q58 93 58 279
q0 366 -284 366q-150 0 -215 -96q-64 -95 -64 -270zM726 1097q-24 -24 -59 -24t-59 24t-24 59t24 59t59 24t59 -24t24 -59t-24 -59zM424 1097q-24 -24 -59 -24t-59 24t-24 59t24 59t59 24t59 -24t24 -59t-24 -59z" />
    <glyph glyph-name="divide" unicode="&#xf7;" horiz-adv-x="826" 
d="M743 601q12 0 12 -14v-86q0 -16 -12 -16h-660q-12 0 -12 12v90q0 14 12 14h660zM412 393q39 0 65.5 -26.5t26.5 -64.5t-26.5 -64.5t-65.5 -26.5q-38 0 -64.5 26.5t-26.5 64.5t26.5 64.5t64.5 26.5zM412 875q39 0 65.5 -26.5t26.5 -64.5t-26.5 -64.5t-65.5 -26.5
q-38 0 -64.5 26.5t-26.5 64.5t26.5 64.5t64.5 26.5z" />
    <glyph glyph-name="oslash" unicode="&#xf8;" horiz-adv-x="1037" 
d="M95 475q-3 217 104 345.5t316 129.5q125 0 218 -51l57 97q8 12 22 12h84q13 0 13 -13q0 -4 -3 -10l-88 -150q124 -127 124 -360q0 -116 -26.5 -209.5t-70.5 -149.5q-40 -52 -99 -85q-96 -55 -220 -55q-107 0 -191 37l-54 -92q-12 -19 -30 -19h-77q-15 0 -15 13q0 7 4 14
l82 140q-150 129 -150 406zM235 472q0 -194 74 -294l363 618q-64 42 -158 42q-150 0 -215 -96q-64 -95 -64 -270zM798 472q0 154 -51 243l-355 -605q57 -26 133 -26q142 -3 215 109q58 93 58 279z" />
    <glyph glyph-name="ugrave" unicode="&#xf9;" horiz-adv-x="1101" 
d="M177 814l-105 27q-17 3 -17 18v45q0 14 17 16l224 22q16 0 16 -19v-653q0 -181 178 -181q143 0 295 143v678q0 16 17 16h102q17 0 17 -16v-796l108 -27q17 -3 17 -16v-46q0 -15 -17 -17l-208 -16q-15 0 -16 19l-13 109q-100 -76 -179 -110q-78 -34 -172 -34
q-124 0 -194 68.5t-70 192.5v577zM338 1299h133q19 0 28 -4.5t24 -22.5l128 -165q26 -31 -1 -31h-85q-23 0 -44 21l-173 158q-48 44 -10 44z" />
    <glyph glyph-name="uacute" unicode="&#xfa;" horiz-adv-x="1101" 
d="M177 814l-105 27q-17 3 -17 18v45q0 14 17 16l224 22q16 0 16 -19v-653q0 -181 178 -181q143 0 295 143v678q0 16 17 16h102q17 0 17 -16v-796l108 -27q17 -3 17 -16v-46q0 -15 -17 -17l-208 -16q-15 0 -16 19l-13 109q-100 -76 -179 -110q-78 -34 -172 -34
q-124 0 -194 68.5t-70 192.5v577zM644 1299h133q15 0 15 -10q0 -12 -25 -34l-173 -158q-21 -21 -44 -21h-85q-13 0 -13 8q0 10 12 23l128 165q15 18 24 22.5t28 4.5z" />
    <glyph glyph-name="ucircumflex" unicode="&#xfb;" horiz-adv-x="1101" 
d="M177 814l-105 27q-17 3 -17 18v45q0 14 17 16l224 22q16 0 16 -19v-653q0 -181 178 -181q143 0 295 143v678q0 16 17 16h102q17 0 17 -16v-796l108 -27q17 -3 17 -16v-46q0 -15 -17 -17l-208 -16q-15 0 -16 19l-13 109q-100 -76 -179 -110q-78 -34 -172 -34
q-124 0 -194 68.5t-70 192.5v577zM478 1310h131q21 0 34 -17q2 -1 6 -6l8 -10l4 -5l124 -157q11 -14 11 -19q0 -7 -10 -11q-46 -20 -66 -20q-14 0 -41 24l-135 115l-135 -115q-27 -24 -41 -24q-18 0 -66 20q-10 4 -10 11q0 5 11 19l123 157q19 24 26 29.5t26 8.5z" />
    <glyph glyph-name="udieresis" unicode="&#xfc;" horiz-adv-x="1095" 
d="M177 814l-105 27q-17 3 -17 18v45q0 14 17 16l224 22q16 0 16 -19v-653q0 -181 178 -181q143 0 295 143v678q0 16 17 16h102q17 0 17 -16v-796l108 -27q17 -3 17 -16v-46q0 -15 -17 -17l-208 -16q-15 0 -16 19l-13 109q-100 -76 -179 -110q-78 -34 -172 -34
q-124 0 -194 68.5t-70 192.5v577zM756 1097q-24 -24 -59 -24t-59 24t-24 59t24 59t59 24t59 -24t24 -59t-24 -59zM454 1097q-24 -24 -59 -24t-59 24t-24 59t24 59t59 24t59 -24t24 -59t-24 -59z" />
    <glyph glyph-name="yacute" unicode="&#xfd;" horiz-adv-x="1014" 
d="M187 -330q124 -6 227 116q29 32 53 76q29 53 42 80q8 16 38 82h-8q-81 0 -122 16q-41 17 -70 61q-45 72 -100 279q-44 170 -106 436l-104 24q-17 3 -17 18v45q0 15 18 16l212 19q16 0 17 -10q12 -55 20 -103q4 -23 15 -83q50 -276 111 -486q29 -96 83 -127q20 -12 70 -12
q17 0 22 1q118 287 244 777q7 31 28 31h108q22 0 22 -14q0 -6 -14 -56q-128 -460 -301 -843q-6 -14 -17 -37.5t-15 -31.5q-3 -8 -32 -67q-22 -45 -38 -71q-15 -24 -42 -63q-24 -37 -49 -60q-70 -70 -118 -89q-73 -34 -153 -34q-49 0 -87 11q-9 1 -9 15l12 73q2 14 13 14
q26 -3 47 -3zM644 1299h133q15 0 15 -10q0 -12 -25 -34l-173 -158q-21 -21 -44 -21h-85q-13 0 -13 8q0 10 12 23l128 165q15 18 24 22.5t28 4.5z" />
    <glyph glyph-name="thorn" unicode="&#xfe;" horiz-adv-x="1083" 
d="M176 -400l1 1676l-105 27q-17 3 -17 18v45q0 14 17 16l224 23q16 0 16 -19v-559q156 120 303 120q373 0 373 -463q0 -243 -125 -377q-125 -132 -331 -132q-73 0 -170 23l-51 13v-411q0 -16 -16 -16h-103q-16 0 -16 16zM845 484q0 354 -271 354q-116 0 -262 -129v-595
q52 -13 60 -14q71 -16 139 -16q160 0 247 100t87 300z" />
    <glyph glyph-name="ydieresis" unicode="&#xff;" horiz-adv-x="1014" 
d="M187 -330q124 -6 227 116q29 32 53 76q29 53 42 80q8 16 38 82h-8q-81 0 -122 16q-41 17 -70 61q-45 72 -100 279q-44 170 -106 436l-104 24q-17 3 -17 18v45q0 15 18 16l212 19q16 0 17 -10q12 -55 20 -103q4 -23 15 -83q50 -276 111 -486q29 -96 83 -127q20 -12 70 -12
q17 0 22 1q118 287 244 777q7 31 28 31h108q22 0 22 -14q0 -6 -14 -56q-128 -460 -301 -843q-6 -14 -17 -37.5t-15 -31.5q-3 -8 -32 -67q-22 -45 -38 -71q-15 -24 -42 -63q-24 -37 -49 -60q-70 -70 -118 -89q-73 -34 -153 -34q-49 0 -87 11q-9 1 -9 15l12 73q2 14 13 14
q26 -3 47 -3zM760 1097q-24 -24 -59 -24t-59 24t-24 59t24 59t59 24t59 -24t24 -59t-24 -59zM458 1097q-24 -24 -59 -24t-59 24t-24 59t24 59t59 24t59 -24t24 -59t-24 -59z" />
    <glyph glyph-name="Amacron" unicode="&#x100;" horiz-adv-x="1118" 
d="M788 454l-217 711l-236 -711h453zM439 1158l-87 28q-16 6 -16 16v48q0 6 5 11t11 5h297q18 0 22 -16l396 -1228q2 -8 2 -9q0 -5 -5 -9t-10 -4h-118q-14 0 -18 16l-98 328h-519l-103 -328q-4 -16 -18 -16h-116q-16 0 -16 12q0 3 3 12zM362 1421v88q0 14 21 14h308
q16 0 19.5 -3t3.5 -10v-90q0 -14 -20 -14h-309q-14 0 -18.5 3t-4.5 12z" />
    <glyph glyph-name="amacron" unicode="&#x101;" horiz-adv-x="916" 
d="M763 546v-447q15 -8 99 -34q10 -3 12 -5t2 -9v-41q0 -8 -12 -9l-192 -20q-11 0 -14.5 4t-5.5 16l-15 115q-143 -140 -295 -140q-130 0 -200.5 70t-70.5 197q-1 186 192 246q75 23 177 29q54 2 90 2h99v93q0 115 -55.5 169t-167.5 54q-86 0 -210 -57l-20 -9l-8 -2
q-8 0 -9 6l-17 70q-3 11 7 18l17 10q43 26 123 52q78 25 153 25q230 0 296 -177q25 -63 25 -226zM629 214v208q-174 0 -240 -8q-89 -12 -134 -50t-45 -113q0 -73 51 -117q52 -43 129 -43q62 0 126.5 32.5t112.5 90.5zM276 1101v88q0 14 21 14h308q16 0 19.5 -3t3.5 -10v-90
q0 -14 -20 -14h-309q-14 0 -18.5 3t-4.5 12z" />
    <glyph glyph-name="Abreve" unicode="&#x102;" horiz-adv-x="1118" 
d="M788 454l-217 711l-236 -711h453zM439 1158l-87 28q-16 6 -16 16v48q0 6 5 11t11 5h297q18 0 22 -16l396 -1228q2 -8 2 -9q0 -5 -5 -9t-10 -4h-118q-14 0 -18 16l-98 328h-519l-103 -328q-4 -16 -18 -16h-116q-16 0 -16 12q0 3 3 12zM654 1570q7 13 13 13q3 0 9 -2
l72 -28q11 -5 11 -13q0 -11 -10 -32q-25 -54 -77.5 -88t-124.5 -34t-124.5 34t-77.5 88q-10 21 -10 32q0 8 11 13l72 28q6 2 9 2q6 0 13 -13q14 -31 42.5 -53t64.5 -22t64.5 22t42.5 53z" />
    <glyph glyph-name="abreve" unicode="&#x103;" horiz-adv-x="916" 
d="M763 546v-447q15 -8 99 -34q10 -3 12 -5t2 -9v-41q0 -8 -12 -9l-192 -20q-11 0 -14.5 4t-5.5 16l-15 115q-143 -140 -295 -140q-130 0 -200.5 70t-70.5 197q-1 186 192 246q75 23 177 29q54 2 90 2h99v93q0 115 -55.5 169t-167.5 54q-86 0 -210 -57l-20 -9l-8 -2
q-8 0 -9 6l-17 70q-3 11 7 18l17 10q43 26 123 52q78 25 153 25q230 0 296 -177q25 -63 25 -226zM629 214v208q-174 0 -240 -8q-89 -12 -134 -50t-45 -113q0 -73 51 -117q52 -43 129 -43q62 0 126.5 32.5t112.5 90.5zM551 1250q7 13 13 13q3 0 9 -2l72 -28q11 -5 11 -13
q0 -11 -10 -32q-25 -54 -77.5 -88t-124.5 -34t-124.5 34t-77.5 88q-10 21 -10 32q0 8 11 13l72 28q6 2 9 2q6 0 13 -13q14 -31 42.5 -53t64.5 -22t64.5 22t42.5 53z" />
    <glyph glyph-name="Aogonek" unicode="&#x104;" horiz-adv-x="1147" 
d="M439 1158l-87 28q-16 6 -16 16v48q0 16 16 16h297q18 0 22 -16l396 -1228q2 -8 2 -10q0 -12 -15 -12h-80q-47 -56 -76 -115q-32 -66 -32 -101q0 -43 24.5 -65.5t66.5 -22.5q23 0 53 11q4 1 13.5 5.5t12.5 4.5q7 0 12 -11l23 -54q2 -6 2 -8q0 -6 -7 -12q-70 -50 -160 -50
q-69 0 -121 40q-52 39 -52 119q0 69 54 154q55 87 121 153l-88 296h-519l-103 -328q-4 -16 -18 -16h-116q-15 0 -15 13q0 3 2 11zM788 454l-217 711l-236 -711h453z" />
    <glyph glyph-name="aogonek" unicode="&#x105;" horiz-adv-x="916" 
d="M866 -368q-70 -50 -165 -50q-96 0 -147 64q-29 38 -29 92q0 62 36 135q37 73 90 135l-14 108q-143 -140 -295 -140q-130 0 -200.5 70t-70.5 197q-1 186 192 246q75 23 177 29q54 2 90 2h99v93q0 115 -55.5 169t-167.5 54q-82 0 -210 -57l-12 -5q-12 -5 -16 -5q-8 0 -10 9
l-15 63q-1 3 -1 8q0 7 14 16q47 29 121 56q74 26 152 28h13q230 0 296 -177q25 -63 25 -226v-447q15 -8 99 -34q10 -3 12 -5t2 -9v-41q0 -8 -12 -9l-121 -12q-39 -47 -63 -107q-24 -58 -24 -98q0 -43 26.5 -65.5t69.5 -22.5q28 0 58 11q4 1 13.5 5.5t12.5 4.5q7 0 12 -11
l23 -54q2 -6 2 -7q0 -7 -7 -13zM629 214v208q-174 0 -240 -8q-89 -12 -134 -50t-45 -113q0 -73 51 -117q52 -43 129 -43q62 0 126.5 32.5t112.5 90.5z" />
    <glyph glyph-name="Cacute" unicode="&#x106;" horiz-adv-x="1038" 
d="M701 87q57 0 120 11q57 11 91 23l31 11l8 2q9 0 14 -12l22 -64l2 -8q0 -6 -10 -12q-6 -5 -48 -22q-28 -11 -58 -18q-73 -22 -178 -22q-292 0 -447 166.5t-155 483.5q0 189 73 339.5t210.5 237.5t316.5 87q73 0 145 -14q66 -13 102 -28l31 -14q16 -7 16 -21v-180
q0 -16 -17 -16h-48q-10 0 -16 16l-46 123q-78 24 -154 24q-139 0 -248 -74q-106 -73 -162 -196q-55 -120 -55 -272q0 -259 113 -405t347 -146zM739 1612h133q15 0 15 -10q0 -12 -25 -34l-173 -158q-21 -21 -44 -21h-85q-13 0 -13 8q0 10 12 23l128 165q15 18 24 22.5t28 4.5
z" />
    <glyph glyph-name="cacute" unicode="&#x107;" horiz-adv-x="882" 
d="M730 719l-29 108q-67 16 -163 16q-136 0 -218 -105q-82 -104 -82 -275q0 -178 86 -276.5t242 -98.5q101 0 218 35q12 4 18 4q7 0 9.5 -4t4.5 -16l11 -65q0 -10 -12 -14q-125 -51 -259 -51q-225 0 -343 127t-118 359q0 218 122 352t321 134q98 0 269 -51q12 -3 12 -17
l-13 -162q-3 -17 -17 -17h-43q-11 0 -16 17zM621 1299h133q15 0 15 -10q0 -12 -25 -34l-173 -158q-21 -21 -44 -21h-85q-13 0 -13 8q0 10 12 23l128 165q15 18 24 22.5t28 4.5z" />
    <glyph glyph-name="Ccircumflex" unicode="&#x108;" horiz-adv-x="1038" 
d="M701 87q57 0 120 11q57 11 91 23l31 11l8 2q9 0 14 -12l22 -64l2 -8q0 -6 -10 -12q-6 -5 -48 -22q-28 -11 -58 -18q-73 -22 -178 -22q-292 0 -447 166.5t-155 483.5q0 189 73 339.5t210.5 237.5t316.5 87q73 0 145 -14q66 -13 102 -28l31 -14q16 -7 16 -21v-180
q0 -16 -17 -16h-48q-10 0 -16 16l-46 123q-78 24 -154 24q-139 0 -248 -74q-106 -73 -162 -196q-55 -120 -55 -272q0 -259 113 -405t347 -146zM579 1628h131q21 0 34 -17q2 -1 6 -6l8 -10l4 -5l124 -157q11 -14 11 -19q0 -7 -10 -11q-46 -20 -66 -20q-14 0 -41 24l-135 115
l-135 -115q-27 -24 -41 -24q-18 0 -66 20q-10 4 -10 11q0 5 11 19l123 157q19 24 26 29.5t26 8.5z" />
    <glyph glyph-name="ccircumflex" unicode="&#x109;" horiz-adv-x="882" 
d="M458 1310h131q21 0 34 -17q2 -1 6 -6l8 -10l4 -5l124 -157q11 -14 11 -19q0 -7 -10 -11q-46 -20 -66 -20q-14 0 -41 24l-135 115l-135 -115q-27 -24 -41 -24q-18 0 -66 20q-10 4 -10 11q0 5 11 19l123 157q19 24 26 29.5t26 8.5zM730 719l-29 108q-67 16 -163 16
q-136 0 -218 -105q-82 -104 -82 -275q0 -178 86 -276.5t242 -98.5q101 0 218 35q12 4 18 4q7 0 9.5 -4t4.5 -16l11 -65q0 -10 -12 -14q-125 -51 -259 -51q-225 0 -343 127t-118 359q0 218 122 352t321 134q98 0 269 -51q12 -3 12 -17l-13 -162q-3 -17 -17 -17h-43
q-11 0 -16 17z" />
    <glyph glyph-name="Cdotaccent" unicode="&#x10a;" horiz-adv-x="1038" 
d="M701 87q57 0 120 11q57 11 91 23l31 11l8 2q9 0 14 -12l22 -64l2 -8q0 -6 -10 -12q-6 -5 -48 -22q-28 -11 -58 -18q-73 -22 -178 -22q-292 0 -447 166.5t-155 483.5q0 189 73 339.5t210.5 237.5t316.5 87q73 0 145 -14q66 -13 102 -28l31 -14q16 -7 16 -21v-180
q0 -16 -17 -16h-48q-10 0 -16 16l-46 123q-78 24 -154 24q-139 0 -248 -74q-106 -73 -162 -196q-55 -120 -55 -272q0 -259 113 -405t347 -146zM641 1586q39 0 65.5 -26.5t26.5 -64.5t-26.5 -64.5t-65.5 -26.5q-38 0 -64.5 26.5t-26.5 64.5t26.5 64.5t64.5 26.5z" />
    <glyph glyph-name="cdotaccent" unicode="&#x10b;" horiz-adv-x="882" 
d="M730 719l-29 108q-67 16 -163 16q-136 0 -218 -105q-82 -104 -82 -275q0 -178 86 -276.5t242 -98.5q101 0 218 35q12 4 18 4q7 0 9.5 -4t4.5 -16l11 -65q0 -10 -12 -14q-125 -51 -259 -51q-225 0 -343 127t-118 359q0 218 122 352t321 134q98 0 269 -51q12 -3 12 -17
l-13 -162q-3 -17 -17 -17h-43q-11 0 -16 17zM517 1258q39 0 65.5 -26.5t26.5 -64.5t-26.5 -64.5t-65.5 -26.5q-38 0 -64.5 26.5t-26.5 64.5t26.5 64.5t64.5 26.5z" />
    <glyph glyph-name="Ccaron" unicode="&#x10c;" horiz-adv-x="1038" 
d="M701 87q57 0 120 11q57 11 91 23l31 11l8 2q9 0 14 -12l22 -64l2 -8q0 -6 -10 -12q-6 -5 -48 -22q-28 -11 -58 -18q-73 -22 -178 -22q-292 0 -447 166.5t-155 483.5q0 189 73 339.5t210.5 237.5t316.5 87q73 0 145 -14q66 -13 102 -28l31 -14q16 -7 16 -21v-180
q0 -16 -17 -16h-48q-10 0 -16 16l-46 123q-78 24 -154 24q-139 0 -248 -74q-106 -73 -162 -196q-55 -120 -55 -272q0 -259 113 -405t347 -146zM716 1389h-131q-14 0 -22.5 6t-24.5 26l-129 163q-11 14 -11 19q0 7 10 11q46 20 66 20q14 0 41 -24l135 -115l135 115
q27 24 41 24q18 0 66 -20q10 -4 10 -11q0 -5 -11 -19l-123 -157q-19 -24 -26 -29.5t-26 -8.5z" />
    <glyph glyph-name="ccaron" unicode="&#x10d;" horiz-adv-x="882" 
d="M730 719l-29 108q-67 16 -163 16q-136 0 -218 -105q-82 -104 -82 -275q0 -178 86 -276.5t242 -98.5q101 0 218 35q12 4 18 4q7 0 9.5 -4t4.5 -16l11 -65q0 -10 -12 -14q-125 -51 -259 -51q-225 0 -343 127t-118 359q0 218 122 352t321 134q98 0 269 -51q12 -3 12 -17
l-13 -162q-3 -17 -17 -17h-43q-11 0 -16 17zM576 1076h-131q-14 0 -22.5 6t-24.5 26l-129 163q-11 14 -11 19q0 7 10 11q46 20 66 20q14 0 41 -24l135 -115l135 115q27 24 41 24q18 0 66 -20q10 -4 10 -11q0 -5 -11 -19l-123 -157q-19 -24 -26 -29.5t-26 -8.5z" />
    <glyph glyph-name="Dcaron" unicode="&#x10e;" horiz-adv-x="1205" 
d="M333 1156l2 -1057q43 -7 129 -7q222 0 361 150q139 149 139 389q0 124 -24 216q-25 109 -96 183q-116 126 -374 126h-137zM193 23v1118l-106 44q-16 6 -16 16v48q0 17 16 17h395q630 0 630 -631q0 -295 -174 -474q-172 -178 -470 -178q-76 0 -132 4q-62 3 -90 6l-27 3
q-9 0 -17.5 7.5t-8.5 19.5zM576 1389h-131q-14 0 -22.5 6t-24.5 26l-129 163q-11 14 -11 19q0 7 10 11q46 20 66 20q14 0 41 -24l135 -115l135 115q27 24 41 24q18 0 66 -20q10 -4 10 -11q0 -5 -11 -19l-123 -157q-19 -24 -26 -29.5t-26 -8.5z" />
    <glyph glyph-name="dcaron" unicode="&#x10f;" horiz-adv-x="1224" 
d="M238 462q0 -147 53 -254q62 -120 218 -120q117 0 262 129v595q-52 13 -60 14q-71 16 -139 16q-158 0 -247 -89q-87 -89 -87 -291zM769 1276l-105 27q-17 3 -17 18v45q0 16 17 16l224 23q16 0 16 -19v-1272l108 -27q17 -3 17 -16v-46q0 -14 -17 -17l-209 -16q-19 0 -20 18
l-10 91q-155 -122 -305 -122q-242 3 -327 209q-46 112 -46 274q0 242 123 365q124 124 333 124q98 0 218 -34v359zM1016 1114l46 271q3 15 21 15h122q14 0 14 -11q0 -2 -2 -10l-101 -284q-8 -20 -21 -20h-69q-13 0 -13 15q0 6 3 24z" />
    <glyph glyph-name="Dcroat" unicode="&#x110;" horiz-adv-x="1207" 
d="M195 23v565h-112q-12 0 -12 12v84q0 14 12 14h112v443l-106 44q-16 6 -16 16v48q0 17 16 17h395q630 0 630 -631q0 -295 -174 -474q-172 -178 -470 -178q-76 0 -132 4q-62 3 -90 6l-27 3q-9 0 -17.5 7.5t-8.5 19.5zM335 1156l1 -458h198q12 0 12 -14v-80q0 -16 -12 -16
h-198v-489q45 -7 130 -7q221 0 361 150q139 149 139 389q0 128 -23 216q-28 112 -97 183q-116 126 -374 126h-137z" />
    <glyph glyph-name="dslash" unicode="&#x111;" horiz-adv-x="1084" 
d="M769 1276l-105 27q-17 3 -17 18v45q0 16 17 16l224 23q16 0 16 -19v-218h113q12 0 12 -14v-80q0 -16 -12 -16h-113v-944l108 -27q17 -5 17 -16v-46q0 -14 -17 -17l-209 -16q-19 0 -20 18l-10 91q-155 -122 -305 -122q-242 3 -327 209q-46 112 -46 274q0 242 123 365
q124 124 333 124q98 0 218 -34v141h-199q-12 0 -12 12v84q0 14 12 14h199v108zM238 462q0 -147 53 -254q62 -120 218 -120q117 0 262 129v595q-52 13 -60 14q-71 16 -139 16q-158 0 -247 -89q-87 -89 -87 -291z" />
    <glyph glyph-name="Emacron" unicode="&#x112;" horiz-adv-x="966" 
d="M87 1266h793q16 0 21 -5t5 -21v-58q0 -16 -5 -21t-21 -5h-546v-424h400q16 0 21 -5t5 -21v-58q0 -16 -5 -21t-21 -5h-400v-512h546q16 0 21 -5t5 -21v-58q0 -16 -5 -21t-21 -5h-661q-17 0 -21.5 5t-4.5 21v1115l-106 44q-16 6 -16 16v48q0 17 16 17zM325 1421v88
q0 14 21 14h308q16 0 19.5 -3t3.5 -10v-90q0 -14 -20 -14h-309q-14 0 -18.5 3t-4.5 12z" />
    <glyph glyph-name="emacron" unicode="&#x113;" horiz-adv-x="970" 
d="M95 472q0 217 114 349q114 133 309 133q182 0 272 -109t90 -341v-21q0 -34 -18 -34h-623q17 -360 349 -360q117 0 234 47q12 5 16 5q7 0 10.5 -3t5.5 -14l13 -63q0 -11 -12 -18q-138 -67 -293 -67q-218 0 -342 130q-125 131 -125 366zM516 840q-114 0 -186.5 -75
t-87.5 -207h499v26q0 121 -61 188.5t-164 67.5zM326 1101v88q0 14 21 14h308q16 0 19.5 -3t3.5 -10v-90q0 -14 -20 -14h-309q-14 0 -18.5 3t-4.5 12z" />
    <glyph glyph-name="Ebreve" unicode="&#x114;" horiz-adv-x="966" 
d="M87 1266h793q16 0 21 -5t5 -21v-58q0 -16 -5 -21t-21 -5h-546v-424h400q16 0 21 -5t5 -21v-58q0 -16 -5 -21t-21 -5h-400v-512h546q16 0 21 -5t5 -21v-58q0 -16 -5 -21t-21 -5h-661q-17 0 -21.5 5t-4.5 21v1115l-106 44q-16 6 -16 16v48q0 17 16 17zM654 1570q7 13 13 13
q3 0 9 -2l72 -28q11 -5 11 -13q0 -11 -10 -32q-25 -54 -77.5 -88t-124.5 -34t-124.5 34t-77.5 88q-10 21 -10 32q0 8 11 13l72 28q6 2 9 2q6 0 13 -13q14 -31 42.5 -53t64.5 -22t64.5 22t42.5 53z" />
    <glyph glyph-name="ebreve" unicode="&#x115;" horiz-adv-x="970" 
d="M95 472q0 217 114 349q114 133 309 133q182 0 272 -109t90 -341v-21q0 -34 -18 -34h-623q17 -360 349 -360q117 0 234 47q12 5 16 5q7 0 10.5 -3t5.5 -14l13 -63q0 -11 -12 -18q-138 -67 -293 -67q-218 0 -342 130q-125 131 -125 366zM516 840q-114 0 -186.5 -75
t-87.5 -207h499v26q0 121 -61 188.5t-164 67.5zM631 1250q7 13 13 13q3 0 9 -2l72 -28q11 -5 11 -13q0 -11 -10 -32q-25 -54 -77.5 -88t-124.5 -34t-124.5 34t-77.5 88q-10 21 -10 32q0 8 11 13l72 28q6 2 9 2q6 0 13 -13q14 -31 42.5 -53t64.5 -22t64.5 22t42.5 53z" />
    <glyph glyph-name="Edotaccent" unicode="&#x116;" horiz-adv-x="966" 
d="M87 1266h793q16 0 21 -5t5 -21v-58q0 -16 -5 -21t-21 -5h-546v-424h400q16 0 21 -5t5 -21v-58q0 -16 -5 -21t-21 -5h-400v-512h546q16 0 21 -5t5 -21v-58q0 -16 -5 -21t-21 -5h-661q-17 0 -21.5 5t-4.5 21v1115l-106 44q-16 6 -16 16v48q0 17 16 17zM521 1586
q39 0 65.5 -26.5t26.5 -64.5t-26.5 -64.5t-65.5 -26.5q-38 0 -64.5 26.5t-26.5 64.5t26.5 64.5t64.5 26.5z" />
    <glyph glyph-name="edotaccent" unicode="&#x117;" horiz-adv-x="970" 
d="M95 472q0 217 114 349q114 133 309 133q182 0 272 -109t90 -341v-21q0 -34 -18 -34h-623q17 -360 349 -360q117 0 234 47q12 5 16 5q7 0 10.5 -3t5.5 -14l13 -63q0 -11 -12 -18q-138 -67 -293 -67q-218 0 -342 130q-125 131 -125 366zM516 840q-114 0 -186.5 -75
t-87.5 -207h499v26q0 121 -61 188.5t-164 67.5zM507 1258q39 0 65.5 -26.5t26.5 -64.5t-26.5 -64.5t-65.5 -26.5q-38 0 -64.5 26.5t-26.5 64.5t26.5 64.5t64.5 26.5z" />
    <glyph glyph-name="Eogonek" unicode="&#x118;" horiz-adv-x="966" 
d="M902 -368q-70 -50 -165 -50q-96 0 -147 64q-29 38 -29 92q0 62 34 131q32 65 85 131h-461q-17 0 -21.5 5t-4.5 21v1115l-106 44q-16 6 -16 16v48q0 17 16 17h793q16 0 21 -5t5 -21v-58q0 -16 -5 -21t-21 -5h-546v-424h400q16 0 21 -5t5 -21v-58q0 -16 -5 -21t-21 -5h-400
v-512h546q16 0 21 -5t5 -21v-58q0 -16 -5 -21t-21 -5h-91q-43 -47 -70 -111q-27 -63 -27 -105q0 -43 26.5 -65.5t69.5 -22.5q28 0 58 11q4 1 13.5 5.5t12.5 4.5q7 0 12 -11l23 -54q2 -6 2 -7q0 -7 -7 -13z" />
    <glyph glyph-name="eogonek" unicode="&#x119;" horiz-adv-x="970" 
d="M858 -368q-70 -50 -165 -50q-96 0 -147 64q-29 38 -29 92q0 108 105 241q-30 -3 -61 -3q-218 0 -342 130q-125 131 -125 366q0 217 114 349q114 133 309 133q182 0 272 -109t90 -341v-21q0 -34 -18 -34h-623q16 -360 349 -360q117 0 234 47q12 5 16 5q13 0 15 -15l14 -69
q0 -8 -12 -14q-52 -25 -99 -39q-47 -49 -77 -113t-30 -107t26.5 -65.5t69.5 -22.5q28 0 58 11q4 1 13.5 5.5t12.5 4.5q7 0 12 -11l23 -54q2 -6 2 -8q0 -6 -7 -12zM515 840q-114 0 -186.5 -75t-87.5 -207h499v26q0 121 -61 188.5t-164 67.5z" />
    <glyph glyph-name="Ecaron" unicode="&#x11a;" horiz-adv-x="966" 
d="M87 1266h793q16 0 21 -5t5 -21v-58q0 -16 -5 -21t-21 -5h-546v-424h400q16 0 21 -5t5 -21v-58q0 -16 -5 -21t-21 -5h-400v-512h546q16 0 21 -5t5 -21v-58q0 -16 -5 -21t-21 -5h-661q-17 0 -21.5 5t-4.5 21v1115l-106 44q-16 6 -16 16v48q0 17 16 17zM606 1389h-131
q-14 0 -22.5 6t-24.5 26l-129 163q-11 14 -11 19q0 7 10 11q46 20 66 20q14 0 41 -24l135 -115l135 115q27 24 41 24q18 0 66 -20q10 -4 10 -11q0 -5 -11 -19l-123 -157q-19 -24 -26 -29.5t-26 -8.5z" />
    <glyph glyph-name="ecaron" unicode="&#x11b;" horiz-adv-x="970" 
d="M95 472q0 217 114 349q114 133 309 133q182 0 272 -109t90 -341v-21q0 -34 -18 -34h-623q17 -360 349 -360q117 0 234 47q12 5 16 5q7 0 10.5 -3t5.5 -14l13 -63q0 -11 -12 -18q-138 -67 -293 -67q-218 0 -342 130q-125 131 -125 366zM516 840q-114 0 -186.5 -75
t-87.5 -207h499v26q0 121 -61 188.5t-164 67.5zM569 1076h-131q-14 0 -22.5 6t-24.5 26l-129 163q-11 14 -11 19q0 7 10 11q46 20 66 20q14 0 41 -24l135 -115l135 115q27 24 41 24q18 0 66 -20q10 -4 10 -11q0 -5 -11 -19l-123 -157q-19 -24 -26 -29.5t-26 -8.5z" />
    <glyph glyph-name="Gcircumflex" unicode="&#x11c;" horiz-adv-x="1161" 
d="M940 1031l-44 119q-47 14 -65 18q-11 3 -27 6q-28 6 -81 6q-115 0 -208 -43.5t-153 -121.5q-121 -155 -121 -392q0 -230 99 -378q109 -158 340 -158q150 0 224 36v377h-204q-16 0 -16 16v78q0 6 5 11t11 5h329q6 0 11 -5t5 -11v-492q-2 -28 -10.5 -38.5t-28.5 -20.5
q-127 -67 -312 -67q-155 0 -273 48t-189 137q-139 175 -139 458q0 197 75 347.5t218 236.5q144 87 339 87q73 0 146 -14q66 -13 102 -28l32 -15q16 -7 16 -22v-180q0 -16 -17 -16h-48q-10 0 -16 16zM589 1628h131q21 0 34 -17q2 -1 6 -6l8 -10l4 -5l124 -157q11 -14 11 -19
q0 -7 -10 -11q-46 -20 -66 -20q-14 0 -41 24l-135 115l-135 -115q-27 -24 -41 -24q-18 0 -66 20q-10 4 -10 11q0 5 11 19l123 157q19 24 26 29.5t26 8.5z" />
    <glyph glyph-name="gcircumflex" unicode="&#x11d;" horiz-adv-x="1016" 
d="M238 462q0 -147 53 -254q62 -120 218 -120q117 0 262 129v594q-121 31 -199 31q-158 0 -247 -89q-87 -89 -87 -291zM507 -440q-131 0 -265 36q-30 8 -42 15q-11 5 -11 15q0 6 1 9l14 61q3 15 15 15l10 -2l39 -10q104 -27 243 -27q119 0 176 51q32 28 52 77q18 43 23 86
q5 45 8 99q2 86 2 115q-151 -121 -304 -121q-242 3 -327 209q-46 112 -46 274q0 242 123 365q124 124 333 124q133 0 355 -76v-775q0 -88 -3 -148q-6 -113 -32.5 -187t-86.5 -128q-89 -77 -277 -77zM464 1310h131q21 0 34 -17q2 -1 6 -6l8 -10l4 -5l124 -157q11 -14 11 -19
q0 -7 -10 -11q-46 -20 -66 -20q-14 0 -41 24l-135 115l-135 -115q-27 -24 -41 -24q-18 0 -66 20q-10 4 -10 11q0 5 11 19l123 157q19 24 26 29.5t26 8.5z" />
    <glyph glyph-name="Gbreve" unicode="&#x11e;" horiz-adv-x="1161" 
d="M940 1031l-44 119q-47 14 -65 18q-11 3 -27 6q-28 6 -81 6q-115 0 -208 -43.5t-153 -121.5q-121 -155 -121 -392q0 -230 99 -378q109 -158 340 -158q150 0 224 36v377h-204q-16 0 -16 16v78q0 6 5 11t11 5h329q6 0 11 -5t5 -11v-492q-2 -28 -10.5 -38.5t-28.5 -20.5
q-127 -67 -312 -67q-155 0 -273 48t-189 137q-139 175 -139 458q0 197 75 347.5t218 236.5q144 87 339 87q73 0 146 -14q66 -13 102 -28l32 -15q16 -7 16 -22v-180q0 -16 -17 -16h-48q-10 0 -16 16zM753 1570q7 13 13 13q3 0 9 -2l72 -28q11 -5 11 -13q0 -11 -10 -32
q-25 -54 -77.5 -88t-124.5 -34t-124.5 34t-77.5 88q-10 21 -10 32q0 8 11 13l72 28q6 2 9 2q6 0 13 -13q14 -31 42.5 -53t64.5 -22t64.5 22t42.5 53z" />
    <glyph glyph-name="gbreve" unicode="&#x11f;" horiz-adv-x="1016" 
d="M238 462q0 -147 53 -254q62 -120 218 -120q117 0 262 129v594q-121 31 -199 31q-158 0 -247 -89q-87 -89 -87 -291zM507 -440q-131 0 -265 36q-30 8 -42 15q-11 5 -11 15q0 6 1 9l14 61q3 15 15 15l10 -2l39 -10q104 -27 243 -27q119 0 176 51q32 28 52 77q18 43 23 86
q5 45 8 99q2 86 2 115q-151 -121 -304 -121q-242 3 -327 209q-46 112 -46 274q0 242 123 365q124 124 333 124q133 0 355 -76v-775q0 -88 -3 -148q-6 -113 -32.5 -187t-86.5 -128q-89 -77 -277 -77zM652 1250q7 13 13 13q3 0 9 -2l72 -28q11 -5 11 -13q0 -11 -10 -32
q-25 -54 -77.5 -88t-124.5 -34t-124.5 34t-77.5 88q-10 21 -10 32q0 8 11 13l72 28q6 2 9 2q6 0 13 -13q14 -31 42.5 -53t64.5 -22t64.5 22t42.5 53z" />
    <glyph glyph-name="Gdotaccent" unicode="&#x120;" horiz-adv-x="1161" 
d="M940 1031l-44 119q-47 14 -65 18q-11 3 -27 6q-28 6 -81 6q-115 0 -208 -43.5t-153 -121.5q-121 -155 -121 -392q0 -230 99 -378q109 -158 340 -158q150 0 224 36v377h-204q-16 0 -16 16v78q0 6 5 11t11 5h329q6 0 11 -5t5 -11v-492q-2 -28 -10.5 -38.5t-28.5 -20.5
q-127 -67 -312 -67q-155 0 -273 48t-189 137q-139 175 -139 458q0 197 75 347.5t218 236.5q144 87 339 87q73 0 146 -14q66 -13 102 -28l32 -15q16 -7 16 -22v-180q0 -16 -17 -16h-48q-10 0 -16 16zM651 1586q39 0 65.5 -26.5t26.5 -64.5t-26.5 -64.5t-65.5 -26.5
q-38 0 -64.5 26.5t-26.5 64.5t26.5 64.5t64.5 26.5z" />
    <glyph glyph-name="gdotaccent" unicode="&#x121;" horiz-adv-x="1016" 
d="M238 462q0 -147 53 -254q62 -120 218 -120q117 0 262 129v594q-121 31 -199 31q-158 0 -247 -89q-87 -89 -87 -291zM507 -440q-131 0 -265 36q-30 8 -42 15q-11 5 -11 15q0 6 1 9l14 61q3 15 15 15l10 -2l39 -10q104 -27 243 -27q119 0 176 51q32 28 52 77q18 43 23 86
q5 45 8 99q2 86 2 115q-151 -121 -304 -121q-242 3 -327 209q-46 112 -46 274q0 242 123 365q124 124 333 124q133 0 355 -76v-775q0 -88 -3 -148q-6 -113 -32.5 -187t-86.5 -128q-89 -77 -277 -77zM545 1258q39 0 65.5 -26.5t26.5 -64.5t-26.5 -64.5t-65.5 -26.5
q-38 0 -64.5 26.5t-26.5 64.5t26.5 64.5t64.5 26.5z" />
    <glyph glyph-name="Gcommaaccent" unicode="&#x122;" horiz-adv-x="1161" 
d="M940 1031l-44 119q-47 14 -65 18q-11 3 -27 6q-28 6 -81 6q-115 0 -208 -43.5t-153 -121.5q-121 -155 -121 -392q0 -230 99 -378q109 -158 340 -158q150 0 224 36v377h-204q-16 0 -16 16v78q0 6 5 11t11 5h329q6 0 11 -5t5 -11v-492q-2 -28 -10.5 -38.5t-28.5 -20.5
q-127 -67 -312 -67q-155 0 -273 48t-189 137q-139 175 -139 458q0 197 75 347.5t218 236.5q144 87 339 87q73 0 146 -14q66 -13 102 -28l32 -15q16 -7 16 -22v-180q0 -16 -17 -16h-48q-10 0 -16 16zM558 -407l46 271q3 15 21 15h122q14 0 14 -11q0 -2 -2 -10l-101 -284
q-8 -20 -21 -20h-69q-13 0 -13 15q0 6 3 24z" />
    <glyph glyph-name="gcommaaccent" unicode="&#x123;" horiz-adv-x="1016" 
d="M238 462q0 -147 53 -254q62 -120 218 -120q117 0 262 129v594q-121 31 -199 31q-158 0 -247 -89q-87 -89 -87 -291zM507 -440q-131 0 -265 36q-30 8 -42 15q-11 5 -11 16q0 1 0.5 2.5t1 4.5t0.5 6l16 58q5 11 13 11q5 0 8 -1l40 -9q117 -27 243 -27q119 0 176 51
q32 28 52 77q18 43 23 86q5 45 8 99q2 86 2 115q-151 -121 -304 -121q-242 3 -327 209q-46 112 -46 274q0 242 123 365q124 124 333 124q133 0 355 -76v-775q0 -88 -3 -148q-6 -113 -32.5 -187t-86.5 -128q-89 -77 -277 -77zM675 1362l-46 -271q-3 -15 -21 -15h-122
q-14 0 -14 11q0 2 2 10l101 284q8 20 21 20h69q13 0 13 -15q0 -6 -3 -24z" />
    <glyph glyph-name="Hcircumflex" unicode="&#x124;" horiz-adv-x="1220" 
d="M579 1628h131q21 0 34 -17q2 -1 6 -6l8 -10l4 -5l124 -157q11 -14 11 -19q0 -7 -10 -11q-46 -20 -66 -20q-14 0 -41 24l-135 115l-135 -115q-27 -24 -41 -24q-18 0 -66 20q-10 4 -10 11q0 5 11 19l123 157q19 24 26 29.5t26 8.5zM199 1151l-112 34q-16 4 -16 16v48
q0 17 16 17h225q16 0 22 -6t6 -23v-586h590v589q0 16 5 21t21 5h89q17 0 21.5 -5t4.5 -21v-1214q0 -16 -4.5 -21t-21.5 -5h-89q-16 0 -21 5t-5 21v514h-590v-514q0 -16 -5 -21t-21 -5h-89q-17 0 -21.5 5t-4.5 21v1125z" />
    <glyph glyph-name="hcircumflex" unicode="&#x125;" horiz-adv-x="1086" 
d="M178 1276l-106 27q-17 3 -17 18v45q0 14 17 16l225 23q16 0 16 -19v-575q95 73 176 106t168 33q124 0 194 -68.5t70 -192.5v-575l108 -27q17 -5 17 -16v-46q0 -14 -17 -17l-226 -17q-17 0 -17 18v647q0 181 -178 181q-143 0 -295 -143v-678q0 -7 -5.5 -11.5t-11.5 -4.5
h-101q-17 0 -17 16v1260zM158 1730h131q21 0 34 -17q2 -1 6 -6l8 -10l4 -5l124 -157q11 -14 11 -19q0 -7 -10 -11q-46 -20 -66 -20q-14 0 -41 24l-135 115l-135 -115q-27 -24 -41 -24q-18 0 -66 20q-10 4 -10 11q0 5 11 19l123 157q19 24 26 29.5t26 8.5z" />
    <glyph glyph-name="Hbar" unicode="&#x126;" horiz-adv-x="1258" 
d="M199 1151l-112 34q-16 4 -16 16v48q0 17 16 17h225q16 0 22 -6t6 -23v-256h590v259q0 16 5 21t21 5h89q17 0 21.5 -5t4.5 -21v-259h108q30 0 30 -21v-59q0 -24 -28 -24h-110v-851q0 -16 -4.5 -21t-21.5 -5h-89q-16 0 -21 5t-5 21v514h-590v-514q0 -16 -5 -21t-21 -5h-89
q-17 0 -21.5 5t-4.5 21v851h-98q-30 0 -30 26v55q0 23 28 23h100v170zM340 651h590v226h-590v-226z" />
    <glyph glyph-name="hbar" unicode="&#x127;" horiz-adv-x="1086" 
d="M178 1276l-106 27q-17 3 -17 18v45q0 14 17 16l225 23q16 0 16 -19v-288h211q12 0 12 -14v-80q0 -16 -12 -16h-211v-177q95 73 176 106t168 33q124 0 194 -68.5t70 -192.5v-575l108 -27q17 -5 17 -16v-46q0 -14 -17 -17l-226 -17q-15 0 -17 18v647q0 181 -178 181
q-143 0 -295 -143v-678q0 -7 -5.5 -11.5t-11.5 -4.5h-101q-17 0 -17 16v972h-105q-12 0 -12 12v84q0 14 12 14h105v178z" />
    <glyph glyph-name="Itilde" unicode="&#x128;" horiz-adv-x="650" 
d="M405 1385q-39 0 -92 33t-75 33q-33 0 -95 -56q-13 -12 -27 2q-25 30 -32 48l-2 8q0 5 3 13q55 105 160 105q40 0 93 -32t77 -32q37 0 93 54q14 14 25 0q18 -24 27 -40q8 -14 8 -20q0 -5 -3 -11q-26 -49 -70 -77t-90 -28zM488 1184l-103 -20v-1062l103 -20q18 -3 22 -7.5
t4 -20.5v-28q0 -16 -5 -21t-21 -5h-348q-16 0 -21 5t-5 21v28q0 16 4 20.5t22 7.5l104 20v1062l-104 20q-18 3 -22 7.5t-4 20.5v28q0 16 5 21t21 5h348q16 0 21 -5t5 -21v-28q0 -16 -4.5 -20.5t-21.5 -7.5z" />
    <glyph glyph-name="itilde" unicode="&#x129;" horiz-adv-x="503" 
d="M309 1072q-39 0 -92 33t-75 33q-33 0 -95 -56q-8 -6 -13 -6q-6 0 -14 8q-25 30 -32 48l-2 8q0 6 3 13q55 105 160 105q40 0 93 -32t77 -32q37 0 93 54q14 14 25 0q18 -24 27 -40q8 -14 8 -20q0 -5 -3 -11q-26 -49 -70 -77t-90 -28zM183 9v806l-106 27q-17 3 -17 18v45
q0 14 17 16l225 23q16 0 16 -19v-811l108 -27q17 -3 17 -16v-46q0 -15 -17 -17l-226 -17q-17 0 -17 18z" />
    <glyph glyph-name="Imacron" unicode="&#x12a;" horiz-adv-x="608" 
d="M478 1184l-103 -20v-1062l103 -20q18 -3 22 -7.5t4 -20.5v-28q0 -16 -5 -21t-21 -5h-348q-16 0 -21 5t-5 21v28q0 16 4 20.5t22 7.5l104 20v1062l-104 20q-18 3 -22 7.5t-4 20.5v28q0 16 5 21t21 5h348q16 0 21 -5t5 -21v-28q0 -16 -4.5 -20.5t-21.5 -7.5zM132 1421v88
q0 14 21 14h308q16 0 19.5 -3t3.5 -10v-90q0 -14 -20 -14h-309q-14 0 -18.5 3t-4.5 12z" />
    <glyph glyph-name="imacron" unicode="&#x12b;" horiz-adv-x="503" 
d="M183 9v806l-106 27q-17 3 -17 18v45q0 14 17 16l225 23q16 0 16 -19v-811l108 -27q17 -3 17 -16v-46q0 -15 -17 -17l-226 -17q-17 0 -17 18zM27 1101v88q0 14 21 14h308q16 0 19.5 -3t3.5 -10v-90q0 -14 -20 -14h-309q-14 0 -18.5 3t-4.5 12z" />
    <glyph glyph-name="Ibreve" unicode="&#x12c;" horiz-adv-x="608" 
d="M478 1184l-103 -20v-1062l103 -20q18 -3 22 -7.5t4 -20.5v-28q0 -16 -5 -21t-21 -5h-348q-16 0 -21 5t-5 21v28q0 16 4 20.5t22 7.5l104 20v1062l-104 20q-18 3 -22 7.5t-4 20.5v28q0 16 5 21t21 5h348q16 0 21 -5t5 -21v-28q0 -16 -4.5 -20.5t-21.5 -7.5zM413 1570
q7 13 13 13q3 0 9 -2l72 -28q11 -5 11 -13q0 -11 -10 -32q-25 -54 -77.5 -88t-124.5 -34t-124.5 34t-77.5 88q-10 21 -10 32q0 8 11 13l72 28q6 2 9 2q6 0 13 -13q14 -31 42.5 -53t64.5 -22t64.5 22t42.5 53z" />
    <glyph glyph-name="ibreve" unicode="&#x12d;" horiz-adv-x="503" 
d="M183 9v806l-106 27q-17 3 -17 18v45q0 14 17 16l225 23q16 0 16 -19v-811l108 -27q17 -3 17 -16v-46q0 -15 -17 -17l-226 -17q-17 0 -17 18zM321 1250q7 13 13 13q3 0 9 -2l72 -28q11 -5 11 -13q0 -11 -10 -32q-25 -54 -77.5 -88t-124.5 -34t-124.5 34t-77.5 88
q-10 21 -10 32q0 8 11 13l72 28q6 2 9 2q6 0 13 -13q14 -31 42.5 -53t64.5 -22t64.5 22t42.5 53z" />
    <glyph glyph-name="Iogonek" unicode="&#x12e;" horiz-adv-x="608" 
d="M485 -368q-70 -50 -165 -50q-96 0 -147 64q-29 38 -29 92q0 62 34 131q32 65 85 131h-133q-16 0 -21 5t-5 21v28q0 16 4 20.5t22 7.5l104 20v1062l-104 20q-18 3 -22 7.5t-4 20.5v28q0 16 5 21t21 5h348q16 0 21 -5t5 -21v-28q0 -16 -4.5 -20.5t-21.5 -7.5l-103 -20
v-1062l103 -20q18 -3 22 -7.5t4 -20.5v-28q0 -16 -5 -21t-21 -5h-106q-43 -47 -70 -111q-27 -63 -27 -105q0 -43 26.5 -65.5t69.5 -22.5q28 0 58 11q4 1 13.5 5.5t12.5 4.5q7 0 12 -11l23 -54q2 -6 2 -8q0 -6 -7 -12z" />
    <glyph glyph-name="iogonek" unicode="&#x12f;" horiz-adv-x="503" 
d="M406 -368q-70 -50 -165 -50q-96 0 -147 64q-29 38 -29 92q0 116 119 261q-1 1 -1 10v806l-106 27q-17 3 -17 18v45q0 16 17 16l225 23q16 0 16 -19v-811l108 -27q17 -5 17 -16v-46q0 -14 -17 -17l-134 -10q-42 -46 -70 -110q-26 -64 -26 -104q0 -43 26.5 -65.5
t69.5 -22.5q28 0 58 11q4 1 13.5 5.5t12.5 4.5q7 0 12 -11l23 -54q2 -6 2 -7q0 -7 -7 -13zM225 1299q39 0 65.5 -26.5t26.5 -64.5t-26.5 -64.5t-65.5 -26.5q-38 0 -64.5 26.5t-26.5 64.5t26.5 64.5t64.5 26.5z" />
    <glyph glyph-name="Idot" unicode="&#x130;" horiz-adv-x="632" 
d="M488 1184l-103 -20v-1062l103 -20q18 -3 22 -7.5t4 -20.5v-28q0 -16 -5 -21t-21 -5h-348q-16 0 -21 5t-5 21v28q0 16 4 20.5t22 7.5l104 20v1062l-104 20q-18 3 -22 7.5t-4 20.5v28q0 16 5 21t21 5h348q16 0 21 -5t5 -21v-28q0 -16 -4.5 -20.5t-21.5 -7.5zM341 1586
q39 0 65.5 -26.5t26.5 -64.5t-26.5 -64.5t-65.5 -26.5q-38 0 -64.5 26.5t-26.5 64.5t26.5 64.5t64.5 26.5z" />
    <glyph glyph-name="dotlessi" unicode="&#x131;" horiz-adv-x="503" 
d="M183 9v806l-106 27q-17 3 -17 18v45q0 14 17 16l225 23q16 0 16 -19v-811l108 -27q17 -3 17 -16v-46q0 -15 -17 -17l-226 -17q-17 0 -17 18z" />
    <glyph glyph-name="IJ" unicode="&#x132;" horiz-adv-x="1238" 
d="M948 1156h-318q-6 0 -11 5t-5 11v78q0 6 5 11t11 5h443q6 0 11 -5t5 -11v-1233q0 -129 -28 -191q-27 -60 -77 -87.5t-132 -27.5q-75 0 -165 32q-18 6 -18 20l1 5q1 5 2.5 13t3 17.5t3.5 20t3 18.5q1 16 17 16q92 -23 133 -23q51 3 75.5 20.5t32.5 55.5q8 36 8 100v1150z
M478 1184l-103 -20v-1062l103 -20q18 -3 22 -7.5t4 -20.5v-28q0 -16 -5 -21t-21 -5h-348q-16 0 -21 5t-5 21v28q0 16 4 20.5t22 7.5l104 20v1062l-104 20q-18 3 -22 7.5t-4 20.5v28q0 16 5 21t21 5h348q16 0 21 -5t5 -21v-28q0 -16 -4.5 -20.5t-21.5 -7.5z" />
    <glyph glyph-name="ij" unicode="&#x133;" horiz-adv-x="939" 
d="M183 9v806l-106 27q-17 3 -17 18v45q0 15 17 17l225 22q16 0 16 -19v-811l108 -27q17 -3 17 -16v-46q0 -15 -17 -17l-226 -17q-16 0 -17 18zM225 1299q39 0 65.5 -26.5t26.5 -64.5t-26.5 -64.5t-65.5 -26.5q-38 0 -64.5 26.5t-26.5 64.5t26.5 64.5t64.5 26.5zM812 -115
q0 -142 -70 -230q-66 -85 -256 -94q-12 0 -15 13q-4 55 -8 72v2q0 19 30 19q184 16 184 212v936l-106 27q-17 3 -17 18v45q0 14 17 16l225 23q16 0 16 -19v-1040zM723 1300q39 0 65.5 -26.5t26.5 -64.5t-26.5 -64.5t-65.5 -26.5q-38 0 -64.5 26.5t-26.5 64.5t26.5 64.5
t64.5 26.5z" />
    <glyph glyph-name="Jcircumflex" unicode="&#x134;" horiz-adv-x="634" 
d="M189 1628h131q21 0 34 -17q2 -1 6 -6l8 -10l4 -5l124 -157q11 -14 11 -19q0 -7 -10 -11q-46 -20 -66 -20q-14 0 -41 24l-135 115l-135 -115q-27 -24 -41 -24q-18 0 -66 20q-10 4 -10 11q0 5 11 19l123 157q19 24 26 29.5t26 8.5zM344 1156h-318q-6 0 -11 5t-5 11v78
q0 6 5 11t11 5h443q6 0 11 -5t5 -11v-1233q0 -129 -28 -191q-27 -60 -77 -87.5t-132 -27.5q-75 0 -165 32q-18 6 -18 20l1 5q1 5 2.5 13t3 17.5t3.5 20t3 18.5q1 16 17 16q92 -23 133 -23q51 3 75.5 20.5t32.5 55.5q8 36 8 100v1150z" />
    <glyph glyph-name="jcircumflex" unicode="&#x135;" horiz-adv-x="481" 
d="M354 -113q0 -142 -70 -230q-66 -85 -256 -94q-14 0 -15 13l-8 74q0 14 30 19q184 16 184 212v936l-111 27q-17 3 -17 18v45q0 14 17 16l230 23q16 0 16 -19v-1040zM188 1310h131q21 0 34 -17q2 -1 6 -6l8 -10l4 -5l124 -157q11 -14 11 -19q0 -7 -10 -11q-46 -20 -66 -20
q-14 0 -41 24l-135 115l-135 -115q-27 -24 -41 -24q-18 0 -66 20q-10 4 -10 11q0 5 11 19l123 157q19 24 26 29.5t26 8.5z" />
    <glyph glyph-name="Kcommaaccent" unicode="&#x136;" horiz-adv-x="1133" 
d="M615 660q62 -19 110 -70q44 -47 65 -97q21 -51 47 -125q27 -76 44 -112q44 -92 84 -125q42 -33 116 -33q17 0 21.5 -5t4.5 -21v-58q0 -16 -4.5 -21t-21.5 -5q-111 0 -180 32q-66 33 -120 125q-40 67 -75 189q-14 47 -37 93q-26 53 -55 84t-77 51q-48 22 -118 22h-78v-558
q0 -16 -4.5 -21t-21.5 -5h-89q-17 0 -21.5 5t-4.5 23v1123l-112 34q-16 4 -16 16v48q0 17 16 17h227q16 0 21 -5t5 -22v-545h101q103 0 160 111q20 39 40 97q22 67 32 102q14 44 36 93q26 52 55 85t78 58q53 27 122 36q24 4 70 4q12 0 16.5 -4.5t4.5 -19.5v-61q0 -16 -4 -21
t-17 -5q-31 0 -59 -6q-112 -21 -181 -218q-6 -16 -17.5 -49.5t-17.5 -51.5q-20 -56 -36 -87q-37 -73 -109 -97zM479 -407l46 271q3 15 21 15h122q14 0 14 -11q0 -2 -2 -10l-101 -284q-8 -20 -21 -20h-69q-13 0 -13 15q0 6 3 24z" />
    <glyph glyph-name="kcommaaccent" unicode="&#x137;" horiz-adv-x="1005" 
d="M938 -9q-252 0 -312 208q-17 62 -27 89q-9 28 -27 70q-15 38 -34 58q-43 45 -105 45h-121v-445q0 -16 -16 -16h-102q-17 0 -17 16v1260l-105 27q-17 3 -17 18v45q0 14 17 16l224 23q15 0 16 -19v-815h118q34 0 81 21q20 11 55 59q9 11 23 40l18 40q11 27 19 46
q38 91 104 129.5t183 38.5q18 0 23.5 -4t5.5 -20v-63q0 -16 -5.5 -20t-23.5 -4q-65 0 -100.5 -24t-64.5 -79q-4 -7 -21 -41q-14 -32 -24 -47q-6 -11 -26 -40q-28 -43 -89 -74q60 -26 89 -80q31 -54 57 -153q25 -92 68 -140q44 -47 136 -54q18 0 23.5 -4t5.5 -20v-63
q0 -16 -5.5 -20t-23.5 -4zM409 -407l46 271q3 15 21 15h122q14 0 14 -11q0 -2 -2 -10l-101 -284q-8 -20 -21 -20h-69q-13 0 -13 15q0 6 3 24z" />
    <glyph glyph-name="kgreenlandic" unicode="&#x138;" horiz-adv-x="964" 
d="M178 813l-106 27q-17 3 -17 18v45q0 14 17 16l225 23q16 0 16 -19v-394h119q46 0 85 31q13 12 30 39q14 25 22 42q7 14 21 53q4 9 8.5 21t7.5 18.5t4 10.5q81 194 290 194q22 0 22 -13v-83q0 -15 -24 -15q-38 1 -68.5 -12t-49 -29.5t-36 -48t-25 -52t-19.5 -56.5
q-40 -115 -127 -138q45 -18 75.5 -56t40.5 -82q10 -38 24 -88q10 -31 15 -44.5t15 -35t24 -35.5t34 -26q43 -23 107 -23q18 0 18 -17v-74q0 -12 -4 -15t-16 -3q-124 0 -193 45t-102 146q-16 48 -21 62q-4 12 -20 52q-17 44 -45 77q-35 45 -108 45h-104v-403q0 -16 -16 -16
h-103q-16 0 -16 16v797z" />
    <glyph glyph-name="Lacute" unicode="&#x139;" horiz-adv-x="826" 
d="M147 128v1112q0 16 4.5 21t21.5 5h89q16 0 21 -5t5 -21v-1090q0 -23 15 -31.5t53 -8.5h349l35 94q6 16 16 16h48q17 0 17 -16v-183q0 -21 -16 -21h-496q-162 0 -162 128zM359 1612h133q15 0 15 -10q0 -12 -25 -34l-173 -158q-21 -21 -44 -21h-85q-13 0 -13 8q0 9 12 23
l128 165q15 18 24 22.5t28 4.5z" />
    <glyph glyph-name="lacute" unicode="&#x13a;" horiz-adv-x="564" 
d="M313 1386l1 -1116q0 -183 153 -183q21 0 66 6q8 0 10 -11l11 -81q0 -11 -12 -13q-62 -12 -114 -12q-250 0 -250 294v1006l-106 27q-17 3 -17 18v45q0 14 17 16l225 23q16 0 16 -19zM374 1735h133q15 0 15 -10q0 -12 -25 -34l-173 -158q-21 -21 -44 -21h-85q-13 0 -13 8
q0 10 12 23l128 165q15 18 24 22.5t28 4.5z" />
    <glyph glyph-name="Lcommaaccent" unicode="&#x13b;" horiz-adv-x="826" 
d="M147 128v1112q0 16 4.5 21t21.5 5h89q16 0 21 -5t5 -21v-1090q0 -23 15 -31.5t53 -8.5h349l35 94q6 16 16 16h48q17 0 17 -16v-183q0 -21 -16 -21h-496q-162 0 -162 128zM369 -407l46 271q3 15 21 15h122q14 0 14 -11q0 -2 -2 -10l-101 -284q-8 -20 -21 -20h-69
q-13 0 -13 15q0 6 3 24z" />
    <glyph glyph-name="lcommaaccent" unicode="&#x13c;" horiz-adv-x="564" 
d="M313 1386l1 -1116q0 -183 153 -183q21 0 66 6q8 0 10 -11l11 -81q0 -11 -12 -13q-62 -12 -114 -12q-250 0 -250 294v1006l-106 27q-17 3 -17 18v45q0 14 17 16l225 23q16 0 16 -19zM249 -407l46 271q3 15 21 15h122q14 0 14 -11q0 -2 -2 -10l-101 -284q-8 -20 -21 -20
h-69q-13 0 -13 15q0 6 3 24z" />
    <glyph glyph-name="Lcaron" unicode="&#x13d;" horiz-adv-x="826" 
d="M147 128v1112q0 16 4.5 21t21.5 5h89q16 0 21 -5t5 -21v-1090q0 -23 15 -31.5t53 -8.5h349l35 94q6 16 16 16h48q17 0 17 -16v-183q0 -21 -16 -21h-496q-162 0 -162 128zM507 980l46 271q3 15 21 15h122q14 0 14 -11q0 -2 -2 -10l-101 -284q-8 -20 -21 -20h-69
q-13 0 -13 15q0 6 3 24z" />
    <glyph glyph-name="lcaron" unicode="&#x13e;" horiz-adv-x="639" 
d="M313 1386l1 -1116q0 -183 153 -183q21 0 66 6q8 0 10 -11l11 -81q0 -11 -12 -13q-62 -12 -114 -12q-250 0 -250 294v1006l-106 27q-17 3 -17 18v45q0 14 17 16l225 23q16 0 16 -19zM435 1114l46 271q3 15 21 15h122q14 0 14 -11q0 -2 -2 -10l-101 -284q-8 -20 -21 -20
h-69q-13 0 -13 15q0 6 3 24z" />
    <glyph glyph-name="Ldot" unicode="&#x13f;" horiz-adv-x="826" 
d="M147 128v1112q0 16 4.5 21t21.5 5h89q16 0 21 -5t5 -21v-1090q0 -23 15 -31.5t53 -8.5h349l35 94q6 16 16 16h48q17 0 17 -16v-183q0 -21 -16 -21h-496q-162 0 -162 128zM559 800q39 0 65.5 -26.5t26.5 -64.5t-26.5 -64.5t-65.5 -26.5q-38 0 -64.5 26.5t-26.5 64.5
t26.5 64.5t64.5 26.5z" />
    <glyph glyph-name="ldot" unicode="&#x140;" horiz-adv-x="601" 
d="M313 1386l1 -1116q0 -183 153 -183q21 0 66 6q8 0 10 -11l11 -81q0 -11 -12 -13q-62 -12 -114 -12q-250 0 -250 294v1006l-106 27q-17 3 -17 18v45q0 14 17 16l225 23q16 0 16 -19zM509 809q39 0 65.5 -26.5t26.5 -64.5t-26.5 -64.5t-65.5 -26.5q-38 0 -64.5 26.5
t-26.5 64.5t26.5 64.5t64.5 26.5z" />
    <glyph glyph-name="Lslash" unicode="&#x141;" horiz-adv-x="881" 
d="M202 128v349l-103 -44q-7 -4 -15 -4q-13 0 -13 18v67q0 25 28 37l103 44v645q0 16 5 21t21 5h89q17 0 21.5 -5t4.5 -21v-585l224 95q7 3 14 3q14 0 14 -17v-69q0 -14 -6 -21.5t-22 -13.5l-224 -95v-387q0 -23 15 -31.5t53 -8.5h349l35 94q6 16 17 16h47q17 0 17 -16v-183
q0 -21 -16 -21h-496q-162 0 -162 128z" />
    <glyph glyph-name="lslash" unicode="&#x142;" horiz-adv-x="589" 
d="M336 1386v-728l215 92q7 3 14 3q14 0 14 -17v-69q0 -14 -6 -21.5t-22 -13.5l-214 -92v-270q0 -183 153 -183q21 0 66 6q8 0 10 -11l11 -81q0 -11 -12 -13q-61 -12 -114 -12q-250 0 -250 294v213l-118 -50q-7 -4 -15 -4q-13 0 -13 18v67q0 24 26 36l120 51v675l-106 27
q-17 3 -17 18v45q0 14 17 16l225 23q16 0 16 -19z" />
    <glyph glyph-name="Nacute" unicode="&#x143;" horiz-adv-x="1264" 
d="M199 1151l-112 34q-16 4 -16 16v48q0 17 16 17h263q14 0 23 -16l556 -963l39 -79h6v1032q0 16 5 21t21 5h89q17 0 21.5 -5t4.5 -21v-1214q0 -16 -4.5 -21t-21.5 -5h-111q-27 0 -42 26l-548 951q-18 31 -38 76l-4 12h-6v-1039q0 -16 -5 -21t-21 -5h-89q-17 0 -21.5 5
t-4.5 21v1125zM799 1612h133q15 0 15 -10q0 -12 -25 -34l-173 -158q-21 -21 -44 -21h-85q-13 0 -13 8q0 9 12 23l128 165q15 18 24 22.5t28 4.5z" />
    <glyph glyph-name="nacute" unicode="&#x144;" horiz-adv-x="1085" 
d="M312 694v-678q0 -16 -17 -16h-101q-17 0 -17 16v799l-105 27q-17 3 -17 18v45q0 14 17 16l203 20q15 0 16 -19l14 -116q97 73 179 109q81 35 172 35q124 0 194 -68.5t70 -192.5v-575l108 -27q17 -3 17 -16v-46q0 -15 -17 -17l-226 -17q-16 0 -17 18v647q0 181 -178 181
q-143 0 -295 -143zM634 1299h133q15 0 15 -10q0 -12 -25 -34l-173 -158q-21 -21 -44 -21h-85q-13 0 -13 8q0 10 12 23l128 165q15 18 24 22.5t28 4.5z" />
    <glyph glyph-name="Ncommaaccent" unicode="&#x145;" horiz-adv-x="1264" 
d="M199 1151l-112 34q-16 4 -16 16v48q0 17 16 17h263q14 0 23 -16l556 -963l39 -79h6v1032q0 16 5 21t21 5h89q17 0 21.5 -5t4.5 -21v-1214q0 -16 -4.5 -21t-21.5 -5h-111q-27 0 -42 26l-548 951q-18 31 -38 76l-4 12h-6v-1039q0 -16 -5 -21t-21 -5h-89q-17 0 -21.5 5
t-4.5 21v1125zM519 -407l46 271q3 15 21 15h122q14 0 14 -11q0 -2 -2 -10l-101 -284q-8 -20 -21 -20h-69q-13 0 -13 15q0 6 3 24z" />
    <glyph glyph-name="ncommaaccent" unicode="&#x146;" horiz-adv-x="1085" 
d="M312 694v-678q0 -16 -17 -16h-101q-17 0 -17 16v799l-105 27q-17 3 -17 18v45q0 14 17 16l203 20q15 0 16 -19l14 -116q97 73 179 109q81 35 172 35q124 0 194 -68.5t70 -192.5v-575l108 -27q17 -3 17 -16v-46q0 -15 -17 -17l-226 -17q-16 0 -17 18v647q0 181 -178 181
q-143 0 -295 -143zM439 -407l46 271q3 15 21 15h122q14 0 14 -11q0 -2 -2 -10l-101 -284q-8 -20 -21 -20h-69q-13 0 -13 15q0 6 3 24z" />
    <glyph glyph-name="Ncaron" unicode="&#x147;" horiz-adv-x="1264" 
d="M199 1151l-112 34q-16 4 -16 16v48q0 17 16 17h263q14 0 23 -16l556 -963l39 -79h6v1032q0 16 5 21t21 5h89q17 0 21.5 -5t4.5 -21v-1214q0 -16 -4.5 -21t-21.5 -5h-111q-27 0 -42 26l-548 951q-18 31 -38 76l-4 12h-6v-1039q0 -16 -5 -21t-21 -5h-89q-17 0 -21.5 5
t-4.5 21v1125zM751 1389h-131q-14 0 -22.5 6t-24.5 26l-129 163q-11 14 -11 19q0 7 10 11q46 20 66 20q14 0 41 -24l135 -115l135 115q27 24 41 24q18 0 66 -20q10 -4 10 -11q0 -5 -11 -19l-123 -157q-19 -24 -26 -29.5t-26 -8.5z" />
    <glyph glyph-name="ncaron" unicode="&#x148;" horiz-adv-x="1085" 
d="M312 694v-678q0 -16 -17 -16h-101q-17 0 -17 16v799l-105 27q-17 3 -17 18v45q0 14 17 16l203 20q15 0 16 -19l14 -116q97 73 179 109q81 35 172 35q124 0 194 -68.5t70 -192.5v-575l108 -27q17 -3 17 -16v-46q0 -15 -17 -17l-226 -17q-16 0 -17 18v647q0 181 -178 181
q-143 0 -295 -143zM588 1076h-131q-14 0 -22.5 6t-24.5 26l-129 163q-11 14 -11 19q0 7 10 11q46 20 66 20q14 0 41 -24l135 -115l135 115q27 24 41 24q18 0 66 -20q10 -4 10 -11q0 -5 -11 -19l-123 -157q-19 -24 -26 -29.5t-26 -8.5z" />
    <glyph glyph-name="napostrophe" unicode="&#x149;" horiz-adv-x="1217" 
d="M443 694v-678q0 -16 -17 -16h-101q-17 0 -17 16v799l-105 27q-17 3 -17 18v45q0 14 17 16l203 20q15 0 16 -19l14 -116q97 73 179 109q81 35 172 35q124 0 194 -68.5t70 -192.5v-575l108 -27q17 -3 17 -16v-46q0 -15 -17 -17l-226 -17q-15 0 -17 18v647q0 181 -178 181
q-143 0 -295 -143zM14 981l46 271q3 15 21 15h122q14 0 14 -11q0 -2 -2 -10l-101 -284q-8 -20 -21 -20h-69q-13 0 -13 15q0 6 3 24z" />
    <glyph glyph-name="Eng" unicode="&#x14a;" horiz-adv-x="1264" 
d="M199 1151l-112 34q-16 4 -16 16v48q0 17 16 17h263q14 0 23 -16l556 -963l39 -79h6v1032q0 16 5 21t21 5h89q17 0 21.5 -5t4.5 -21v-1162q0 -139 -25 -217q-21 -62 -56.5 -114.5t-75.5 -80.5q-80 -57 -136 -57q-13 0 -21 17q-29 72 -29 76q0 9 17 17q4 2 5 3
q163 79 163 212q0 38 -16 78.5t-54 103.5l-280 480l-219 381q-18 31 -38 76l-4 12h-6v-1039q0 -16 -5 -21t-21 -5h-89q-17 0 -21.5 5t-4.5 21v1125z" />
    <glyph glyph-name="eng" unicode="&#x14b;" horiz-adv-x="1052" 
d="M790 -120v776q0 181 -178 181q-143 0 -295 -143v-678q0 -16 -17 -16h-101q-17 0 -17 16v799l-110 27q-17 3 -17 18v45q0 14 17 16l208 20q15 0 16 -19l14 -116q97 73 179 109q81 35 172 35q124 0 194 -68.5t70 -192.5v-803q0 -142 -70 -230q-66 -85 -256 -94
q-12 0 -15 13q-4 55 -8 72v2q0 19 30 19q184 16 184 212z" />
    <glyph glyph-name="Omacron" unicode="&#x14c;" horiz-adv-x="1217" 
d="M609 -24q-52 0 -101 8t-101.5 28.5t-97 53t-85.5 84.5t-69.5 119t-45 161t-16.5 207q0 294 114 466q123 187 402 187q112 0 200 -32t146.5 -89t97 -140t55 -179.5t16.5 -212.5q0 -151 -31 -272t-84 -195q-49 -70 -120 -117q-119 -77 -280 -77zM608 86q368 0 368 559
q0 536 -369 536q-237 0 -321 -228q-45 -130 -45 -308q0 -270 82 -408q35 -58 87 -94q49 -33 94 -45t104 -12zM446 1421v88q0 14 21 14h308q16 0 19.5 -3t3.5 -10v-90q0 -14 -20 -14h-309q-14 0 -18.5 3t-4.5 12z" />
    <glyph glyph-name="omacron" unicode="&#x14d;" horiz-adv-x="1037" 
d="M95 475q-3 217 104 345.5t316 129.5q208 0 317 -130q110 -130 110 -345q0 -116 -26.5 -209.5t-70.5 -149.5q-40 -52 -99 -85q-96 -55 -220 -55q-123 0 -224 55q-62 34 -104 85q-46 56 -74.5 149.5t-28.5 209.5zM235 472q0 -388 290 -388q142 -3 215 109q58 93 58 279
q0 366 -284 366q-150 0 -215 -96q-64 -95 -64 -270zM346 1101v88q0 14 21 14h308q16 0 19.5 -3t3.5 -10v-90q0 -14 -20 -14h-309q-14 0 -18.5 3t-4.5 12z" />
    <glyph glyph-name="Obreve" unicode="&#x14e;" horiz-adv-x="1217" 
d="M609 -24q-52 0 -101 8t-101.5 28.5t-97 53t-85.5 84.5t-69.5 119t-45 161t-16.5 207q0 294 114 466q123 187 402 187q112 0 200 -32t146.5 -89t97 -140t55 -179.5t16.5 -212.5q0 -151 -31 -272t-84 -195q-49 -70 -120 -117q-119 -77 -280 -77zM608 86q368 0 368 559
q0 536 -369 536q-237 0 -321 -228q-45 -130 -45 -308q0 -270 82 -408q35 -58 87 -94q49 -33 94 -45t104 -12zM740 1580q7 13 13 13q3 0 9 -2l72 -28q11 -5 11 -13q0 -11 -10 -32q-25 -54 -77.5 -88t-124.5 -34t-124.5 34t-77.5 88q-10 21 -10 32q0 8 11 13l72 28q6 2 9 2
q6 0 13 -13q14 -31 42.5 -53t64.5 -22t64.5 22t42.5 53z" />
    <glyph glyph-name="obreve" unicode="&#x14f;" horiz-adv-x="1037" 
d="M95 475q-3 217 104 345.5t316 129.5q208 0 317 -130q110 -130 110 -345q0 -116 -26.5 -209.5t-70.5 -149.5q-40 -52 -99 -85q-96 -55 -220 -55q-123 0 -224 55q-62 34 -104 85q-46 56 -74.5 149.5t-28.5 209.5zM235 472q0 -388 290 -388q142 -3 215 109q58 93 58 279
q0 366 -284 366q-150 0 -215 -96q-64 -95 -64 -270zM631 1250q7 13 13 13q3 0 9 -2l72 -28q11 -5 11 -13q0 -11 -10 -32q-25 -54 -77.5 -88t-124.5 -34t-124.5 34t-77.5 88q-10 21 -10 32q0 8 11 13l72 28q6 2 9 2q6 0 13 -13q14 -31 42.5 -53t64.5 -22t64.5 22t42.5 53z
" />
    <glyph glyph-name="Ohungarumlaut" unicode="&#x150;" horiz-adv-x="1217" 
d="M609 -24q-52 0 -101 8t-101.5 28.5t-97 53t-85.5 84.5t-69.5 119t-45 161t-16.5 207q0 294 114 466q123 187 402 187q112 0 200 -32t146.5 -89t97 -140t55 -179.5t16.5 -212.5q0 -151 -31 -272t-84 -195q-49 -70 -120 -117q-119 -77 -280 -77zM608 86q368 0 368 559
q0 536 -369 536q-237 0 -321 -228q-45 -130 -45 -308q0 -270 82 -408q35 -58 87 -94q49 -33 94 -45t104 -12zM579 1620h111q18 0 18 -10q0 -11 -24 -35l-156 -163q-20 -21 -42 -21h-77q-15 0 -15 10q0 8 25 42l108 150q14 18 22.5 22.5t29.5 4.5zM879 1620h111q18 0 18 -10
q0 -11 -24 -35l-156 -163q-20 -21 -42 -21h-77q-15 0 -15 10q0 8 25 42l108 150q14 18 22.5 22.5t29.5 4.5z" />
    <glyph glyph-name="ohungarumlaut" unicode="&#x151;" horiz-adv-x="1037" 
d="M95 475q-3 217 104 345.5t316 129.5q208 0 317 -130q110 -130 110 -345q0 -116 -26.5 -209.5t-70.5 -149.5q-40 -52 -99 -85q-96 -55 -220 -55q-123 0 -224 55q-62 34 -104 85q-46 56 -74.5 149.5t-28.5 209.5zM235 472q0 -388 290 -388q142 -3 215 109q58 93 58 279
q0 366 -284 366q-150 0 -215 -96q-64 -95 -64 -270zM482 1306h111q18 0 18 -10q0 -11 -24 -35l-156 -163q-19 -21 -42 -21h-77q-15 0 -15 10q0 8 25 42l108 150q14 18 22.5 22.5t29.5 4.5zM782 1306h111q18 0 18 -10q0 -11 -24 -35l-156 -163q-19 -21 -42 -21h-77
q-15 0 -15 10q0 8 25 42l108 150q14 18 22.5 22.5t29.5 4.5z" />
    <glyph glyph-name="OE" unicode="&#x152;" horiz-adv-x="1522" 
d="M738 0q-197 0 -355 84q-85 46 -149 116q-65 72 -103 184t-38 248t38.5 248.5t103.5 184.5q63 69 150 116q157 85 355 85h663q17 0 21.5 -5t4.5 -21v-59q0 -17 -4.5 -21.5t-21.5 -4.5h-490v-425h374q17 0 21.5 -5t4.5 -21v-58q0 -16 -4.5 -21t-21.5 -5h-374v-510h490
q17 0 21.5 -5t4.5 -21v-58q0 -16 -4.5 -21t-21.5 -5q-121 -1 -409 -1q-111 0 -162 1h-94zM772 110v1048h-40q-232 0 -363 -140q-130 -139 -130 -384q0 -239 125 -382q126 -142 366 -142h42z" />
    <glyph glyph-name="oe" unicode="&#x153;" horiz-adv-x="1594" 
d="M95 469q0 219 99 349q99 131 296 131q233 0 335 -201q106 202 330 202q176 0 262.5 -108.5t86.5 -339.5v-21q0 -34 -17 -34h-592q16 -359 327 -359q114 0 226 47q12 5 15 5q12 0 15 -14l14 -66q0 -11 -12 -17q-134 -67 -283 -67q-253 0 -366 200q-95 -210 -331 -210
q-36 0 -72 5.5t-77 20.5t-76.5 39t-69.5 63.5t-57.5 90t-38 123.5t-14.5 161zM229 466q3 -268 123 -348q64 -44 150 -44q256 0 256 392q0 371 -266 371q-263 0 -263 -371zM1153 837q-110 0 -175 -73t-80 -209h472v26q0 121 -58.5 188.5t-158.5 67.5z" />
    <glyph glyph-name="Racute" unicode="&#x154;" horiz-adv-x="1131" 
d="M506 1157l-172 1v-497h152q158 0 246 69q89 71 89 192q0 143 -97 192q-85 43 -218 43zM1078 99q18 -2 22 -6t4 -20v-58q0 -17 -5 -22t-23 -5q-135 -7 -227 101q-26 29 -47 70q-25 48 -36 74q-8 18 -31 82q-43 122 -113.5 180t-187.5 58h-100v-527q0 -16 -5 -21t-21 -5
h-89q-17 0 -21.5 5t-4.5 23v1111l-106 44q-16 6 -16 16v48q0 17 16 17q33 0 80 1q26 1 83.5 1.5t87.5 0.5q132 2 174 2q454 0 454 -345q0 -109 -62 -197q-61 -87 -182 -126q-33 -11 -59 -11l-1 -3q36 -7 66 -27q36 -23 68.5 -65t51.5 -96q64 -177 110 -237q45 -58 120 -63z
M569 1612h133q15 0 15 -10q0 -12 -25 -34l-173 -158q-21 -21 -44 -21h-85q-13 0 -13 8q0 10 12 23l128 165q15 18 24 22.5t28 4.5z" />
    <glyph glyph-name="racute" unicode="&#x155;" horiz-adv-x="654" 
d="M618 798q-1 0 -40 6q-36 7 -65 7q-81 0 -136 -71q-44 -58 -61 -119v-605q0 -16 -16 -16h-102q-16 0 -17 16v799l-109 27q-17 3 -17 18v45q0 14 17 16l208 20q13 0 16 -19l17 -129q31 64 94 109q62 46 135 46q49 0 88 -10q14 -2 14 -12l-16 -116q-2 -12 -10 -12zM426 1299
h133q15 0 15 -10q0 -12 -25 -34l-173 -158q-21 -21 -44 -21h-85q-13 0 -13 8q0 10 12 23l128 165q15 18 24 22.5t28 4.5z" />
    <glyph glyph-name="Rcommaaccent" unicode="&#x156;" horiz-adv-x="1131" 
d="M506 1157l-172 1v-497h152q158 0 246 69q89 71 89 192q0 143 -97 192q-85 43 -218 43zM1078 99q18 -2 22 -6t4 -20v-58q0 -17 -5 -22t-23 -5q-135 -7 -227 101q-26 29 -47 70q-25 48 -36 74q-8 18 -31 82q-43 122 -113.5 180t-187.5 58h-100v-527q0 -16 -5 -21t-21 -5
h-89q-17 0 -21.5 5t-4.5 23v1111l-106 44q-16 6 -16 16v48q0 17 16 17q33 0 80 1q26 1 83.5 1.5t87.5 0.5q132 2 174 2q454 0 454 -345q0 -109 -62 -197q-61 -87 -182 -126q-33 -11 -59 -11l-1 -3q36 -7 66 -27q36 -23 68.5 -65t51.5 -96q64 -177 110 -237q45 -58 120 -63z
M499 -407l46 271q3 15 21 15h122q14 0 14 -11q0 -2 -2 -10l-101 -284q-8 -20 -21 -20h-69q-13 0 -13 15q0 6 3 24z" />
    <glyph glyph-name="rcommaaccent" unicode="&#x157;" horiz-adv-x="654" 
d="M618 798q-1 0 -40 6q-36 7 -65 7q-81 0 -136 -71q-44 -58 -61 -119v-605q0 -16 -16 -16h-102q-16 0 -17 16v799l-109 27q-17 3 -17 18v45q0 14 17 16l208 20q13 0 16 -19l17 -129q31 64 94 109q62 46 135 46q49 0 88 -10q14 -2 14 -12l-16 -116q-2 -12 -10 -12zM119 -407
l46 271q3 15 21 15h122q14 0 14 -11q0 -2 -2 -10l-101 -284q-8 -20 -21 -20h-69q-13 0 -13 15q0 6 3 24z" />
    <glyph glyph-name="Rcaron" unicode="&#x158;" horiz-adv-x="1131" 
d="M506 1157l-172 1v-497h152q158 0 246 69q89 71 89 192q0 143 -97 192q-85 43 -218 43zM1078 99q18 -2 22 -6t4 -20v-58q0 -17 -5 -22t-23 -5q-135 -7 -227 101q-26 29 -47 70q-25 48 -36 74q-8 18 -31 82q-43 122 -113.5 180t-187.5 58h-100v-527q0 -16 -5 -21t-21 -5
h-89q-17 0 -21.5 5t-4.5 23v1111l-106 44q-16 6 -16 16v48q0 17 16 17q33 0 80 1q26 1 83.5 1.5t87.5 0.5q132 2 174 2q454 0 454 -345q0 -109 -62 -197q-61 -87 -182 -126q-33 -11 -59 -11l-1 -3q36 -7 66 -27q36 -23 68.5 -65t51.5 -96q64 -177 110 -237q45 -58 120 -63z
M590 1389h-131q-14 0 -22.5 6t-24.5 26l-129 163q-11 14 -11 19q0 7 10 11q46 20 66 20q14 0 41 -24l135 -115l135 115q27 24 41 24q18 0 66 -20q10 -4 10 -11q0 -5 -11 -19l-123 -157q-19 -24 -26 -29.5t-26 -8.5z" />
    <glyph glyph-name="rcaron" unicode="&#x159;" horiz-adv-x="655" 
d="M618 798q-1 0 -40 6q-36 7 -65 7q-81 0 -136 -71q-44 -58 -61 -119v-605q0 -16 -16 -16h-102q-16 0 -17 16v799l-109 27q-17 3 -17 18v45q0 14 17 16l208 20q13 0 16 -19l17 -129q31 64 94 109q62 46 135 46q49 0 88 -10q14 -2 14 -12l-16 -116q-2 -12 -10 -12zM396 1076
h-131q-14 0 -22.5 6t-24.5 26l-129 163q-11 14 -11 19q0 7 10 11q46 20 66 20q14 0 41 -24l135 -115l135 115q27 24 41 24q18 0 66 -20q10 -4 10 -11q0 -5 -11 -19l-123 -157q-19 -24 -26 -29.5t-26 -8.5z" />
    <glyph glyph-name="Sacute" unicode="&#x15a;" horiz-adv-x="1002" 
d="M181 243l32 -115q135 -35 227 -35q118 0 209 47q50 25 78 73t28 112q0 56 -29 101q-20 37 -75 73q-17 13 -51 30q-43 22 -52 25q-38 18 -58 26q-12 5 -30.5 13t-24.5 11q-141 63 -190 100q-126 92 -128 245q0 86 34.5 154t95.5 108q121 79 298 79q144 0 294 -40
q16 -4 16 -21v-182q0 -16 -15 -16h-50q-10 0 -16 16l-39 115q-103 20 -180 20q-140 0 -214.5 -57.5t-74.5 -168.5q0 -68 49 -119q21 -22 57 -44q40 -24 64 -36q58 -26 74 -33q133 -58 208.5 -102t117.5 -91q43 -46 57 -92q14 -47 14 -112q0 -93 -34.5 -161.5t-96.5 -109
t-141 -59.5t-175 -19q-186 0 -354 61q-16 4 -16 21l10 183q0 16 17 16h48q12 0 16 -16zM636 1612h133q15 0 15 -10q0 -12 -25 -34l-173 -158q-21 -21 -44 -21h-85q-13 0 -13 8q0 10 12 23l128 165q15 18 24 22.5t28 4.5z" />
    <glyph glyph-name="sacute" unicode="&#x15b;" horiz-adv-x="881" 
d="M66 43q-11 5 -11 16l16 168q2 17 17 17h44q13 0 16 -17l26 -113q98 -30 228 -30q111 0 173.5 44t62.5 124q0 62 -50 92q-48 29 -190 61q-138 30 -217 80q-97 62 -97 192q0 273 358 273q132 0 282 -55q12 -3 12 -16l-13 -160q-2 -17 -17 -17h-41q-13 0 -18 17l-29 108
q-107 25 -180 25q-108 0 -165 -39t-57 -111q0 -78 82 -118q49 -24 200 -59q125 -31 194 -81q85 -62 85 -179q0 -77 -29.5 -134.5t-81.5 -90.5t-116 -48.5t-140 -15.5q-188 0 -344 67zM544 1299h133q15 0 15 -10q0 -12 -25 -34l-173 -158q-21 -21 -44 -21h-85q-13 0 -13 8
q0 10 12 23l128 165q15 18 24 22.5t28 4.5z" />
    <glyph glyph-name="Scircumflex" unicode="&#x15c;" horiz-adv-x="1002" 
d="M171 243l32 -115q135 -35 227 -35q118 0 209 47q50 25 78 73t28 112q0 56 -29 101q-20 37 -75 73q-17 13 -51 30q-43 22 -52 25q-38 18 -58 26q-12 5 -30.5 13t-24.5 11q-141 63 -190 100q-126 92 -128 245q0 86 34.5 154t95.5 108q121 79 298 79q144 0 294 -40
q16 -4 16 -21v-182q0 -16 -15 -16h-50q-10 0 -16 16l-39 115q-103 20 -180 20q-140 0 -214.5 -57.5t-74.5 -168.5q0 -68 49 -119q21 -22 57 -44q40 -24 64 -36q59 -26 74 -33q133 -58 208.5 -102t117.5 -91q43 -46 57 -92q14 -47 14 -112q0 -93 -34.5 -161.5t-96.5 -109
t-141 -59.5t-175 -19q-186 0 -354 61q-16 4 -16 21l10 183q0 16 17 16h48q12 0 16 -16zM459 1628h131q21 0 34 -17q2 -1 6 -6l8 -10l4 -5l124 -157q11 -14 11 -19q0 -7 -10 -11q-46 -20 -66 -20q-14 0 -41 24l-135 115l-135 -115q-27 -24 -41 -24q-18 0 -66 20q-10 4 -10 11
q0 5 11 19l123 157q19 24 26 29.5t26 8.5z" />
    <glyph glyph-name="scircumflex" unicode="&#x15d;" horiz-adv-x="886" 
d="M93 43q-11 5 -11 16l16 168q2 17 17 17h44q13 0 16 -17l26 -113q97 -30 228 -30q111 0 173.5 44t62.5 124q0 62 -50 92q-48 29 -190 61q-138 30 -217 80q-97 62 -97 192q0 273 358 273q132 0 282 -55q12 -3 12 -16l-13 -160q-2 -17 -17 -17h-41q-13 0 -18 17l-29 108
q-107 25 -180 25q-108 0 -165 -39t-57 -111q0 -78 82 -118q49 -24 200 -59q125 -31 194 -81q85 -62 85 -179q0 -77 -29.5 -134.5t-81.5 -90.5t-116 -48.5t-140 -15.5q-188 0 -344 67zM416 1310h131q21 0 34 -17q2 -1 6 -6l8 -10l4 -5l124 -157q11 -14 11 -19q0 -7 -10 -11
q-46 -20 -66 -20q-14 0 -41 24l-135 115l-135 -115q-27 -24 -41 -24q-18 0 -66 20q-10 4 -10 11q0 5 11 19l123 157q19 24 26 29.5t26 8.5z" />
    <glyph glyph-name="Scedilla" unicode="&#x15e;" horiz-adv-x="1002" 
d="M441 -181q-18 0 -27 -1q-15 0 -15 9q0 1 2 9l41 142q-177 3 -336 61q-16 4 -16 21l10 183q0 16 17 16h48q12 0 16 -16l32 -115q135 -35 227 -35q118 0 209 47q50 25 78 73t28 112q0 56 -29 101q-20 37 -75 73q-17 13 -51 30q-43 22 -52 25q-38 18 -58 26q-12 5 -30.5 13
t-24.5 11q-141 63 -190 100q-126 92 -128 245q0 86 34.5 154t95.5 108q121 79 298 79q144 0 294 -40q16 -4 16 -21v-182q0 -16 -17 -16h-48q-10 0 -16 16l-39 115q-103 20 -180 20q-140 0 -214.5 -57.5t-74.5 -168.5q0 -68 49 -119q21 -22 57 -44q40 -24 64 -36
q58 -26 74 -33q133 -58 208.5 -102t117.5 -91q43 -46 57 -92q14 -47 14 -112q0 -82 -27 -146t-77 -104.5t-114.5 -63.5t-144.5 -31l-23 -89q72 -11 107.5 -48t35.5 -88q0 -77 -62 -125t-162 -48q-70 0 -100 11q-8 3 -8 7q0 1 2 9l17 56q4 13 13 13q49 -7 70 -7q46 0 76 21.5
t30 51.5q0 34 -25 53.5t-74 19.5z" />
    <glyph glyph-name="scedilla" unicode="&#x15f;" horiz-adv-x="881" 
d="M107 43q-11 5 -11 16l16 168q2 17 17 17h44q13 0 16 -17l26 -113q97 -30 228 -30q111 0 173.5 44t62.5 124q0 62 -50 92q-48 29 -190 61q-138 30 -217 80q-97 62 -97 192q0 273 358 273q132 0 282 -55q12 -3 12 -16l-13 -160q-2 -17 -17 -17h-43q-11 0 -16 17l-29 108
q-107 25 -180 25q-108 0 -165 -39t-57 -111q0 -78 82 -118q49 -24 200 -59q125 -31 194 -81q85 -62 85 -179q0 -137 -89 -208q-88 -70 -231 -79l-20 -85q72 -11 107.5 -48t35.5 -88q0 -77 -62 -125q-61 -48 -162 -48q-65 0 -95 11q-7 3 -7 8q0 1 2 9l16 56q4 12 13 12
q49 -7 70 -7q46 0 76 21.5t30 51.5q0 64 -94 73h-5q-18 0 -27 -1q-15 0 -15 9q0 1 2 9l38 142q-137 8 -294 65z" />
    <glyph glyph-name="Scaron" unicode="&#x160;" horiz-adv-x="1002" 
d="M181 243l32 -115q135 -35 227 -35q118 0 209 47q50 25 78 73t28 112q0 56 -29 101q-20 37 -75 73q-17 13 -51 30q-43 22 -52 25q-38 18 -58 26q-12 5 -30.5 13t-24.5 11q-141 63 -190 100q-126 92 -128 245q0 86 34.5 154t95.5 108q121 79 298 79q144 0 294 -40
q16 -4 16 -21v-182q0 -16 -15 -16h-50q-10 0 -16 16l-39 115q-103 20 -180 20q-140 0 -214.5 -57.5t-74.5 -168.5q0 -68 49 -119q21 -22 57 -44q40 -24 64 -36q58 -26 74 -33q133 -58 208.5 -102t117.5 -91q43 -46 57 -92q14 -47 14 -112q0 -93 -34.5 -161.5t-96.5 -109
t-141 -59.5t-175 -19q-186 0 -354 61q-16 4 -16 21l10 183q0 16 17 16h48q12 0 16 -16zM606 1389h-131q-14 0 -22.5 6t-24.5 26l-129 163q-11 14 -11 19q0 7 10 11q46 20 66 20q14 0 41 -24l135 -115l135 115q27 24 41 24q18 0 66 -20q10 -4 10 -11q0 -5 -11 -19l-123 -157
q-19 -24 -26 -29.5t-26 -8.5z" />
    <glyph glyph-name="scaron" unicode="&#x161;" horiz-adv-x="886" 
d="M93 43q-11 5 -11 16l16 168q2 17 17 17h44q13 0 16 -17l26 -113q97 -30 228 -30q111 0 173.5 44t62.5 124q0 62 -50 92q-48 29 -190 61q-138 30 -217 80q-97 62 -97 192q0 273 358 273q132 0 282 -55q12 -3 12 -16l-13 -160q-2 -17 -17 -17h-41q-13 0 -18 17l-29 108
q-107 25 -180 25q-108 0 -165 -39t-57 -111q0 -78 82 -118q49 -24 200 -59q125 -31 194 -81q85 -62 85 -179q0 -77 -29.5 -134.5t-81.5 -90.5t-116 -48.5t-140 -15.5q-188 0 -344 67zM550 1076h-131q-14 0 -22.5 6t-24.5 26l-129 163q-11 14 -11 19q0 7 10 11q46 20 66 20
q14 0 41 -24l135 -115l135 115q27 24 41 24q18 0 66 -20q10 -4 10 -11q0 -5 -11 -19l-123 -157q-19 -24 -26 -29.5t-26 -8.5z" />
    <glyph glyph-name="Tcommaaccent" unicode="&#x162;" horiz-adv-x="962" 
d="M349 -407l46 271q3 15 21 15h122q14 0 14 -11q0 -2 -2 -10l-101 -284q-8 -20 -21 -20h-69q-13 0 -13 15q0 6 3 24zM34 1266h894q18 0 18 -21l-7 -204q0 -16 -17 -16h-48q-10 0 -16 16l-34 115h-272v-1054l103 -20q18 -3 22 -7.5t4 -20.5v-28q0 -16 -4.5 -21t-21.5 -5
h-348q-17 0 -21.5 5t-4.5 21v28q0 16 4 20.5t22 7.5l103 20v1054h-272l-34 -115q-6 -16 -16 -16h-48q-17 0 -17 16l-7 204q0 21 18 21z" />
    <glyph glyph-name="tcommaaccent" unicode="&#x163;" horiz-adv-x="646" 
d="M259 -407l46 271q3 15 21 15h122q14 0 14 -11q0 -2 -2 -10l-101 -284q-8 -20 -21 -20h-69q-13 0 -13 15q0 6 3 24zM211 270v544h-166q-16 0 -16 16v79q0 17 16 17h166v194q0 16 17 16h101q17 0 17 -16v-194h241q16 0 16 -17v-79q0 -16 -16 -16h-241v-544q0 -183 154 -183
q21 0 66 6q8 0 10 -11l11 -81q0 -11 -12 -13q-57 -12 -114 -12q-250 0 -250 294z" />
    <glyph glyph-name="Tcaron" unicode="&#x164;" horiz-adv-x="962" 
d="M34 1266h894q18 0 18 -21l-7 -204q0 -16 -17 -16h-48q-10 0 -16 16l-34 115h-272v-1054l103 -20q18 -3 22 -7.5t4 -20.5v-28q0 -16 -4.5 -21t-21.5 -5h-348q-17 0 -21.5 5t-4.5 21v28q0 16 4 20.5t22 7.5l103 20v1054h-272l-34 -115q-6 -16 -16 -16h-48q-17 0 -17 16
l-7 204q0 21 18 21zM548 1389h-131q-14 0 -22.5 6t-24.5 26l-129 163q-11 14 -11 19q0 7 10 11q46 20 66 20q14 0 41 -24l135 -115l135 115q27 24 41 24q18 0 66 -20q10 -4 10 -11q0 -5 -11 -19l-123 -157q-19 -24 -26 -29.5t-26 -8.5z" />
    <glyph glyph-name="tcaron" unicode="&#x165;" horiz-adv-x="683" 
d="M208 270v544h-166q-16 0 -16 16v79q0 17 16 17h166v194q0 16 17 16h101q17 0 17 -16v-194h241q16 0 16 -17v-79q0 -16 -16 -16h-241v-544q0 -183 154 -183q21 0 66 6q8 0 10 -11l11 -81q0 -11 -12 -13q-57 -12 -114 -12q-250 0 -250 294zM487 1094l46 271q3 15 21 15h122
q14 0 14 -11q0 -2 -2 -10l-101 -284q-8 -20 -21 -20h-69q-13 0 -13 15q0 6 3 24z" />
    <glyph glyph-name="Tbar" unicode="&#x166;" horiz-adv-x="962" 
d="M34 1266h894q18 0 18 -21l-7 -204q0 -16 -17 -16h-48q-10 0 -16 16l-34 115h-272v-456h199q26 0 26 -23v-62q0 -25 -24 -25h-201v-488l103 -20q18 -3 22 -7.5t4 -20.5v-28q0 -16 -4.5 -21t-21.5 -5h-348q-17 0 -21.5 5t-4.5 21v28q0 16 4 20.5t22 7.5l103 20v488h-195
q-15 0 -20.5 6t-5.5 21v58q0 11 7 18t17 7h197v456h-272l-34 -115q-6 -16 -16 -16h-48q-17 0 -17 16l-7 204q0 21 18 21z" />
    <glyph glyph-name="tbar" unicode="&#x167;" horiz-adv-x="646" 
d="M209 270v207h-141q-12 0 -12 12v84q0 14 12 14h141v227h-166q-16 0 -16 16v79q0 17 16 17h166v194q0 16 17 16h101q17 0 17 -16v-194h241q16 0 16 -17v-79q0 -16 -16 -16h-241v-227h185q12 0 12 -14v-80q0 -16 -12 -16h-185v-207q0 -183 154 -183q21 0 66 6q8 0 10 -11
l11 -81q0 -11 -12 -13q-61 -12 -114 -12q-250 0 -250 294z" />
    <glyph glyph-name="Utilde" unicode="&#x168;" horiz-adv-x="1232" 
d="M745 1385q-39 0 -92 33t-75 33q-33 0 -95 -56q-13 -12 -27 2q-25 30 -32 48l-2 8q0 5 3 13q55 105 160 105q40 0 93 -32t77 -32q37 0 93 54q14 14 25 0q18 -24 27 -40q8 -14 8 -20q0 -5 -3 -11q-26 -49 -70 -77t-90 -28zM329 432q0 -158 83 -247t227 -89
q149 0 231.5 81.5t82.5 236.5v826q0 16 4.5 21t21.5 5h89q16 0 21 -5t5 -21v-792q0 -223 -122 -348q-121 -124 -333 -124q-211 0 -331 123q-120 125 -120 351v701l-112 34q-16 4 -16 16v48q0 17 16 17h225q16 0 22 -6t6 -23v-805z" />
    <glyph glyph-name="utilde" unicode="&#x169;" horiz-adv-x="1101" 
d="M660 1072q-40 0 -92 33t-75 33q-33 0 -95 -56q-13 -12 -27 2q-25 30 -32 48l-2 8q0 6 3 13q56 105 160 105q40 0 93 -32t77 -32q38 0 93 54q14 14 25 0q18 -24 27 -40q8 -14 8 -20q0 -5 -3 -11q-26 -49 -70 -77t-90 -28zM177 814l-105 27q-17 3 -17 18v45q0 14 17 16
l224 22q16 0 16 -19v-653q0 -181 178 -181q143 0 295 143v678q0 16 17 16h102q17 0 17 -16v-796l108 -27q17 -3 17 -16v-46q0 -15 -17 -17l-208 -16q-15 0 -16 19l-13 109q-100 -76 -179 -110q-78 -34 -172 -34q-124 0 -194 68.5t-70 192.5v577z" />
    <glyph glyph-name="Umacron" unicode="&#x16a;" horiz-adv-x="1232" 
d="M329 432q0 -158 83 -247t227 -89q149 0 231.5 81.5t82.5 236.5v826q0 16 4.5 21t21.5 5h89q16 0 21 -5t5 -21v-792q0 -223 -122 -348q-121 -124 -333 -124q-211 0 -331 123q-120 125 -120 351v701l-112 34q-16 4 -16 16v48q0 17 16 17h225q16 0 22 -6t6 -23v-805z
M470 1421v88q0 14 21 14h308q16 0 19.5 -3t3.5 -10v-90q0 -14 -20 -14h-309q-14 0 -18.5 3t-4.5 12z" />
    <glyph glyph-name="umacron" unicode="&#x16b;" horiz-adv-x="1101" 
d="M177 814l-105 27q-17 3 -17 18v45q0 14 17 16l224 22q16 0 16 -19v-653q0 -181 178 -181q143 0 295 143v678q0 16 17 16h102q17 0 17 -16v-796l108 -27q17 -3 17 -16v-46q0 -15 -17 -17l-208 -16q-15 0 -16 19l-13 109q-100 -76 -179 -110q-78 -34 -172 -34
q-124 0 -194 68.5t-70 192.5v577zM376 1101v88q0 14 21 14h308q16 0 19.5 -3t3.5 -10v-90q0 -14 -20 -14h-309q-14 0 -18.5 3t-4.5 12z" />
    <glyph glyph-name="Ubreve" unicode="&#x16c;" horiz-adv-x="1232" 
d="M329 432q0 -158 83 -247t227 -89q149 0 231.5 81.5t82.5 236.5v826q0 16 4.5 21t21.5 5h89q16 0 21 -5t5 -21v-792q0 -223 -122 -348q-121 -124 -333 -124q-211 0 -331 123q-120 125 -120 351v701l-112 34q-16 4 -16 16v48q0 17 16 17h225q16 0 22 -6t6 -23v-805z
M747 1570q7 13 13 13q3 0 9 -2l72 -28q11 -5 11 -13q0 -11 -10 -32q-25 -54 -77.5 -88t-124.5 -34t-124.5 34t-77.5 88q-10 21 -10 32q0 8 11 13l72 28q6 2 9 2q6 0 13 -13q14 -31 42.5 -53t64.5 -22t64.5 22t42.5 53z" />
    <glyph glyph-name="ubreve" unicode="&#x16d;" horiz-adv-x="1101" 
d="M177 814l-105 27q-17 3 -17 18v45q0 14 17 16l224 22q16 0 16 -19v-653q0 -181 178 -181q143 0 295 143v678q0 16 17 16h102q17 0 17 -16v-796l108 -27q17 -3 17 -16v-46q0 -15 -17 -17l-208 -16q-15 0 -16 19l-13 109q-100 -76 -179 -110q-78 -34 -172 -34
q-124 0 -194 68.5t-70 192.5v577zM651 1250q7 13 13 13q3 0 9 -2l72 -28q11 -5 11 -13q0 -11 -10 -32q-25 -54 -77.5 -88t-124.5 -34t-124.5 34t-77.5 88q-10 21 -10 32q0 8 11 13l72 28q6 2 9 2q6 0 13 -13q14 -31 42.5 -53t64.5 -22t64.5 22t42.5 53z" />
    <glyph glyph-name="Uring" unicode="&#x16e;" horiz-adv-x="1232" 
d="M329 432q0 -158 83 -247t227 -89q149 0 231.5 81.5t82.5 236.5v826q0 16 4.5 21t21.5 5h89q16 0 21 -5t5 -21v-792q0 -223 -122 -348q-121 -124 -333 -124q-211 0 -331 123q-120 125 -120 351v701l-112 34q-16 4 -16 16v48q0 17 16 17h225q16 0 22 -6t6 -23v-805z
M468 1543q0 75 50 121.5t134 46.5q81 0 129.5 -45.5t48.5 -120.5q0 -70 -51 -117q-49 -45 -129 -45q-81 0 -132 45q-50 47 -50 115zM650 1634q-38 0 -60 -24.5t-22 -64.5q0 -35 22.5 -61t57.5 -26q38 0 61 25t23 64q0 38 -22.5 62.5t-59.5 24.5z" />
    <glyph glyph-name="uring" unicode="&#x16f;" horiz-adv-x="1101" 
d="M177 814l-105 27q-17 3 -17 18v45q0 14 17 16l224 22q16 0 16 -19v-653q0 -181 178 -181q143 0 295 143v678q0 16 17 16h102q17 0 17 -16v-796l108 -27q17 -3 17 -16v-46q0 -15 -17 -17l-208 -16q-15 0 -16 19l-13 109q-100 -76 -179 -110q-78 -34 -172 -34
q-124 0 -194 68.5t-70 192.5v577zM378 1228q0 75 50 121.5t134 46.5q81 0 129.5 -45.5t48.5 -120.5q0 -70 -51 -117q-49 -45 -129 -45q-81 0 -132 45q-50 47 -50 115zM560 1319q-38 0 -60 -24.5t-22 -64.5q0 -35 22.5 -61t57.5 -26q38 0 61 25t23 64q0 38 -22.5 62.5
t-59.5 24.5z" />
    <glyph glyph-name="Uhungarumlaut" unicode="&#x170;" horiz-adv-x="1232" 
d="M329 432q0 -158 83 -247t227 -89q149 0 231.5 81.5t82.5 236.5v826q0 16 4.5 21t21.5 5h89q16 0 21 -5t5 -21v-792q0 -223 -122 -348q-121 -124 -333 -124q-211 0 -331 123q-120 125 -120 351v701l-112 34q-16 4 -16 16v48q0 17 16 17h225q16 0 22 -6t6 -23v-805z
M585 1620h111q18 0 18 -10q0 -11 -24 -35l-156 -163q-20 -21 -42 -21h-77q-15 0 -15 10q0 8 25 42l108 150q14 18 22.5 22.5t29.5 4.5zM885 1620h111q18 0 18 -10q0 -11 -24 -35l-156 -163q-20 -21 -42 -21h-77q-15 0 -15 10q0 8 25 42l108 150q14 18 22.5 22.5t29.5 4.5z
" />
    <glyph glyph-name="uhungarumlaut" unicode="&#x171;" horiz-adv-x="1095" 
d="M177 814l-105 27q-17 3 -17 18v45q0 14 17 16l224 22q16 0 16 -19v-653q0 -181 178 -181q143 0 295 143v678q0 16 17 16h102q17 0 17 -16v-796l108 -27q17 -3 17 -16v-46q0 -15 -17 -17l-208 -16q-15 0 -16 19l-13 109q-100 -76 -179 -110q-78 -34 -172 -34
q-124 0 -194 68.5t-70 192.5v577zM501 1306h111q18 0 18 -10q0 -11 -24 -35l-156 -163q-20 -21 -42 -21h-77q-15 0 -15 10q0 8 25 42l108 150q14 18 22.5 22.5t29.5 4.5zM801 1306h111q18 0 18 -10q0 -11 -24 -35l-156 -163q-20 -21 -42 -21h-77q-15 0 -15 10q0 8 25 42
l108 150q14 18 22.5 22.5t29.5 4.5z" />
    <glyph glyph-name="Uogonek" unicode="&#x172;" horiz-adv-x="1232" 
d="M329 432q0 -158 83 -247t227 -89q149 0 231.5 81.5t82.5 236.5v826q0 16 4.5 21t21.5 5h89q16 0 21 -5t5 -21v-792q0 -159 -64 -270t-182 -162q-52 -52 -82 -111q-32 -62 -32 -105t27 -66t71 -23q28 0 58 11q4 1 13.5 5.5t12.5 4.5q7 0 12 -11l23 -54q2 -6 2 -8
q0 -6 -7 -12q-70 -50 -165 -50q-96 0 -147 64q-29 38 -29 92q0 97 101 227q-25 -4 -67 -4q-211 0 -331 123q-120 125 -120 351v701l-112 34q-16 4 -16 16v48q0 17 16 17h225q16 0 22 -6t6 -23v-805z" />
    <glyph glyph-name="uogonek" unicode="&#x173;" horiz-adv-x="1101" 
d="M1031 -368q-70 -50 -165 -50q-96 0 -147 64q-29 38 -29 92q0 58 32.5 127.5t85.5 133.5q-3 9 -3 12l-13 109q-100 -76 -179 -110q-78 -34 -172 -34q-124 0 -194 68.5t-70 192.5v577l-105 27q-17 3 -17 18v45q0 14 17 16l224 22q15 0 16 -19v-653q0 -181 178 -181
q143 0 295 143v678q0 16 17 16h102q17 0 17 -16v-796l108 -27q17 -5 17 -16v-46q0 -14 -17 -17l-111 -8q-43 -47 -70 -111q-27 -65 -27 -105q0 -43 26.5 -65.5t69.5 -22.5q28 0 58 11q4 1 13.5 5.5t12.5 4.5q7 0 12 -11l23 -54q2 -6 2 -8q0 -6 -7 -12z" />
    <glyph glyph-name="Wcircumflex" unicode="&#x174;" horiz-adv-x="1718" 
d="M958 1250q208 -853 247 -1082l6 -36h6q167 401 337 1115q4 18 24 18h115q17 0 17 -15q0 -3 -3 -15q-58 -271 -179 -627q-116 -344 -235 -592q-7 -16 -23 -16h-130q-20 0 -24 16l-200 836l-5 20q0 -32 -35 -164q-20 -72 -204 -692q-4 -16 -23 -16h-141q-20 0 -24 16
l-341 1135l-111 34q-16 4 -16 16v48q0 17 16 17h216q15 0 19 -16l305 -1082q6 -26 9 -38h4q1 6 9 32t27.5 93.5t36.5 127.5q42 141 118 405q46 160 79 289q-31 126 -41 158l-5 22q0 9 17 9h116q12 0 16 -16zM809 1628h131q21 0 34 -17q2 -1 6 -6l8 -10l4 -5l124 -157
q11 -14 11 -19q0 -7 -10 -11q-46 -20 -66 -20q-14 0 -41 24l-135 115l-135 -115q-27 -24 -41 -24q-18 0 -66 20q-10 4 -10 11q0 5 11 19l123 157q19 24 26 29.5t26 8.5z" />
    <glyph glyph-name="wcircumflex" unicode="&#x175;" horiz-adv-x="1450" 
d="M808 909q110 -425 180 -654q31 -107 34 -127q140 302 255 769q8 29 28 29h99q25 0 25 -13q0 -6 -14 -57q-84 -309 -219 -612q-70 -160 -112 -228q-10 -16 -29 -16h-73q-23 0 -31 18q-5 10 -12 30q-103 291 -166 517q-10 41 -18 59l-2 -3q0 -23 -11 -58
q-68 -203 -196 -547q-7 -16 -29 -16h-74q-22 0 -30 17l-16 37q-59 136 -108 288q-48 146 -87 289q-42 153 -53 185l-110 24q-17 3 -17 18l-2 45q0 14 17 16q195 18 211 19q15 0 18 -10q134 -506 182 -666q0 -1 6.5 -22.5t15.5 -54.5t13 -56q151 417 222 663l-33 115
q-1 1 -1 6q0 13 18 13h103q11 0 16 -17zM679 1310h131q21 0 34 -17q2 -1 6 -6l8 -10l4 -5l124 -157q11 -14 11 -19q0 -7 -10 -11q-46 -20 -66 -20q-14 0 -41 24l-135 115l-135 -115q-27 -24 -41 -24q-18 0 -66 20q-10 4 -10 11q0 5 11 19l123 157q19 24 26 29.5t26 8.5z" />
    <glyph glyph-name="Ycircumflex" unicode="&#x176;" horiz-adv-x="1024" 
d="M675 208q-49 -117 -123 -173q-73 -54 -206 -54q-91 0 -154 19q-17 5 -17 20q0 6 18 76q5 17 20 17l18 -3q48 -10 110 -10q113 0 167 76q32 43 46 76q19 43 38 99l20 60h-99q-177 0 -237 141q-23 55 -104 389q-39 165 -52 217l-87 27q-16 4 -16 16v48q0 17 16 17h209
q20 0 23 -24q22 -151 65 -359q46 -225 74 -285q33 -73 172 -73h39q17 1 35 1q118 373 201 722q3 11 8 14.5t16 3.5h110q24 0 24 -12q0 -4 -1 -7q-182 -673 -333 -1039zM479 1628h131q21 0 34 -17q2 -1 6 -6l8 -10l4 -5l124 -157q11 -14 11 -19q0 -7 -10 -11q-46 -20 -66 -20
q-14 0 -41 24l-135 115l-135 -115q-27 -24 -41 -24q-18 0 -66 20q-10 4 -10 11q0 5 11 19l123 157q19 24 26 29.5t26 8.5z" />
    <glyph glyph-name="ycircumflex" unicode="&#x177;" horiz-adv-x="1014" 
d="M187 -330q124 -6 227 116q29 32 53 76q29 53 42 80q8 16 38 82h-8q-81 0 -122 16q-41 17 -70 61q-45 72 -100 279q-44 170 -106 436l-104 24q-17 3 -17 18v45q0 15 18 16l212 19q16 0 17 -10q12 -55 20 -103q4 -23 15 -83q50 -276 111 -486q29 -96 83 -127q20 -12 70 -12
q17 0 22 1q118 287 244 777q7 31 28 31h108q22 0 22 -14q0 -6 -14 -56q-128 -460 -301 -843q-6 -14 -17 -37.5t-15 -31.5q-3 -8 -32 -67q-22 -45 -38 -71q-15 -24 -42 -63q-24 -37 -49 -60q-70 -70 -118 -89q-73 -34 -153 -34q-49 0 -87 11q-9 1 -9 15l12 73q2 14 13 14
q26 -3 47 -3zM498 1310h131q21 0 34 -17q2 -1 6 -6l8 -10l4 -5l124 -157q11 -14 11 -19q0 -7 -10 -11q-46 -20 -66 -20q-14 0 -41 24l-135 115l-135 -115q-27 -24 -41 -24q-18 0 -66 20q-10 4 -10 11q0 5 11 19l123 157q19 24 26 29.5t26 8.5z" />
    <glyph glyph-name="Ydieresis" unicode="&#x178;" horiz-adv-x="1024" 
d="M675 208q-49 -117 -123 -173q-73 -54 -206 -54q-91 0 -154 19q-17 5 -17 20q0 6 18 76q5 17 20 17l18 -3q48 -10 110 -10q113 0 167 76q32 43 46 76q19 43 38 99l20 60h-99q-177 0 -237 141q-23 55 -104 389q-39 165 -52 217l-87 27q-16 4 -16 16v48q0 17 16 17h209
q20 0 23 -24q22 -151 65 -359q46 -225 74 -285q33 -73 172 -73h39q17 1 35 1q118 373 201 722q3 11 8 14.5t16 3.5h110q24 0 24 -12q0 -4 -1 -7q-182 -673 -333 -1039zM778 1414q-24 -24 -59 -24t-59 24t-24 59t24 59t59 24t59 -24t24 -59t-24 -59zM476 1414
q-24 -24 -59 -24t-59 24t-24 59t24 59t59 24t59 -24t24 -59t-24 -59z" />
    <glyph glyph-name="Zacute" unicode="&#x179;" horiz-adv-x="1001" 
d="M210 1156l-34 -115q-6 -16 -16 -16h-48q-17 0 -17 16l-7 204q0 21 18 21h794q21 0 21 -19v-65q0 -18 -12 -37l-681 -1035h453q76 0 113 27.5t45 102.5q0 19 18 19h87q12 0 12 -16q-7 -144 -84 -197q-67 -46 -187 -46h-596q-18 0 -18 22v74q0 13 10 26l681 1034h-552z
M599 1612h133q15 0 15 -10q0 -12 -25 -34l-173 -158q-21 -21 -44 -21h-85q-13 0 -13 8q0 9 12 23l128 165q15 18 24 22.5t28 4.5z" />
    <glyph glyph-name="zacute" unicode="&#x17a;" horiz-adv-x="867" 
d="M240 111h319q69 0 104 30.5t39 102.5q0 16 19 16h83q14 0 14 -16q-7 -139 -76 -192q-67 -52 -194 -52h-461q-17 0 -17 17v77q0 20 6 28l3 3l520 667q10 11 10 17t-15 6h-400l-29 -108q-5 -17 -16 -17h-43q-14 0 -17 17l-15 188q0 31 32 31h645q21 0 21 -20v-79
q0 -17 -10 -30l-527 -663q-10 -11 -10 -17t15 -6zM548 1299h133q15 0 15 -10q0 -12 -25 -34l-173 -158q-21 -21 -44 -21h-85q-13 0 -13 8q0 10 12 23l128 165q15 18 24 22.5t28 4.5z" />
    <glyph glyph-name="Zdotaccent" unicode="&#x17b;" horiz-adv-x="1001" 
d="M210 1156l-34 -115q-6 -16 -16 -16h-48q-17 0 -17 16l-7 204q0 21 18 21h794q21 0 21 -19v-65q0 -18 -12 -37l-681 -1035h453q76 0 113 27.5t45 102.5q0 19 18 19h87q12 0 12 -16q-7 -144 -84 -197q-67 -46 -187 -46h-596q-18 0 -18 22v74q0 13 10 26l681 1034h-552z
M521 1586q39 0 65.5 -26.5t26.5 -64.5t-26.5 -64.5t-65.5 -26.5q-38 0 -64.5 26.5t-26.5 64.5t26.5 64.5t64.5 26.5z" />
    <glyph glyph-name="zdotaccent" unicode="&#x17c;" horiz-adv-x="867" 
d="M240 111h319q69 0 104 30.5t39 102.5q0 16 19 16h83q14 0 14 -16q-7 -139 -76 -192q-67 -52 -194 -52h-461q-17 0 -17 17v77q0 20 6 28l3 3l520 667q10 11 10 17t-15 6h-400l-29 -108q-5 -17 -16 -17h-43q-14 0 -17 17l-15 188q0 31 32 31h645q21 0 21 -20v-79
q0 -17 -10 -30l-527 -663q-10 -11 -10 -17t15 -6zM447 1258q39 0 65.5 -26.5t26.5 -64.5t-26.5 -64.5t-65.5 -26.5q-38 0 -64.5 26.5t-26.5 64.5t26.5 64.5t64.5 26.5z" />
    <glyph glyph-name="Zcaron" unicode="&#x17d;" horiz-adv-x="1001" 
d="M210 1156l-34 -115q-6 -16 -16 -16h-48q-17 0 -17 16l-7 204q0 21 18 21h794q21 0 21 -19v-65q0 -18 -12 -37l-681 -1035h453q76 0 113 27.5t45 102.5q0 19 18 19h87q12 0 12 -16q-7 -144 -84 -197q-67 -46 -187 -46h-596q-18 0 -18 22v74q0 13 10 26l681 1034h-552z
M595 1389h-131q-14 0 -22.5 6t-24.5 26l-129 163q-11 14 -11 19q0 7 10 11q46 20 66 20q14 0 41 -24l135 -115l135 115q27 24 41 24q18 0 66 -20q10 -4 10 -11q0 -5 -11 -19l-123 -157q-19 -24 -26 -29.5t-26 -8.5z" />
    <glyph glyph-name="zcaron" unicode="&#x17e;" horiz-adv-x="867" 
d="M240 111h319q69 0 104 30.5t39 102.5q0 16 19 16h83q14 0 14 -16q-7 -139 -76 -192q-67 -52 -194 -52h-461q-17 0 -17 17v77q0 20 6 28l3 3l520 667q10 11 10 17t-15 6h-400l-29 -108q-5 -17 -16 -17h-43q-14 0 -17 17l-15 188q0 31 32 31h645q21 0 21 -20v-79
q0 -17 -10 -30l-527 -663q-10 -11 -10 -17t15 -6zM504 1076h-131q-14 0 -22.5 6t-24.5 26l-129 163q-11 14 -11 19q0 7 10 11q46 20 66 20q14 0 41 -24l135 -115l135 115q27 24 41 24q18 0 66 -20q10 -4 10 -11q0 -5 -11 -19l-123 -157q-19 -24 -26 -29.5t-26 -8.5z" />
    <glyph glyph-name="longs" unicode="&#x17f;" horiz-adv-x="509" 
d="M325 27q0 -17 -4.5 -22t-21.5 -5h-83q-17 0 -21.5 5t-4.5 22v772l-114 35q-16 4 -16 16v49q0 17 16 17h114v203q0 157 53 225.5t178 68.5q47 0 128 -24q10 -4 10 -14l-12 -79q-1 -9 -6 -9q-3 0 -6 1q-64 14 -75 14q-76 0 -106 -41q-29 -41 -29 -142v-1092z" />
    <glyph glyph-name="uni018F" unicode="&#x18f;" horiz-adv-x="1177" 
d="M175 1102q-9 -3 -12 -3q-9 0 -10 13q-12 65 -12 80q0 11 11 16q56 26 135 49q117 34 244 34q173 0 300 -79q126 -79 189.5 -227t63.5 -348q0 -140 -31 -256.5t-85 -193.5q-52 -73 -122 -122q-126 -89 -285 -89q-469 0 -479 609q0 16 1 22q2 20 21 20h830q0 2 0.5 9t0.5 9
q0 248 -117 392q-112 139 -319 139q-88 0 -196 -31q-80 -23 -128 -43zM565 92q156 0 258 124q83 103 105 300h-700q5 -85 6 -92q50 -332 331 -332z" />
    <glyph glyph-name="florin" unicode="&#x192;" horiz-adv-x="702" 
d="M96 767q0 16 16 16h138q0 2 1.5 34t2.5 53t2.5 53.5t1.5 39.5q1 32 5 70q10 122 74.5 188.5t170.5 66.5q102 0 156 -16l21 -5q7 -1 7 -10l-8 -84q-2 -9 -13 -9q-66 12 -135 12q-67 0 -102 -37.5t-41 -117.5q-2 -31 -4 -123q0 -21 -0.5 -48t-1 -42.5t-0.5 -24.5h223
q16 0 16 -16v-79q0 -16 -16 -16h-229q-14 -252 -17 -293q-8 -105 -21 -231q-14 -131 -31 -205q-22 -95 -65 -195q-40 -98 -98 -155q-8 -8 -15 -8q-8 0 -13 5l-63 54q-9 8 -9 16q0 7 7 17q78 106 121 299q19 85 33 205q16 138 19 199q5 80 12 231l3 61h-132q-16 0 -16 16v79z
" />
    <glyph glyph-name="Aringacute" unicode="&#x1fa;" horiz-adv-x="1052" 
d="M855 16l-87 258h-479l-94 -258q-6 -16 -18 -16h-113q-15 0 -15 14q0 2 2 10l362 939l-87 28q-16 6 -16 16v48q0 6 5 11t11 5h286q18 0 22 -16l367 -1033q3 -8 3 -11q0 -11 -16 -11h-115q-12 0 -18 16zM538 958l-209 -574h402zM331 1293q0 75 50 121.5t134 46.5
q81 0 129.5 -45.5t48.5 -120.5q0 -71 -51 -117q-50 -45 -129 -45q-81 0 -132 45q-50 47 -50 115zM633 1705h112q15 0 15 -10q0 -11 -26 -34l-138 -126q-22 -21 -45 -21h-71q-13 0 -13 8q0 6 12 23l103 133q20 27 51 27zM513 1384q-38 0 -60 -24.5t-22 -64.5q0 -35 22.5 -61
t57.5 -26q38 0 61 25t23 64q0 38 -22.5 62.5t-59.5 24.5z" />
    <glyph glyph-name="aringacute" unicode="&#x1fb;" horiz-adv-x="916" 
d="M597 1620h112q36 0 -9 -42l-2 -2l-138 -126q-22 -21 -45 -21h-71q-13 0 -13 8q0 9 12 23l103 133q20 27 51 27zM294 1208q0 75 50 121.5t134 46.5q81 0 129.5 -45.5t48.5 -120.5q0 -70 -51 -117q-49 -45 -129 -45q-81 0 -132 45q-50 47 -50 115zM476 1299
q-38 0 -60 -24.5t-22 -64.5q0 -35 22.5 -61t57.5 -26q38 0 61 25t23 64q0 38 -22.5 62.5t-59.5 24.5zM763 546v-447q15 -8 99 -34q10 -3 12 -5t2 -9v-41q0 -8 -12 -9l-192 -20q-11 0 -14.5 4t-5.5 16l-15 115q-143 -140 -295 -140q-130 0 -200.5 70t-70.5 197
q-1 186 192 246q75 23 177 29q54 2 90 2h99v93q0 115 -55.5 169t-167.5 54q-86 0 -210 -57l-20 -9l-8 -2q-8 0 -9 6l-17 70q-3 11 7 18l17 10q43 26 123 52q78 25 153 25q230 0 296 -177q25 -63 25 -226zM629 214v208q-174 0 -240 -8q-89 -12 -134 -50t-45 -113
q0 -73 51 -117q52 -43 129 -43q62 0 126.5 32.5t112.5 90.5z" />
    <glyph glyph-name="AEacute" unicode="&#x1fc;" horiz-adv-x="1493" 
d="M371 456h406l-80 706h-6zM1351 621h-459l60 -511h450q16 0 21 -5t5 -21v-58q0 -16 -5 -21t-21 -5h-557q-6 0 -11 5t-5 11l-38 326h-466l-148 -326q-6 -16 -19 -16h-116q-16 0 -16 13q0 5 3 11l535 1134l-88 28q-16 6 -16 16v48q0 6 5 11t11 5h925q17 0 21.5 -5t4.5 -21
v-58q0 -16 -4.5 -21t-21.5 -5h-569l48 -425h471q17 0 21.5 -4.5t4.5 -21.5v-58q0 -17 -4.5 -21.5t-21.5 -4.5zM949 1612h133q15 0 15 -10q0 -12 -25 -34l-173 -158q-21 -21 -44 -21h-85q-13 0 -13 8q0 10 12 23l128 165q15 18 24 22.5t28 4.5z" />
    <glyph glyph-name="aeacute" unicode="&#x1fd;" horiz-adv-x="1466" 
d="M1025 837q-108 0 -174 -77.5t-81 -214.5h472v26q0 123 -60 194q-60 72 -157 72zM376 87q152 0 246 109v243q-138 0 -159 -1q-90 -2 -144 -17q-39 -11 -63 -30q-56 -45 -56 -140q0 -72 50 -119q51 -45 126 -45zM727 788q111 162 300 162q349 0 349 -458v-21q0 -34 -17 -34
h-592q8 -181 88.5 -265t238.5 -84q114 0 226 47q12 5 15 5q7 0 10 -3.5t6 -17.5l13 -60q0 -10 -12 -16q-134 -67 -283 -67q-251 0 -347 170q-58 -80 -152 -125t-204 -45q-130 0 -213 72q-82 72 -82 195q0 300 409 300h147v71q0 115 -54 169t-164 54q-85 0 -206 -57
q-19 -10 -28 -10q-6 0 -8 5q0 1 -7.5 32t-8.5 33l-1 6q0 14 24 27q40 25 115 50q78 26 142 27h13q212 0 283 -162zM874 1299h133q15 0 15 -10q0 -12 -25 -34l-173 -158q-21 -21 -44 -21h-85q-13 0 -13 8q0 10 12 23l128 165q15 18 24 22.5t28 4.5z" />
    <glyph glyph-name="Oslashacute" unicode="&#x1fe;" horiz-adv-x="1217" 
d="M609 -24q-157 0 -275 73l-75 -128q-12 -19 -30 -19h-81q-16 0 -16 13q0 6 5 14l112 191q-156 168 -156 517q0 294 114 466q123 187 402 187q168 0 284 -74l95 161q8 12 22 12h89q15 0 15 -10q0 -1 -5 -13l-131 -222q146 -164 146 -507q0 -151 -31 -272t-84 -195
q-49 -70 -120 -117q-119 -77 -280 -77zM241 645q0 -262 80 -402l508 864q-88 74 -222 74q-237 0 -321 -228q-45 -130 -45 -308zM608 86q368 0 368 559q0 236 -74 370l-506 -862q82 -67 212 -67zM708 1612h133q15 0 15 -10q0 -12 -25 -34l-173 -158q-21 -21 -44 -21h-85
q-13 0 -13 8q0 10 12 23l128 165q15 18 24 22.5t28 4.5z" />
    <glyph glyph-name="oslashacute" unicode="&#x1ff;" horiz-adv-x="1037" 
d="M95 475q-3 217 104 345.5t316 129.5q125 0 218 -51l57 97q8 12 22 12h84q13 0 13 -13q0 -4 -3 -10l-88 -150q124 -127 124 -360q0 -116 -26.5 -209.5t-70.5 -149.5q-40 -52 -99 -85q-96 -55 -220 -55q-107 0 -191 37l-54 -92q-12 -19 -30 -19h-77q-15 0 -15 13q0 7 4 14
l82 140q-150 129 -150 406zM235 472q0 -194 74 -294l363 618q-64 42 -158 42q-150 0 -215 -96q-64 -95 -64 -270zM798 472q0 154 -51 243l-355 -605q57 -26 133 -26q142 -3 215 109q58 93 58 279zM604 1299h133q15 0 15 -10q0 -12 -25 -34l-173 -158q-21 -21 -44 -21h-85
q-13 0 -13 8q0 10 12 23l128 165q15 18 24 22.5t28 4.5z" />
    <glyph glyph-name="Scommaaccent" unicode="&#x218;" horiz-adv-x="1002" 
d="M181 243l32 -115q135 -35 227 -35q118 0 209 47q50 25 78 73t28 112q0 56 -29 101q-20 37 -75 73q-17 13 -51 30q-43 22 -52 25q-38 18 -58 26q-12 5 -30.5 13t-24.5 11q-141 63 -190 100q-126 92 -128 245q0 86 34.5 154t95.5 108q121 79 298 79q144 0 294 -40
q16 -4 16 -21v-182q0 -16 -15 -16h-50q-10 0 -16 16l-39 115q-103 20 -180 20q-140 0 -214.5 -57.5t-74.5 -168.5q0 -68 49 -119q21 -22 57 -44q40 -24 64 -36q58 -26 74 -33q133 -58 208.5 -102t117.5 -91q43 -46 57 -92q14 -47 14 -112q0 -93 -34.5 -161.5t-96.5 -109
t-141 -59.5t-175 -19q-186 0 -354 61q-16 4 -16 21l10 183q0 16 17 16h48q12 0 16 -16zM379 -407l46 271q3 15 21 15h122q14 0 14 -11q0 -2 -2 -10l-101 -284q-8 -20 -21 -20h-69q-13 0 -13 15q0 6 3 24z" />
    <glyph glyph-name="scommaaccent" unicode="&#x219;" horiz-adv-x="881" 
d="M89 43q-11 5 -11 16l16 168q2 17 17 17h44q13 0 16 -17l26 -113q97 -30 228 -30q111 0 173.5 44t62.5 124q0 62 -50 92q-48 29 -190 61q-138 30 -217 80q-97 62 -97 192q0 273 358 273q132 0 282 -55q12 -3 12 -16l-13 -160q-2 -17 -17 -17h-41q-13 0 -18 17l-29 108
q-107 25 -180 25q-108 0 -165 -39t-57 -111q0 -78 82 -118q49 -24 200 -59q125 -31 194 -81q85 -62 85 -179q0 -77 -29.5 -134.5t-81.5 -90.5t-116 -48.5t-140 -15.5q-188 0 -344 67zM299 -407l46 271q3 15 21 15h122q14 0 14 -11q0 -2 -2 -10l-101 -284q-8 -20 -21 -20h-69
q-13 0 -13 15q0 6 3 24z" />
    <glyph glyph-name="uni021A" unicode="&#x21a;" horiz-adv-x="962" 
d="M349 -407l46 271q3 15 21 15h122q14 0 14 -11q0 -2 -2 -10l-101 -284q-8 -20 -21 -20h-69q-13 0 -13 15q0 6 3 24zM34 1266h894q18 0 18 -21l-7 -204q0 -16 -17 -16h-48q-10 0 -16 16l-34 115h-272v-1054l103 -20q18 -3 22 -7.5t4 -20.5v-28q0 -16 -4.5 -21t-21.5 -5
h-348q-17 0 -21.5 5t-4.5 21v28q0 16 4 20.5t22 7.5l103 20v1054h-272l-34 -115q-6 -16 -16 -16h-48q-17 0 -17 16l-7 204q0 21 18 21z" />
    <glyph glyph-name="uni021B" unicode="&#x21b;" horiz-adv-x="646" 
d="M259 -407l46 271q3 15 21 15h122q14 0 14 -11q0 -2 -2 -10l-101 -284q-8 -20 -21 -20h-69q-13 0 -13 15q0 6 3 24zM211 270v544h-166q-16 0 -16 16v79q0 17 16 17h166v194q0 16 17 16h101q17 0 17 -16v-194h241q16 0 16 -17v-79q0 -16 -16 -16h-241v-544q0 -183 154 -183
q21 0 66 6q8 0 10 -11l11 -81q0 -11 -12 -13q-57 -12 -114 -12q-250 0 -250 294z" />
    <glyph glyph-name="uni0259" unicode="&#x259;" horiz-adv-x="942" 
d="M847 475v-17q-1 -220 -107 -351q-104 -131 -296 -131q-182 0 -272 109t-90 341v21q0 34 20 34h602q0 173 -86.5 264.5t-248.5 91.5q-114 0 -236 -65q-12 -6 -17 -6q-6 0 -8.5 4.5t-4.5 18.5l-9 67q0 11 12 17q52 31 137 54q87 23 157 23q213 0 329 -125
q117 -126 118 -350zM444 90q113 0 178 73t78 209h-481v-26q0 -121 61 -188.5t164 -67.5z" />
    <glyph glyph-name="uni02BC" unicode="&#x2bc;" horiz-adv-x="361" 
d="M322 1382l-157 -399q-5 -9 -15 -9h-79q-10 0 -10 12q0 4 72 398q3 16 21 16h155q15 0 15 -8q0 -4 -2 -10z" />
    <glyph glyph-name="circumflex" unicode="&#x2c6;" horiz-adv-x="668" 
d="M268 1310h131q21 0 34 -17q2 -1 6 -6l8 -10l4 -5l124 -157q11 -14 11 -19q0 -7 -10 -11q-46 -20 -66 -20q-14 0 -41 24l-135 115l-135 -115q-27 -24 -41 -24q-18 0 -66 20q-10 4 -10 11q0 5 11 19l123 157q19 24 26 29.5t26 8.5z" />
    <glyph glyph-name="caron" unicode="&#x2c7;" horiz-adv-x="668" 
d="M400 1076h-131q-14 0 -22.5 6t-24.5 26l-129 163q-11 14 -11 19q0 7 10 11q46 20 66 20q14 0 41 -24l135 -115l135 115q27 24 41 24q18 0 66 -20q10 -4 10 -11q0 -5 -11 -19l-123 -157q-19 -24 -26 -29.5t-26 -8.5z" />
    <glyph glyph-name="breve" unicode="&#x2d8;" horiz-adv-x="588" 
d="M401 1250q7 13 13 13q3 0 9 -2l72 -28q11 -5 11 -13q0 -11 -10 -32q-25 -54 -77.5 -88t-124.5 -34t-124.5 34t-77.5 88q-10 21 -10 32q0 8 11 13l72 28q6 2 9 2q6 0 13 -13q14 -31 42.5 -53t64.5 -22t64.5 22t42.5 53z" />
    <glyph glyph-name="dotaccent" unicode="&#x2d9;" horiz-adv-x="347" 
d="M173 1300q39 0 65.5 -26.5t26.5 -64.5t-26.5 -64.5t-65.5 -26.5q-38 0 -64.5 26.5t-26.5 64.5t26.5 64.5t64.5 26.5z" />
    <glyph glyph-name="ring" unicode="&#x2da;" horiz-adv-x="526" 
d="M82 1228q0 75 50 121.5t134 46.5q81 0 129.5 -45.5t48.5 -120.5q0 -70 -51 -117q-49 -45 -129 -45q-81 0 -132 45q-50 47 -50 115zM264 1319q-38 0 -60 -24.5t-22 -64.5q0 -35 22.5 -61t57.5 -26q38 0 61 25t23 64q0 38 -22.5 62.5t-59.5 24.5z" />
    <glyph glyph-name="ogonek" unicode="&#x2db;" horiz-adv-x="462" 
d="M415 -368q-70 -50 -165 -50q-96 0 -147 64q-29 38 -29 92q0 69 43 151q43 81 102 141h109q-47 -47 -86 -117q-37 -67 -37 -129q0 -43 26.5 -65.5t69.5 -22.5q28 0 58 11q4 1 13.5 5.5t12.5 4.5q7 0 12 -11l23 -54q2 -6 2 -7q0 -7 -7 -13z" />
    <glyph glyph-name="tilde" unicode="&#x2dc;" horiz-adv-x="650" 
d="M405 1072q-39 0 -92 33t-75 33q-33 0 -95 -56q-8 -6 -13 -6q-6 0 -14 8q-25 30 -32 48l-2 8q0 6 3 13q55 105 160 105q40 0 93 -32t77 -32q37 0 93 54q14 14 25 0q18 -24 27 -40q8 -14 8 -20q0 -5 -3 -11q-26 -49 -70 -77t-90 -28z" />
    <glyph glyph-name="hungarumlaut" unicode="&#x2dd;" horiz-adv-x="745" 
d="M267 1306h111q18 0 18 -10q0 -11 -24 -35l-156 -163q-20 -21 -42 -21h-77q-15 0 -15 10q0 8 25 42l108 150q14 18 22.5 22.5t29.5 4.5zM567 1306h111q18 0 18 -10q0 -11 -24 -35l-156 -163q-20 -21 -42 -21h-77q-15 0 -15 10q0 8 25 42l108 150q14 18 22.5 22.5t29.5 4.5
z" />
    <glyph glyph-name="uni037E" unicode="&#x37e;" horiz-adv-x="403" 
d="M141 724q-30 30 -30 74t30 74q31 30 74 30t73 -30q31 -30 31 -74t-31 -74q-30 -30 -73 -30t-74 30zM301 187l-153 -416q-6 -15 -15 -15h-86q-11 0 -11 12q0 7 7 45q26 140 28 152q28 148 41 222q3 15 19 15h156q15 0 15 -10q0 -3 -1 -5z" />
    <glyph glyph-name="tonos" unicode="&#x384;" horiz-adv-x="343" 
d="M255 1291q-64 -178 -76 -201q-10 -22 -22 -22h-61q-14 0 -14 13q0 7 25 220q3 26 30 26h103q21 0 21 -14q0 -4 -6 -22z" />
    <glyph glyph-name="dieresistonos" unicode="&#x385;" horiz-adv-x="722" 
d="M626 1097q-24 -24 -59 -24t-59 24t-24 59t24 59t59 24t59 -24t24 -59t-24 -59zM214 1097q-24 -24 -59 -24t-59 24t-24 59t24 59t59 24t59 -24t24 -59t-24 -59zM468 1291q-64 -178 -76 -201q-10 -22 -22 -22h-61q-14 0 -14 13q0 7 25 220q3 26 30 26h103q21 0 21 -14
q0 -4 -6 -22z" />
    <glyph glyph-name="Alphatonos" unicode="&#x386;" horiz-adv-x="1118" 
d="M788 454l-217 711l-236 -711h453zM439 1158l-87 28q-16 6 -16 16v48q0 6 5 11t11 5h297q18 0 22 -16l396 -1228q2 -8 2 -9q0 -5 -5 -9t-10 -4h-118q-14 0 -18 16l-98 328h-519l-103 -328q-4 -16 -18 -16h-116q-16 0 -16 12q0 3 3 12zM275 1321q-64 -178 -76 -201
q-10 -22 -22 -22h-61q-14 0 -14 13q0 7 25 220q3 26 30 26h103q21 0 21 -14q0 -4 -6 -22z" />
    <glyph glyph-name="anoteleia" unicode="&#x387;" horiz-adv-x="416" 
d="M132 724q-30 30 -30 74t30 74t74 30t74 -30t30 -74t-30 -74t-74 -30t-74 30z" />
    <glyph glyph-name="Epsilontonos" unicode="&#x388;" horiz-adv-x="1144" 
d="M265 1266h793q16 0 21 -5t5 -21v-58q0 -16 -5 -21t-21 -5h-546v-424h400q16 0 21 -5t5 -21v-58q0 -16 -5 -21t-21 -5h-400v-512h546q16 0 21 -5t5 -21v-58q0 -16 -5 -21t-21 -5h-661q-17 0 -21.5 5t-4.5 21v1115l-106 44q-16 6 -16 16v48q0 17 16 17zM195 1321
q-64 -178 -76 -201q-10 -22 -22 -22h-61q-14 0 -14 13q0 7 25 220q3 26 30 26h103q21 0 21 -14q0 -4 -6 -22z" />
    <glyph glyph-name="Etatonos" unicode="&#x389;" horiz-adv-x="1409" 
d="M377 1151l-112 34q-16 4 -16 16v48q0 17 16 17h225q16 0 22 -6t6 -23v-586h590v589q0 16 5 21t21 5h89q17 0 21.5 -5t4.5 -21v-1214q0 -16 -4.5 -21t-21.5 -5h-89q-16 0 -21 5t-5 21v514h-590v-514q0 -16 -5 -21t-21 -5h-89q-17 0 -21.5 5t-4.5 21v1125zM186 1321
q-64 -178 -76 -201q-10 -22 -22 -22h-61q-14 0 -14 13q0 7 25 220q3 26 30 26h103q21 0 21 -14q0 -4 -6 -22z" />
    <glyph glyph-name="Iotatonos" unicode="&#x38a;" horiz-adv-x="753" 
d="M185 1321q-64 -178 -76 -201q-10 -22 -22 -22h-61q-14 0 -14 13q0 7 25 220q3 26 30 26h103q21 0 21 -14q0 -4 -6 -22zM625 1184l-103 -20v-1062l103 -20q18 -3 22 -7.5t4 -20.5v-28q0 -16 -4.5 -21t-21.5 -5h-348q-17 0 -21.5 5t-4.5 21v28q0 16 4 20.5t22 7.5l104 20
v1062l-104 20q-18 3 -22 7.5t-4 20.5v28q0 16 4.5 21t21.5 5h348q17 0 21.5 -5t4.5 -21v-28q0 -16 -4.5 -20.5t-21.5 -7.5z" />
    <glyph glyph-name="Omicrontonos" unicode="&#x38c;" horiz-adv-x="1243" 
d="M637 -24q-52 0 -101 8t-101.5 28.5t-97 53t-85.5 84.5t-69.5 119t-45 161t-16.5 207q0 294 114 466q123 187 402 187q112 0 200 -32t146.5 -89t97 -140t55 -179.5t16.5 -212.5q0 -151 -31 -272t-84 -195q-49 -70 -120 -117q-119 -77 -280 -77zM636 86q368 0 368 559
q0 536 -369 536q-237 0 -321 -228q-45 -130 -45 -308q0 -270 82 -408q35 -58 87 -94q49 -33 94 -45t104 -12zM185 1321q-64 -178 -76 -201q-10 -22 -22 -22h-61q-14 0 -14 13q0 7 25 220q3 26 30 26h103q21 0 21 -14q0 -4 -6 -22z" />
    <glyph glyph-name="Upsilontonos" unicode="&#x38e;" horiz-adv-x="1314" 
d="M1152 1266h100q33 0 33 -18q0 -8 -7 -21q-221 -430 -269 -526q-76 -154 -137 -290v-385q0 -16 -5 -21t-21 -5h-90q-16 0 -21 5t-5 21v385q-160 376 -364 740l-110 34q-16 4 -16 16v48q0 17 16 17h209q14 0 22 -14q170 -308 319 -684h4q42 108 137 324q89 201 170 349
q15 25 35 25zM183 1321q-64 -178 -76 -201q-10 -22 -22 -22h-61q-14 0 -14 13q0 7 25 220q3 26 30 26h103q21 0 21 -14q0 -4 -6 -22z" />
    <glyph glyph-name="Omegatonos" unicode="&#x38f;" horiz-adv-x="1263" 
d="M1160 651q0 -143 -48.5 -281t-137.5 -254v-5l128 -33q8 -3 8 -17v-44q0 -17 -16 -17h-274q-16 0 -21 5t-5 22v56q0 6 6 12q91 79 151 218q61 138 61 329q0 538 -380 538t-380 -538q0 -190 60 -329q61 -139 152 -218q6 -6 6 -12v-56q0 -17 -5 -22t-21 -5h-274
q-16 0 -16 17v44q0 14 8 17l128 33v5q-89 116 -137.5 254t-48.5 281q0 285 122 456q63 88 166.5 135.5t239.5 47.5t239.5 -47.5t166.5 -135.5q122 -171 122 -456zM185 1321q-64 -178 -76 -201q-10 -22 -22 -22h-61q-14 0 -14 13q0 7 25 220q3 26 30 26h103q21 0 21 -14
q0 -4 -6 -22z" />
    <glyph glyph-name="iotadieresistonos" unicode="&#x390;" horiz-adv-x="633" 
d="M533 1097q-24 -24 -59 -24t-59 24t-24 59t24 59t59 24t59 -24t24 -59t-24 -59zM121 1097q-24 -24 -59 -24t-59 24t-24 59t24 59t59 24t59 -24t24 -59t-24 -59zM375 1291q-64 -178 -76 -201q-10 -22 -22 -22h-61q-14 0 -14 13q0 7 25 220q3 26 30 26h103q21 0 21 -14
q0 -4 -6 -22zM211 815l-106 27q-17 3 -17 18v45q0 14 17 16l225 23q16 0 16 -19v-649q0 -96 38.5 -142t119.5 -46q33 0 87 9l7 1q10 0 11 -12l7 -76q0 -12 -12 -15q-82 -18 -147 -18q-124 0 -185 72.5t-61 226.5v539z" />
    <glyph glyph-name="Alpha" unicode="&#x391;" horiz-adv-x="1118" 
d="M788 454l-217 711l-236 -711h453zM439 1158l-87 28q-16 6 -16 16v48q0 6 5 11t11 5h297q18 0 22 -16l396 -1228q2 -8 2 -9q0 -5 -5 -9t-10 -4h-118q-14 0 -18 16l-98 328h-519l-103 -328q-4 -16 -18 -16h-116q-16 0 -16 12q0 3 3 12z" />
    <glyph glyph-name="Beta" unicode="&#x392;" horiz-adv-x="1111" 
d="M537 1162l-203 -2v-430h185q115 0 206 65q90 66 90 161q-1 117 -74 162t-204 44zM511 618h-178v-514q5 0 53 -6q96 -4 129 -4q72 0 131 14t107.5 44.5t76 84.5t27.5 127q0 116 -92 185q-91 69 -254 69zM87 1266l261 5q156 3 165 3q110 0 205 -17q55 -10 95 -31
q152 -71 148 -249q0 -107 -59.5 -181t-167.5 -104q-24 -6 -27 -6l26 -6q137 -43 205.5 -125t68.5 -211q0 -175 -126.5 -268.5t-366.5 -93.5q-74 0 -156 5q-73 4 -106 9l-33 4q-11 2 -15 3.5t-7.5 6.5t-3.5 16v1115l-106 44q-16 6 -16 16v48q0 17 16 17z" />
    <glyph glyph-name="Gamma" unicode="&#x393;" horiz-adv-x="811" 
d="M679 1156h-323q-37 0 -52.5 -9.5t-15.5 -33.5v-1087q0 -16 -5 -21t-21 -5h-89q-17 0 -21.5 5t-4.5 23v1107q0 69 38.5 100t124.5 31h473q18 0 18 -21l-7 -204q0 -16 -17 -16h-48q-10 0 -16 16z" />
    <glyph glyph-name="uni0394" unicode="&#x394;" horiz-adv-x="1149" 
d="M554 1076l-321 -925q-7 -20 -7 -28q0 -9 5.5 -11t24.5 -2h637q19 0 24.5 1.5t5.5 9.5q0 6 -9 32l-322 923q-13 36 -16 58h-5q-6 -27 -17 -58zM1075 0h-1001q-26 0 -26 23q0 4 3 13l425 1204q9 26 29 26h137q20 0 29 -26l427 -1204q3 -9 3 -13q0 -23 -26 -23z" />
    <glyph glyph-name="Epsilon" unicode="&#x395;" horiz-adv-x="966" 
d="M87 1266h793q16 0 21 -5t5 -21v-58q0 -16 -5 -21t-21 -5h-546v-424h400q16 0 21 -5t5 -21v-58q0 -16 -5 -21t-21 -5h-400v-512h546q16 0 21 -5t5 -21v-58q0 -16 -5 -21t-21 -5h-661q-17 0 -21.5 5t-4.5 21v1115l-106 44q-16 6 -16 16v48q0 17 16 17z" />
    <glyph glyph-name="Zeta" unicode="&#x396;" horiz-adv-x="983" 
d="M210 1156l-34 -115q-6 -16 -16 -16h-48q-17 0 -17 16l-7 204q0 21 18 21h794q21 0 21 -19v-65q0 -18 -12 -37l-681 -1035h453q76 0 113 27.5t45 102.5q0 19 18 19h87q12 0 12 -16q-7 -144 -84 -197q-67 -46 -187 -46h-596q-18 0 -18 22v74q0 13 10 26l681 1034h-552z" />
    <glyph glyph-name="Eta" unicode="&#x397;" horiz-adv-x="1246" 
d="M199 1151l-112 34q-16 4 -16 16v48q0 17 16 17h225q16 0 22 -6t6 -23v-586h590v589q0 16 5 21t21 5h89q17 0 21.5 -5t4.5 -21v-1214q0 -16 -4.5 -21t-21.5 -5h-89q-16 0 -21 5t-5 21v514h-590v-514q0 -16 -5 -21t-21 -5h-89q-17 0 -21.5 5t-4.5 21v1125z" />
    <glyph glyph-name="Theta" unicode="&#x398;" horiz-adv-x="1217" 
d="M416 611v52q0 11 9 18t19 7h327q30 0 30 -23v-56q0 -25 -28 -25h-327q-30 0 -30 27zM609 -24q-52 0 -101 8t-101.5 28.5t-97 53t-85.5 84.5t-69.5 119t-45 161t-16.5 207q0 294 114 466q123 187 402 187q112 0 200 -32t146.5 -89t97 -140t55 -179.5t16.5 -212.5
q0 -151 -31 -272t-84 -195q-49 -70 -120 -117q-119 -77 -280 -77zM608 86q368 0 368 559q0 536 -369 536q-237 0 -321 -228q-45 -130 -45 -308q0 -270 82 -408q35 -58 87 -94q49 -33 94 -45t104 -12z" />
    <glyph glyph-name="Iota" unicode="&#x399;" horiz-adv-x="632" 
d="M488 1184l-103 -20v-1062l103 -20q18 -3 22 -7.5t4 -20.5v-28q0 -16 -5 -21t-21 -5h-348q-16 0 -21 5t-5 21v28q0 16 4 20.5t22 7.5l104 20v1062l-104 20q-18 3 -22 7.5t-4 20.5v28q0 16 5 21t21 5h348q16 0 21 -5t5 -21v-28q0 -16 -4.5 -20.5t-21.5 -7.5z" />
    <glyph glyph-name="Kappa" unicode="&#x39a;" horiz-adv-x="1133" 
d="M615 660q62 -19 110 -70q44 -47 65 -97q21 -51 47 -125q27 -76 44 -112q44 -92 84 -125q42 -33 116 -33q17 0 21.5 -5t4.5 -21v-58q0 -16 -4.5 -21t-21.5 -5q-111 0 -180 32q-66 33 -120 125q-40 67 -75 189q-14 47 -37 93q-26 53 -55 84t-77 51q-48 22 -118 22h-78v-558
q0 -16 -4.5 -21t-21.5 -5h-89q-17 0 -21.5 5t-4.5 23v1123l-112 34q-16 4 -16 16v48q0 17 16 17h227q16 0 21 -5t5 -22v-545h101q103 0 160 111q20 39 40 97q22 67 32 102q14 44 36 93q26 52 55 85t78 58q53 27 122 36q24 4 70 4q12 0 16.5 -4.5t4.5 -19.5v-61q0 -16 -4 -21
t-17 -5q-31 0 -59 -6q-112 -21 -181 -218q-6 -16 -17.5 -49.5t-17.5 -51.5q-20 -56 -36 -87q-37 -73 -109 -97z" />
    <glyph glyph-name="Lambda" unicode="&#x39b;" horiz-adv-x="1156" 
d="M902 0q-20 0 -29 41q-173 704 -321 1088h-6q-4 -29 -14 -61l-327 -1051q-5 -17 -25 -17h-115q-17 0 -17 16q0 5 3 14q48 150 161 489q36 108 93.5 279t78.5 234q73 213 75 218q6 16 22 16h132q16 0 23 -16q57 -120 134 -344q74 -214 114 -354q75 -258 109 -380l18 -64
l91 -27q16 -4 16 -16v-48q0 -17 -16 -17h-200z" />
    <glyph glyph-name="Mu" unicode="&#x39c;" horiz-adv-x="1433" 
d="M409 1250l302 -687l8 -30h6q7 24 10 30l312 687q7 16 20 16h161q6 0 10.5 -5t5.5 -11q2 -24 17 -373q21 -488 25 -581q12 -273 12 -276q0 -12 -5.5 -16t-20.5 -4h-91q-16 0 -20.5 4.5t-5.5 21.5l-31 1068v41h-4q-8 -28 -15 -41l-357 -774q-6 -12 -30 -12q-26 0 -32 12
l-343 774l-14 41h-4v-38l-47 -1071q-1 -17 -5.5 -21.5t-20.5 -4.5h-91q-15 0 -20.5 4.5t-5.5 18.5q0 1 7.5 122.5t26.5 440.5t40 664q0 6 5 11t11 5h164q10 0 17 -12z" />
    <glyph glyph-name="Nu" unicode="&#x39d;" horiz-adv-x="1275" 
d="M199 1151l-112 34q-16 4 -16 16v48q0 17 16 17h263q14 0 23 -16l556 -963l39 -79h6v1032q0 16 5 21t21 5h89q17 0 21.5 -5t4.5 -21v-1214q0 -16 -4.5 -21t-21.5 -5h-111q-27 0 -42 26l-548 951q-18 31 -38 76l-4 12h-6v-1039q0 -16 -5 -21t-21 -5h-89q-17 0 -21.5 5
t-4.5 21v1125z" />
    <glyph glyph-name="Xi" unicode="&#x39e;" horiz-adv-x="992" 
d="M862 1132h-732q-16 0 -21 5t-5 21v80q0 16 5 21t21 5h732q16 0 21 -5t5 -21v-80q0 -16 -5 -21t-21 -5zM782 588h-572q-16 0 -21 5t-5 21v80q0 16 5 21t21 5h572q16 0 21 -5t5 -21v-80q0 -16 -5 -21t-21 -5zM862 0h-732q-16 0 -21 5t-5 21v80q0 16 5 21t21 5h732
q16 0 21 -5t5 -21v-80q0 -16 -5 -21t-21 -5z" />
    <glyph glyph-name="Omicron" unicode="&#x39f;" horiz-adv-x="1217" 
d="M609 -24q-52 0 -101 8t-101.5 28.5t-97 53t-85.5 84.5t-69.5 119t-45 161t-16.5 207q0 294 114 466q123 187 402 187q112 0 200 -32t146.5 -89t97 -140t55 -179.5t16.5 -212.5q0 -151 -31 -272t-84 -195q-49 -70 -120 -117q-119 -77 -280 -77zM608 86q368 0 368 559
q0 536 -369 536q-237 0 -321 -228q-45 -130 -45 -308q0 -270 82 -408q35 -58 87 -94q49 -33 94 -45t104 -12z" />
    <glyph glyph-name="Pi" unicode="&#x3a0;" horiz-adv-x="1214" 
d="M199 1150l-112 35q-16 4 -16 16v48q0 17 16 18h705q154 0 218 -88q55 -73 55 -210v-943q0 -16 -4.5 -21t-21.5 -5h-89q-16 0 -21 5t-5 21v953q0 75 -40 127q-38 48 -132 48h-386q-16 0 -21 -5t-5 -21v-1102q0 -16 -5 -21t-21 -5h-89q-17 0 -21.5 5t-4.5 21v1124z" />
    <glyph glyph-name="Rho" unicode="&#x3a1;" horiz-adv-x="995" 
d="M334 1158l-1 -568h97q385 1 385 298q0 151 -85 211q-83 61 -257 61zM87 1265h30q15 0 189 2q131 3 209 3q221 0 333 -93t112 -276q0 -421 -517 -421h-109v-454q0 -16 -5 -21t-21 -5h-89q-17 0 -21.5 5t-4.5 23v1112l-106 44q-16 6 -16 16v48q0 17 16 17z" />
    <glyph glyph-name="Sigma" unicode="&#x3a3;" horiz-adv-x="1011" 
d="M101 113l386 506q10 13 10 20q0 4 -11 20l-385 494q-8 11 -8 25v60q0 18 5.5 23t28.5 5h788q18 0 18 -21l-7 -204q0 -16 -17 -16h-48q-10 0 -16 16l-34 115h-547q391 -480 386 -497q9 -12 9 -22t-8 -20l-386 -507h553l34 115q4 16 16 16h48q17 0 17 -16l7 -204
q0 -21 -18 -21h-795q-23 0 -28.5 5t-5.5 23v60q0 14 8 25z" />
    <glyph glyph-name="Tau" unicode="&#x3a4;" horiz-adv-x="962" 
d="M34 1266h894q18 0 18 -21l-7 -204q0 -16 -17 -16h-48q-10 0 -16 16l-34 115h-272v-1054l103 -20q18 -3 22 -7.5t4 -20.5v-28q0 -16 -4.5 -21t-21.5 -5h-348q-17 0 -21.5 5t-4.5 21v28q0 16 4 20.5t22 7.5l103 20v1054h-272l-34 -115q-6 -16 -16 -16h-48q-17 0 -17 16
l-7 204q0 21 18 21z" />
    <glyph glyph-name="Upsilon" unicode="&#x3a5;" horiz-adv-x="1074" 
d="M922 1266h100q33 0 33 -18q0 -8 -7 -21q-221 -430 -269 -526q-76 -154 -137 -290v-385q0 -16 -5 -21t-21 -5h-90q-16 0 -21 5t-5 21v385q-160 376 -364 740l-110 34q-16 4 -16 16v48q0 17 16 17h209q14 0 22 -14q170 -308 319 -684h4q42 108 137 324q89 201 170 349
q15 25 35 25z" />
    <glyph glyph-name="Phi" unicode="&#x3a6;" horiz-adv-x="1365" 
d="M612 26v127h-21q-242 3 -370 125t-128 331q0 216 127 339q128 123 370 126h22v77l-112 33q-16 4 -16 17v48q0 17 16 17h227q16 0 21 -5t5 -22v-165h20q246 -2 372 -123q127 -121 127 -333q0 -217 -128 -342q-127 -123 -373 -123h-18v-127q0 -16 -4.5 -21t-21.5 -5h-89
q-16 0 -21 5t-5 21zM768 968h-15v-709h25q171 3 260.5 97t89.5 260q0 162 -91 256q-92 95 -269 96zM237 611q0 -158 91 -255t260 -97h24v709h-27q-168 -2 -258 -99t-90 -258z" />
    <glyph glyph-name="Chi" unicode="&#x3a7;" horiz-adv-x="1143" 
d="M627 760l313 488q10 18 32 18h116q18 0 18 -9q0 -5 -7 -15l-410 -616l404 -604q5 -8 5 -13q0 -9 -17 -9h-121q-20 0 -30 18l-308 467l-3.5 7l-7 14t-9.5 18h-4q-3 -9 -22 -40q-100 -164 -234 -336q-118 -153 -264 -153q-30 0 -30 22q0 7 6 88q2 17 18 18q85 10 161 101
q106 127 218 297l61 95l-347 531l-124 38q-16 4 -16 16v48q0 17 16 17h205q18 0 30 -18l308 -490l17 -34h4q4 9 22 36z" />
    <glyph glyph-name="Psi" unicode="&#x3a8;" horiz-adv-x="1443" 
d="M651 474v598q0 16 4.5 21t21.5 5h89q16 0 21 -5t5 -21v-598q73 2 135 22t112.5 59.5t79 105.5t28.5 153v430q0 13 5.5 17.5t20.5 4.5h227q16 0 16 -17v-48q0 -12 -16 -16l-112 -34v-337q0 -113 -38 -201t-108 -142q-134 -104 -350 -109v-336q0 -16 -5 -21t-21 -5h-89
q-17 0 -21.5 5t-4.5 21v336q-216 5 -351 109q-69 54 -107 142t-38 201v337l-112 34q-16 4 -16 16v48q0 17 16 17h227q15 0 20.5 -4.5t5.5 -17.5v-430q0 -87 28.5 -153t79 -105.5t112.5 -59.5t135 -22z" />
    <glyph glyph-name="uni03A9" unicode="&#x3a9;" horiz-adv-x="1264" 
d="M1160 651q0 -143 -48.5 -281t-137.5 -254v-5l128 -33q8 -3 8 -17v-44q0 -17 -16 -17h-274q-16 0 -21 5t-5 22v56q0 6 6 12q91 79 151 218q61 138 61 329q0 538 -380 538t-380 -538q0 -190 60 -329q61 -139 152 -218q6 -6 6 -12v-56q0 -17 -5 -22t-21 -5h-274
q-16 0 -16 17v44q0 14 8 17l128 33v5q-89 116 -137.5 254t-48.5 281q0 285 122 456q63 88 166.5 135.5t239.5 47.5t239.5 -47.5t166.5 -135.5q122 -171 122 -456z" />
    <glyph glyph-name="Iotadieresis" unicode="&#x3aa;" horiz-adv-x="632" 
d="M488 1184l-103 -20v-1062l103 -20q18 -3 22 -7.5t4 -20.5v-28q0 -16 -5 -21t-21 -5h-348q-16 0 -21 5t-5 21v28q0 16 4 20.5t22 7.5l104 20v1062l-104 20q-18 3 -22 7.5t-4 20.5v28q0 16 5 21t21 5h348q16 0 21 -5t5 -21v-28q0 -16 -4.5 -20.5t-21.5 -7.5zM528 1414
q-24 -24 -59 -24t-59 24t-24 59t24 59t59 24t59 -24t24 -59t-24 -59zM226 1414q-24 -24 -59 -24t-59 24t-24 59t24 59t59 24t59 -24t24 -59t-24 -59z" />
    <glyph glyph-name="Upsilondieresis" unicode="&#x3ab;" horiz-adv-x="1074" 
d="M922 1266h100q33 0 33 -18q0 -8 -7 -21q-221 -430 -269 -526q-76 -154 -137 -290v-385q0 -16 -5 -21t-21 -5h-90q-16 0 -21 5t-5 21v385q-160 376 -364 740l-110 34q-16 4 -16 16v48q0 17 16 17h209q14 0 22 -14q170 -308 319 -684h4q42 108 137 324q89 201 170 349
q15 25 35 25zM778 1414q-24 -24 -59 -24t-59 24t-24 59t24 59t59 24t59 -24t24 -59t-24 -59zM476 1414q-24 -24 -59 -24t-59 24t-24 59t24 59t59 24t59 -24t24 -59t-24 -59z" />
    <glyph glyph-name="alphatonos" unicode="&#x3ac;" horiz-adv-x="1246" 
d="M942 2l-58 255q-216 -280 -464 -280q-164 1 -244.5 113.5t-80.5 290.5q0 253 121 410q122 158 319 158q209 -4 308 -155q55 -83 97 -218q42 88 71 159l74 176q7 16 25 16h100q17 0 17 -17q0 -1 -2 -9q-73 -181 -145 -325q-49 -98 -96 -173l76 -304l99 -34q10 -3 12 -5
t2 -9v-41q0 -8 -12 -9l-199 -19q-15 0 -20 20zM442 90q208 0 407 310q-60 230 -128 334t-183 104q-86 2 -156 -59.5t-108 -165.5t-36 -227q0 -111 39 -196q48 -100 165 -100zM705 1291q-64 -178 -76 -201q-10 -22 -22 -22h-61q-14 0 -14 13q0 7 25 220q3 26 30 26h103
q21 0 21 -14q0 -4 -6 -22z" />
    <glyph glyph-name="epsilontonos" unicode="&#x3ad;" horiz-adv-x="859" 
d="M435 -24q-151 0 -246 71q-94 72 -94 194q0 173 189 235q-81 35 -125.5 91.5t-44.5 123.5q0 122 84 190t234 68q154 0 323 -63q22 -9 22 -20l-13 -163q-2 -17 -17 -17h-43q-11 0 -16 17l-28 115q-91 28 -209 28q-94 0 -146.5 -44.5t-52.5 -122.5t59.5 -117.5t173.5 -39.5
h90q7 0 11.5 -5.5t4.5 -11.5v-70q0 -17 -16 -17h-106q-111 0 -169 -42t-58 -118q0 -84 67 -132q68 -47 152 -47q121 0 212 28l28 115q5 17 16 17h43q15 0 17 -17l13 -163q0 -11 -22 -20q-148 -63 -333 -63zM575 1291q-64 -178 -76 -201q-10 -22 -22 -22h-61q-14 0 -14 13
q0 7 25 220q3 26 30 26h103q21 0 21 -14q0 -4 -6 -22z" />
    <glyph glyph-name="etatonos" unicode="&#x3ae;" horiz-adv-x="1053" 
d="M920 -68q0 -222 11 -280l2.5 -12.5t3.5 -15t3 -14t2 -10.5l1 -4q0 -12 -19 -12h-87q-31 0 -38 72q-14 90 -14 285v715q0 181 -178 181q-143 0 -295 -143v-678q0 -16 -17 -16h-101q-17 0 -17 16v799l-105 27q-17 3 -17 18v45q0 14 17 16l203 20q15 0 16 -19l14 -116
q189 144 351 144q124 0 194 -68.5t70 -192.5v-757zM675 1291q-64 -178 -76 -201q-10 -22 -22 -22h-61q-14 0 -14 13q0 7 25 220q3 26 30 26h103q21 0 21 -14q0 -4 -6 -22z" />
    <glyph glyph-name="iotatonos" unicode="&#x3af;" horiz-adv-x="598" 
d="M178 815l-106 27q-17 3 -17 18v45q0 14 17 16l225 23q16 0 16 -19v-649q0 -96 38.5 -142t119.5 -46q33 0 87 9l7 1q9 0 11 -12l7 -76q0 -12 -12 -15q-83 -18 -147 -18q-124 0 -185 72.5t-61 226.5v539zM365 1291q-64 -178 -76 -201q-10 -22 -22 -22h-61q-14 0 -14 13
q0 7 25 220q3 26 30 26h103q21 0 21 -14q0 -4 -6 -22z" />
    <glyph glyph-name="upsilondieresistonos" unicode="&#x3b0;" horiz-adv-x="1034" 
d="M754 815l-105 27q-17 3 -17 18v45q0 14 17 16l204 20q17 0 21 -19q19 -75 25 -104q9 -38 18 -84q22 -107 22 -196q0 -562 -436 -562q-173 0 -273 105q-99 107 -99 327q0 55 1 100t1 102q0 91 -11 209q-1 6 -11 89q0 17 17 17h106q14 0 17 -17q19 -115 19 -277
q0 -10 -2 -108t-2 -115q0 -322 238 -322q204 4 262 201q33 103 33 261q0 120 -45 267zM759 1097q-24 -24 -59 -24t-59 24t-24 59t24 59t59 24t59 -24t24 -59t-24 -59zM347 1097q-24 -24 -59 -24t-59 24t-24 59t24 59t59 24t59 -24t24 -59t-24 -59zM601 1291
q-64 -178 -76 -201q-10 -22 -22 -22h-61q-14 0 -14 13q0 7 25 220q3 26 30 26h103q21 0 21 -14q0 -4 -6 -22z" />
    <glyph glyph-name="alpha" unicode="&#x3b1;" horiz-adv-x="1261" 
d="M942 2l-58 255q-216 -280 -464 -280q-164 1 -244.5 113.5t-80.5 290.5q0 253 121 410q122 158 319 158q209 -4 308 -155q55 -83 97 -218q42 88 71 159l74 176q7 16 25 16h100q17 0 17 -17q0 -1 -2 -9q-73 -181 -145 -325q-49 -98 -96 -173l76 -304l99 -34q10 -3 12 -5
t2 -9v-41q0 -8 -12 -9l-199 -19q-15 0 -20 20zM442 90q208 0 407 310q-60 230 -128 334t-183 104q-86 2 -156 -59.5t-108 -165.5t-36 -227q0 -111 39 -196q48 -100 165 -100z" />
    <glyph glyph-name="beta" unicode="&#x3b2;" horiz-adv-x="1086" 
d="M270 974v-1035q0 -229 11 -287l2.5 -12.5t3.5 -15t3 -14t2 -10.5l1 -4q0 -12 -19 -12h-87q-31 0 -38 72q-14 90 -14 285v1074q0 178 104 294t297 116q164 0 264 -80q99 -79 99 -235q0 -98 -57 -182q-58 -83 -144 -134q137 -47 221 -159q85 -112 85 -256q0 -147 -94 -270
q-47 -61 -124.5 -96.5t-170.5 -35.5q-149 0 -276 70q-8 5 -8 11q0 2 2 8l37 64q5 8 10 8q1 0 7 -2q97 -49 220 -49q117 0 185 87q69 87 69 208q0 137 -94 231q-93 95 -239 113q-16 1 -16 17v77q0 16 16 16q88 5 158 87q72 84 72 181q0 92 -64 147q-63 57 -158 57
q-180 0 -237 -147q-29 -76 -29 -187z" />
    <glyph glyph-name="gamma" unicode="&#x3b3;" horiz-adv-x="1220" 
d="M1191 843l-109 -24q-274 -505 -405 -815v-393q0 -17 -5 -22t-22 -5h-81q-17 0 -22 5t-5 22v393q-130 308 -404 815l-109 24q-17 3 -17 18l-2 45q0 14 17 16l187 18q18 0 34 -28q88 -160 193 -384q103 -218 165 -369h9q60 145 164 368q108 228 194 385q1 1 1 3
q13 21 27 23l6 1l186 -17q17 -2 17 -16l-2 -45q0 -15 -17 -18z" />
    <glyph glyph-name="delta" unicode="&#x3b4;" horiz-adv-x="1043" 
d="M765 1117l-28 115q-64 33 -146 58q-79 25 -149 25q-52 0 -86.5 -23.5t-34.5 -69.5q0 -50 60 -108q25 -23 51 -46q4 -3 24.5 -18.5t34.5 -25.5l43 -31q76 -56 88 -66q37 -28 82 -65q56 -47 80 -73q24 -25 64 -77q61 -75 86 -183q14 -56 14 -111q0 -194 -118 -318
q-117 -123 -312 -123q-184 0 -304 122q-119 122 -119 313q0 162 116 280q115 118 299 172q-25 20 -72 52q-57 42 -87 66q-62 47 -116 107q-60 68 -60 146q0 90 76 139q77 50 180 50q101 0 214 -35q110 -34 199 -93q10 -6 10 -17l-13 -162q-2 -17 -17 -17h-43q-11 0 -16 17z
M807 408q0 115 -50.5 206t-153.5 176q-172 -36 -270 -139q-98 -104 -98 -237q0 -83 35 -156.5t102 -122.5q70 -49 159 -49q128 0 201 91q75 91 75 231z" />
    <glyph glyph-name="epsilon" unicode="&#x3b5;" horiz-adv-x="861" 
d="M435 -24q-151 0 -246 71q-94 72 -94 194q0 173 189 235q-81 35 -125.5 91.5t-44.5 123.5q0 122 84 190t234 68q154 0 323 -63q22 -9 22 -20l-13 -163q-2 -17 -17 -17h-43q-11 0 -16 17l-28 115q-91 28 -209 28q-94 0 -146.5 -44.5t-52.5 -122.5t59.5 -117.5t173.5 -39.5
h90q7 0 11.5 -5.5t4.5 -11.5v-70q0 -17 -16 -17h-106q-111 0 -169 -42t-58 -118q0 -84 67 -132q68 -47 152 -47q121 0 212 28l28 115q5 17 16 17h43q15 0 17 -17l13 -163q0 -11 -22 -20q-148 -63 -333 -63z" />
    <glyph glyph-name="zeta" unicode="&#x3b6;" horiz-adv-x="761" 
d="M105 419q0 129 71 282q56 121 147 239q91 120 199 211v4h-294l-29 -108q-5 -17 -16 -17h-43q-15 0 -17 17l-16 197q0 22 33 22h553q17 0 20 -13l19 -76q2 -10 2 -12q0 -9 -10 -15q-124 -74 -236 -204q-114 -130 -179 -264q-66 -135 -66 -231q0 -78 44 -136
q44 -56 148 -133q154 -111 191 -144q55 -48 81 -91.5t26 -97.5q0 -100 -108 -187q-52 -43 -132 -70t-171 -31q-16 0 -16 17v70q0 21 21 24q37 5 67 12q76 16 138 63q61 46 61 98q0 30 -16.5 58t-49.5 56t-65 50t-83 55t-82 56q-193 135 -192 299z" />
    <glyph glyph-name="eta" unicode="&#x3b7;" horiz-adv-x="1059" 
d="M920 -68q0 -222 11 -280l2.5 -12.5t3.5 -15t3 -14t2 -10.5l1 -4q0 -12 -19 -12h-87q-31 0 -38 72q-14 90 -14 285v715q0 181 -178 181q-143 0 -295 -143v-678q0 -16 -17 -16h-101q-17 0 -17 16v799l-105 27q-17 3 -17 18v45q0 14 17 16l203 20q15 0 16 -19l14 -116
q189 144 351 144q124 0 194 -68.5t70 -192.5v-757z" />
    <glyph glyph-name="theta" unicode="&#x3b8;" horiz-adv-x="1110" 
d="M116 674q0 335 92 517q43 84 100 137q103 96 248 96q143 0 246 -96q58 -54 99 -137q93 -181 93 -517q0 -297 -104 -491q-53 -98 -139 -152.5t-196 -54.5t-196 54.5t-139 152.5q-104 194 -104 491zM852 648v12h-594v-12q0 -288 93 -432q85 -130 204 -130t204 130
q93 144 93 432zM851 770q-18 346 -138 471q-67 73 -158 73q-143 0 -223 -174q-61 -134 -73 -370h592z" />
    <glyph glyph-name="iota" unicode="&#x3b9;" horiz-adv-x="593" 
d="M178 815l-106 27q-17 3 -17 18v45q0 14 17 16l225 23q16 0 16 -19v-649q0 -96 38.5 -142t119.5 -46q33 0 87 9l7 1q9 0 11 -12l7 -76q0 -12 -12 -15q-83 -18 -147 -18q-124 0 -185 72.5t-61 226.5v539z" />
    <glyph glyph-name="kappa" unicode="&#x3ba;" horiz-adv-x="964" 
d="M178 813l-106 27q-17 3 -17 18v45q0 14 17 16l225 23q16 0 16 -19v-394h119q46 0 85 31q13 12 30 39q14 25 22 42q7 14 21 53q4 9 8.5 21t7.5 18.5t4 10.5q81 194 290 194q22 0 22 -13v-83q0 -15 -24 -15q-38 1 -68.5 -12t-49 -29.5t-36 -48t-25 -52t-19.5 -56.5
q-40 -115 -127 -138q45 -18 75.5 -56t40.5 -82q10 -38 24 -88q10 -31 15 -44.5t15 -35t24 -35.5t34 -26q43 -23 107 -23q18 0 18 -17v-74q0 -12 -4 -15t-16 -3q-124 0 -193 45t-102 146q-16 48 -21 62q-4 12 -20 52q-17 44 -45 77q-35 45 -108 45h-104v-403q0 -16 -16 -16
h-103q-16 0 -16 16v797z" />
    <glyph glyph-name="lambda" unicode="&#x3bb;" horiz-adv-x="1049" 
d="M785 14l-233 782q-27 -14 -37 -44q-174 -447 -236 -572q-85 -173 -210 -196q-3 0 -6.5 -0.5t-5.5 -1t-3 -0.5q-13 0 -17 16l-21 86q-1 3 -1 8q0 12 15 16q86 25 133 127q70 154 139 325q81 196 123 282q21 42 89 71q-1 3 -4.5 14.5t-7.5 24.5l-8 26q-11 38 -23 70
q-7 24 -24 63q-14 39 -32 63q-64 103 -156 123q-55 15 -130 15q-17 0 -19 15l-10 79q0 14 15 15q24 3 61 3q127 0 225 -49q47 -24 99 -91q21 -24 40 -64q24 -46 36 -74q14 -33 34 -89q11 -31 32 -99q26 -84 35 -114q151 -506 233 -729l112 -28q17 -5 17 -16v-46
q0 -14 -17 -17l-216 -17q-13 0 -21 23z" />
    <glyph glyph-name="uni03BC" unicode="&#x3bc;" horiz-adv-x="1102" 
d="M161 -59v872l-106 27q-17 3 -17 18v45q0 14 17 16l225 23q16 0 16 -19v-650q17 -75 80 -128q65 -53 141 -53q95 0 168 62q73 64 107 165v590q0 17 16 17h102q7 0 12 -5t5 -12v-639q0 -84 30.5 -128t96.5 -53q10 -1 10 -10v-1q-1 -2 -1.5 -4t-0.5 -5l-1 -9l-13 -65
q-2 -9 -17 -9q-108 3 -168 63q-43 44 -59 101q-103 -172 -287 -172q-135 0 -221 98v-137q0 -229 11 -287l2.5 -12.5t3.5 -15t3 -14t2 -10.5l1 -4q0 -12 -19 -12h-87q-31 0 -38 72q-14 90 -14 285z" />
    <glyph glyph-name="nu" unicode="&#x3bd;" horiz-adv-x="948" 
d="M450 269q7 -21 14 -46q5 -16 19 -59q7 -22 18 -45q134 276 270 776q7 31 30 31h101q24 0 24 -14q0 -8 -16 -56q-124 -395 -224 -612q-73 -159 -116 -228q-10 -16 -29 -16h-90q-21 0 -29 18q-14 29 -29 66q-27 72 -28 74l-11 30q-93 253 -205 628l-110 24q-17 3 -17 18
l-2 45q0 14 17 16q202 18 210 19q15 0 18 -10q26 -85 50 -186q28 -115 135 -473z" />
    <glyph glyph-name="xi" unicode="&#x3be;" horiz-adv-x="820" 
d="M241 425q0 -50 31.5 -93.5t96.5 -95.5l54 -42q45 -34 86 -62q58 -39 91 -65q37 -27 73 -62q76 -70 76 -156q0 -100 -108 -187q-52 -43 -132 -70t-171 -31q-16 0 -16 17v70q0 18 17 23q2 0 6.5 1t12 2.5t13.5 2.5q36 6 39 7q76 16 138 63q61 46 61 98q8 71 -133 159
q-11 7 -82 53q-50 31 -81 54q-90 63 -146 126q-67 78 -67 174q0 101 54 189q55 87 175 140v4q-199 66 -199 253q0 94 58 161q60 69 146 100q90 32 191 32q111 0 197 -27q11 -3 11 -16l-20 -165q-2 -17 -17 -17h-43q-11 0 -16 17l-29 108q-31 6 -62 6q-155 0 -239 -90
q-44 -47 -44 -109q0 -107 82 -153t272 -46q17 0 17 -16v-73q0 -16 -17 -16q-52 0 -102 -8t-100.5 -28t-88.5 -50t-61.5 -77t-23.5 -105z" />
    <glyph glyph-name="omicron" unicode="&#x3bf;" horiz-adv-x="1037" 
d="M95 475q-3 217 104 345.5t316 129.5q208 0 317 -130q110 -130 110 -345q0 -116 -26.5 -209.5t-70.5 -149.5q-40 -52 -99 -85q-96 -55 -220 -55q-123 0 -224 55q-62 34 -104 85q-46 56 -74.5 149.5t-28.5 209.5zM235 472q0 -388 290 -388q142 -3 215 109q58 93 58 279
q0 366 -284 366q-150 0 -215 -96q-64 -95 -64 -270z" />
    <glyph glyph-name="pi" unicode="&#x3c0;" horiz-adv-x="1119" 
d="M839 815v-539q0 -96 38 -141t120 -45q30 0 78 9l6 1q9 0 11 -12l7 -76q0 -10 -12 -15q-83 -18 -137 -18q-124 0 -185 72t-61 225v539h-306q0 -170 -32 -389q-31 -210 -94 -401q-7 -25 -23 -25h-101q-17 0 -17 10q0 6 4 17q61 179 94 394q33 213 33 380v12
q-81 -1 -133 -25q-13 -6 -43 -23q-6 -3 -10 -3q-9 0 -12 8l-25 76q-1 3 -1 7q0 9 9 15q44 27 97 42q54 16 149 16h728q16 0 16 -17v-78q0 -16 -16 -16h-182z" />
    <glyph glyph-name="rho" unicode="&#x3c1;" horiz-adv-x="1070" 
d="M263 214q131 -131 288 -131q107 0 176 60q104 89 104 327q0 173 -70 270q-69 98 -219 98q-64 0 -113 -22.5t-80 -61t-50.5 -95t-27.5 -120t-8 -140.5v-185zM127 -59l1 467q2 542 415 542q206 0 319 -131t113 -346q0 -326 -197 -442q-94 -55 -210 -55q-160 0 -306 119
v-156q0 -229 11 -287l2.5 -12.5t3.5 -15t3 -14t2 -10.5l1 -4q0 -12 -19 -12h-87q-31 0 -38 72q-14 90 -14 285z" />
    <glyph glyph-name="sigma1" unicode="&#x3c2;" horiz-adv-x="852" 
d="M233 464q0 -69 33 -126q24 -40 85 -86q26 -17 56 -33q17 -9 58 -28q5 -2 26.5 -11.5t35.5 -15.5q58 -25 59 -25q2 -1 6.5 -3t11.5 -5t13 -6q8 -3 19 -8t15 -7q45 -21 60 -37q43 -43 43 -94q0 -35 -30 -131q-28 -95 -51 -130q-7 -12 -15 -12q-4 0 -7 1l-74 22q-7 1 -7 10
q0 5 9 36q32 114 32 167q0 29 -15 48.5t-54 37.5q-33 15 -65 28q-67 29 -90 40q-55 26 -77 37q-112 56 -166 134.5t-54 196.5q0 218 122 352t321 134q104 0 270 -52q11 -3 11 -16l-13 -163q-1 -16 -17 -16h-43q-11 0 -16 17l-29 108q-67 16 -163 16q-135 0 -218 -105
q-82 -104 -82 -275z" />
    <glyph glyph-name="sigma" unicode="&#x3c3;" horiz-adv-x="1086" 
d="M1024 950q17 0 17 -20v-74q0 -18 -21 -18l-217 8q147 -118 147 -361q0 -117 -27 -211.5t-71 -150.5q-43 -55 -100 -89q-99 -58 -221 -58t-226 58q-59 34 -105 89q-47 57 -76 151.5t-29 210.5q0 216 109 340q110 125 324 125h496zM235 482q0 -263 133 -352q70 -46 162 -46
q278 0 278 398q0 356 -289 356q-149 0 -216.5 -89.5t-67.5 -266.5z" />
    <glyph glyph-name="tau" unicode="&#x3c4;" horiz-adv-x="753" 
d="M410 814v-538q0 -96 38.5 -142.5t119.5 -46.5q33 0 87 9l7 1q10 0 11 -12l7 -76q0 -12 -12 -15q-82 -18 -147 -18q-124 0 -185 73t-61 227v538h-232q-16 0 -16 16v79q0 17 16 17h649q16 0 16 -17v-79q0 -16 -16 -16h-282z" />
    <glyph glyph-name="upsilon" unicode="&#x3c5;" horiz-adv-x="1034" 
d="M754 815l-105 27q-17 3 -17 18v45q0 14 17 16l204 20q17 0 21 -19q19 -75 25 -104q9 -38 18 -84q22 -107 22 -196q0 -562 -436 -562q-173 0 -273 105q-99 107 -99 327q0 55 1 100t1 102q0 91 -11 209q-1 6 -11 89q0 17 17 17h106q14 0 17 -17q19 -115 19 -277
q0 -10 -2 -108t-2 -115q0 -322 238 -322q204 4 262 201q33 103 33 261q0 120 -45 267z" />
    <glyph glyph-name="phi" unicode="&#x3c6;" horiz-adv-x="1370" 
d="M751 1058v-107q152 -2 273 -54q73 -31 127 -82q56 -53 90 -141.5t34 -198.5q0 -469 -524 -499v-376q0 -7 -5.5 -11.5t-11.5 -4.5h-101q-7 0 -12 5t-5 11v375q-100 5 -188 28q-109 30 -189 98q-91 79 -125 210q-19 70 -19 159q0 171 90 294q91 124 218 158q10 2 12 2
q7 0 11 -12l24 -69q1 -3 1 -7q0 -6 -7 -9q-96 -37 -155 -135q-57 -98 -57 -209q0 -188 85 -287q40 -43 91 -67q85 -41 208 -47v976q0 18 17 18h101q17 0 17 -18zM1138 473q0 89 -25 159t-66 110q-37 39 -93 63q-88 38 -203 40v-763q131 8 220 54q53 29 87 70q80 93 80 267z
" />
    <glyph glyph-name="chi" unicode="&#x3c7;" horiz-adv-x="1123" 
d="M144 819l-109 24q-17 3 -17 18l-2 45q0 14 17 16l185 18q20 0 37 -27l336 -597h5q18 40 316 592q10 18 31 18h111q16 0 16 -10q0 -3 -6 -14l-391 -687q178 -304 268 -416q73 -90 154 -100q15 -1 17 -18q6 -81 6 -88q0 -22 -29 -22q-139 0 -252 153q-73 98 -224 354
q-19 33 -21 40h-6q-2 -7 -21 -40q-151 -256 -224 -354q-113 -153 -252 -153q-17 0 -23 4t-6 16q0 9 6 90q2 17 17 18q81 10 154 100q98 122 266 420z" />
    <glyph glyph-name="psi" unicode="&#x3c8;" horiz-adv-x="1391" 
d="M763 -21v-379q0 -7 -5.5 -11.5t-11.5 -4.5h-101q-17 0 -17 16v379q-213 1 -341 133q-126 132 -126 368v333l-106 27q-17 3 -17 18v45q0 15 17 17l225 22q16 0 16 -19v-443q0 -189 87.5 -288t244.5 -102v968q0 18 17 18h101q17 0 17 -18v-968q157 3 244.5 102t87.5 288
v443q0 19 16 19l225 -22q17 -2 17 -17v-45q0 -15 -17 -18l-106 -27v-333q0 -237 -127 -368q-127 -132 -340 -133z" />
    <glyph glyph-name="omega" unicode="&#x3c9;" horiz-adv-x="1469" 
d="M738 109h-7q-92 -131 -249 -131q-122 0 -204.5 66t-128.5 176q-54 132 -54 288q0 108 24 236q27 138 41 178q6 19 21 19l204 -20q17 -2 17 -16v-45q0 -15 -17 -18l-105 -27q-47 -123 -47 -297q0 -144 47 -276q27 -72 79 -114t121 -42q187 0 187 325v135q0 17 17 17h101
q17 0 17 -17v-135q0 -325 187 -325q70 0 122 42t77 114q48 128 48 276q0 174 -47 297l-105 27q-17 3 -17 18v45q0 14 17 16l204 20q15 0 21 -19q15 -45 40 -178q25 -125 25 -236q0 -115 -31 -224.5t-96 -186.5q-44 -55 -111.5 -87t-148.5 -32q-157 0 -249 131z" />
    <glyph glyph-name="iotadieresis" unicode="&#x3ca;" horiz-adv-x="652" 
d="M182 815l-106 27q-17 3 -17 18v45q0 14 17 16l225 23q16 0 16 -19v-649q0 -96 38.5 -142t119.5 -46q33 0 87 9l7 1q9 0 11 -12l7 -76q0 -12 -12 -15q-83 -18 -147 -18q-124 0 -185 72.5t-61 226.5v539zM446 1097q-24 -24 -59 -24t-59 24t-24 59t24 59t59 24t59 -24
t24 -59t-24 -59zM144 1097q-24 -24 -59 -24t-59 24t-24 59t24 59t59 24t59 -24t24 -59t-24 -59z" />
    <glyph glyph-name="upsilondieresis" unicode="&#x3cb;" horiz-adv-x="1034" 
d="M754 815l-105 27q-17 3 -17 18v45q0 14 17 16l204 20q17 0 21 -19q19 -75 25 -104q9 -38 18 -84q22 -107 22 -196q0 -562 -436 -562q-173 0 -273 105q-99 107 -99 327q0 55 1 100t1 102q0 91 -11 209q-1 6 -11 89q0 17 17 17h106q14 0 17 -17q19 -115 19 -277
q0 -10 -2 -108t-2 -115q0 -322 238 -322q204 4 262 201q33 103 33 261q0 120 -45 267zM718 1097q-24 -24 -59 -24t-59 24t-24 59t24 59t59 24t59 -24t24 -59t-24 -59zM416 1097q-24 -24 -59 -24t-59 24t-24 59t24 59t59 24t59 -24t24 -59t-24 -59z" />
    <glyph glyph-name="omicrontonos" unicode="&#x3cc;" horiz-adv-x="1037" 
d="M95 475q-3 217 104 345.5t316 129.5q208 0 317 -130q110 -130 110 -345q0 -116 -26.5 -209.5t-70.5 -149.5q-40 -52 -99 -85q-96 -55 -220 -55q-123 0 -224 55q-62 34 -104 85q-46 56 -74.5 149.5t-28.5 209.5zM235 472q0 -388 290 -388q142 -3 215 109q58 93 58 279
q0 366 -284 366q-150 0 -215 -96q-64 -95 -64 -270zM635 1291q-64 -178 -76 -201q-10 -22 -22 -22h-61q-14 0 -14 13q0 7 25 220q3 26 30 26h103q21 0 21 -14q0 -4 -6 -22z" />
    <glyph glyph-name="upsilontonos" unicode="&#x3cd;" horiz-adv-x="1034" 
d="M754 815l-105 27q-17 3 -17 18v45q0 14 17 16l204 20q17 0 21 -19q19 -75 25 -104q9 -38 18 -84q22 -107 22 -196q0 -562 -436 -562q-173 0 -273 105q-99 107 -99 327q0 55 1 100t1 102q0 91 -11 209q-1 6 -11 89q0 17 17 17h106q14 0 17 -17q19 -115 19 -277
q0 -10 -2 -108t-2 -115q0 -322 238 -322q204 4 262 201q33 103 33 261q0 120 -45 267zM615 1291q-64 -178 -76 -201q-10 -22 -22 -22h-61q-14 0 -14 13q0 7 25 220q3 26 30 26h103q21 0 21 -14q0 -4 -6 -22z" />
    <glyph glyph-name="omegatonos" unicode="&#x3ce;" horiz-adv-x="1469" 
d="M738 109h-7q-92 -131 -249 -131q-122 0 -204.5 66t-128.5 176q-54 132 -54 288q0 108 24 236q27 138 41 178q6 19 21 19l204 -20q17 -2 17 -16v-45q0 -15 -17 -18l-105 -27q-47 -123 -47 -297q0 -144 47 -276q27 -72 79 -114t121 -42q187 0 187 325v135q0 17 17 17h101
q17 0 17 -17v-135q0 -325 187 -325q70 0 122 42t77 114q48 128 48 276q0 174 -47 297l-105 27q-17 3 -17 18v45q0 14 17 16l204 20q15 0 21 -19q15 -45 40 -178q25 -125 25 -236q0 -115 -31 -224.5t-96 -186.5q-44 -55 -111.5 -87t-148.5 -32q-157 0 -249 131zM875 1291
q-64 -178 -76 -201q-10 -22 -22 -22h-61q-14 0 -14 13q0 7 25 220q3 26 30 26h103q21 0 21 -14q0 -4 -6 -22z" />
    <glyph glyph-name="Iocyrillic" unicode="&#x401;" horiz-adv-x="966" 
d="M87 1266h793q16 0 21 -5t5 -21v-58q0 -16 -5 -21t-21 -5h-546v-424h400q16 0 21 -5t5 -21v-58q0 -16 -5 -21t-21 -5h-400v-512h546q16 0 21 -5t5 -21v-58q0 -16 -5 -21t-21 -5h-661q-17 0 -21.5 5t-4.5 21v1115l-106 44q-16 6 -16 16v48q0 17 16 17zM748 1417
q-24 -24 -59 -24t-59 24t-24 59t24 59t59 24t59 -24t24 -59t-24 -59zM446 1417q-24 -24 -59 -24t-59 24t-24 59t24 59t59 24t59 -24t24 -59t-24 -59z" />
    <glyph glyph-name="Djecyrillic" unicode="&#x402;" horiz-adv-x="1270" 
d="M41 1266h894q18 0 18 -21l-8 -204q0 -16 -17 -16h-48q-10 0 -16 16l-34 115h-272v-455q74 58 161.5 91.5t170.5 33.5q127 0 195.5 -72t68.5 -204v-582q0 -361 -289 -383q-18 0 -20 11l-17 84q0 13 13 14q90 13 131 71t41 196v569q0 100 -38 144.5t-127 44.5
q-69 0 -150 -34q-82 -33 -140 -82v-577q0 -16 -5 -21t-21 -5h-88q-17 0 -22 5t-5 21v1130h-272l-34 -115q-6 -16 -16 -16h-48q-17 0 -17 16l-7 204q0 21 18 21z" />
    <glyph glyph-name="Gjecyrillic" unicode="&#x403;" horiz-adv-x="811" 
d="M679 1156h-323q-37 0 -52.5 -9.5t-15.5 -33.5v-1087q0 -16 -5 -21t-21 -5h-89q-17 0 -21.5 5t-4.5 23v1107q0 69 38.5 100t124.5 31h473q18 0 18 -21l-7 -204q0 -16 -17 -16h-48q-10 0 -16 16zM577 1612h133q15 0 15 -10q0 -12 -25 -34l-173 -158q-21 -21 -44 -21h-85
q-13 0 -13 8q0 9 12 23l128 165q15 18 24 22.5t28 4.5z" />
    </font>
</defs>
</svg>
